# Blender 3.5.0
# www.blender.org
mtllib bonfire.mtl
o Cube
v -0.087931 0.698292 0.113020
v -0.041823 0.786135 -0.002137
v -0.130973 0.791711 0.084275
v -0.106495 0.812259 0.034965
v -0.133327 0.894518 0.014002
v -0.359859 0.094448 0.574776
v -0.304501 -0.017276 0.437740
v 0.037055 0.894518 0.082830
v -0.189477 0.094448 0.643604
v -0.134119 -0.017276 0.506568
v 0.031162 0.873706 0.097417
v -0.121367 0.802003 0.094260
v 0.062210 0.842559 0.020559
v -0.020864 0.551234 0.226207
v -0.017666 0.701256 0.218289
v -0.037083 0.782794 -0.106517
v -0.085856 0.820038 -0.073083
v -0.092238 0.811591 -0.087714
v -0.133204 0.587716 0.013697
v -0.046422 0.608544 0.031774
v -0.138347 0.778209 0.026429
v -0.054478 0.762016 0.041284
v 0.077716 0.812454 -0.017826
v -0.025748 0.782794 -0.101938
v -0.034371 0.821983 -0.049510
v -0.027266 0.770003 -0.092124
v -0.034488 0.785113 -0.001756
v -0.033421 0.786175 -0.000785
v -0.038929 0.762689 -0.019424
v 0.026936 0.816771 -0.032180
v 0.050892 0.835826 0.004682
v 0.075133 0.812674 -0.018556
v 0.032044 0.569586 0.095233
v -0.018655 0.635897 0.020690
v 0.026939 0.621419 0.107870
v 0.029165 0.571702 0.102360
v 0.076705 0.810485 -0.015324
v 0.061760 0.821464 0.021672
v 0.052961 0.832651 0.010946
v -0.040842 0.747757 0.042862
v -0.075101 0.710017 0.114724
v -0.016920 0.774111 -0.007319
v -0.040109 0.748565 0.041324
v 0.050548 0.834552 0.016039
v 0.010340 0.799705 -0.011811
v -0.034490 0.759051 -0.021478
v -0.020935 0.635789 0.038604
v -0.085464 0.707445 0.031436
vn 0.2259 0.7977 -0.5591
vn 0.2988 -0.6030 -0.7397
vn 0.9272 -0.0000 0.3746
vn -0.2259 -0.7977 0.5591
vn -0.9272 -0.0000 -0.3746
vn -0.2988 0.6030 0.7397
vn -0.7454 0.0510 0.6646
vn 0.5566 0.5963 0.5785
vn 0.3668 -0.8012 0.4729
vn 0.7454 -0.0510 -0.6646
vn -0.6720 -0.7183 -0.1801
vn -0.7165 0.6921 -0.0870
vn 0.7165 -0.6921 0.0870
vn 0.1872 0.0705 -0.9798
vn 0.0988 -0.8009 -0.5905
vn 0.0989 -0.8009 -0.5905
vn 0.9873 0.0047 0.1589
vn 0.1245 0.5987 -0.7912
vn 0.6777 -0.7327 -0.0617
vn -0.7347 -0.6714 -0.0975
vn 0.7347 0.6714 0.0975
vn 0.0300 0.1114 -0.9933
vn 0.3668 -0.8012 0.4728
vn 0.3668 -0.8011 0.4729
vn 0.1871 0.0706 -0.9798
vn 0.6778 -0.7327 -0.0617
vt 0.625000 0.500000
vt 0.625000 0.500000
vt 0.625000 0.750000
vt 0.625000 0.500000
vt 0.625000 0.500000
vt 0.375000 0.500000
vt 0.375000 0.750000
vt 0.875000 0.500000
vt 0.625000 0.250000
vt 0.125000 0.500000
vt 0.375000 0.250000
vt 0.375000 1.000000
vt 0.375000 0.000000
vt 0.125000 0.750000
vt 0.618497 0.250000
vt 0.771855 0.551996
vt 0.596092 0.444015
vt 0.625000 0.726709
vt 0.625000 0.136265
vt 0.624763 0.135428
vt 0.875000 0.613735
vt 0.533496 0.137119
vt 0.550179 0.750000
vt 0.564611 0.250000
vt 0.580780 0.633070
vt 0.625000 0.809994
vt 0.684994 0.750000
vt 0.703655 0.701779
vt 0.640506 0.666661
vt 0.625000 0.648803
vt 0.625000 0.685564
vt 0.621762 0.665731
vt 0.564043 0.750000
vt 0.579365 0.317127
vt 0.570552 0.868683
vt 0.598442 0.250000
vt 0.599858 0.580214
vt 0.613184 0.500000
vt 0.617142 0.868509
vt 0.723763 0.500000
vt 0.625000 0.401237
vt 0.782340 0.558090
vt 0.875000 0.683631
vt 0.625000 0.066369
vt 0.625000 0.826625
vt 0.701625 0.750000
vt 0.609246 0.606553
vt 0.717464 0.662308
vt 0.625000 0.580791
vt 0.621003 0.829711
vt 0.726972 0.684011
vt 0.608175 0.585485
vt 0.625000 0.926099
vt 0.801099 0.750000
vt 0.624671 0.490073
vt 0.801229 0.747585
vt 0.636578 0.500000
vt 0.625000 0.488422
vt 0.731099 0.584253
vt 0.617703 0.500000
vt 0.828761 0.717091
vt 0.803630 0.673971
vt 0.711059 0.568375
vt 0.852633 0.631333
vt 0.875000 0.671519
vt 0.625000 0.078481
vt 0.778715 0.558613
vt 0.871370 0.683139
vt 0.616319 0.049832
vt 0.558378 1.000000
vt 0.558378 0.000000
vt 0.580951 0.509352
vt 0.607493 0.225731
vt 0.579098 0.898061
vt 0.600481 0.617181
vt 0.566636 0.056848
vt 0.573772 0.900617
vt 0.591475 0.456083
vt 0.557643 0.009996
vt 0.581934 0.500000
vt 0.781510 0.553657
vt 0.624203 0.067672
vt 0.615703 0.054430
vt 0.620697 0.119823
vt 0.620388 0.119555
vt 0.620802 0.102972
vt 0.625000 0.113843
vt 0.875000 0.636157
vt 0.624167 0.087270
vt 0.707936 0.603384
vt 0.612862 0.881899
vt 0.624802 0.374331
vt 0.625000 0.476241
vt 0.599988 0.784794
vt 0.648759 0.500000
vt 0.749259 0.675576
vt 0.621852 0.949707
vt 0.621223 0.467748
vt 0.709203 0.605596
vt 0.613138 0.883977
vt 0.750442 0.502295
vt 0.867816 0.632464
vt 0.875000 0.656092
vt 0.625000 0.093908
vt 0.854639 0.712440
vt 0.693060 0.530051
vt 0.799287 0.686550
vt 0.716064 0.691578
vt 0.738608 0.587744
vt 0.616565 0.494504
vt 0.607896 0.250000
vt 0.601122 0.593062
vt 0.609596 0.381224
vt 0.625000 0.610828
s 0
usemtl Material
f 17/29/1 8/8/1 31/64/1
f 10/12/2 19/33/2 20/35/2
f 24/45/2 26/50/2 16/26/2
f 14/22/3 9/11/3 36/79/3
f 23/44/3 13/20/3 37/82/3
f 6/6/4 10/14/4 9/10/4
f 21/37/5 7/7/5 5/5/5
f 12/17/6 5/5/6 9/11/6
f 38/84/7 13/19/7 39/87/7
f 3/3/8 14/23/8 41/94/8
f 27/53/8 22/39/8 43/100/8
f 11/16/9 28/56/9 44/102/9
f 3/3/10 15/25/10 14/23/10
f 22/40/11 17/30/11 29/59/11
f 34/73/12 20/36/12 47/111/12
f 21/38/13 17/30/13 4/4/13
f 19/34/14 4/4/14 48/113/14
f 28/57/15 25/49/15 30/63/15
f 23/42/16 37/81/16 32/67/16
f 25/49/17 29/60/17 26/52/17
f 29/60/18 2/2/18 27/55/18
f 31/65/19 45/107/19 30/61/19
f 42/96/19 43/99/19 46/108/19
f 41/95/19 48/114/19 40/90/19
f 31/66/20 37/83/20 39/89/20
f 47/112/21 1/1/21 36/80/21
f 35/78/22 1/1/22 41/93/22
f 25/48/1 24/46/1 16/27/1
f 17/29/1 18/31/1 5/5/1
f 25/48/1 16/27/1 17/29/1
f 31/64/1 30/62/1 25/48/1
f 23/43/1 32/68/1 31/64/1
f 17/29/1 5/5/1 8/8/1
f 31/64/1 25/48/1 17/29/1
f 8/8/1 23/43/1 31/64/1
f 34/74/2 33/70/2 10/12/2
f 10/12/2 7/7/2 19/33/2
f 20/35/2 34/74/2 10/12/2
f 14/22/3 15/24/3 9/11/3
f 9/11/3 10/13/3 33/71/3
f 36/79/3 35/76/3 14/22/3
f 9/11/3 33/71/3 36/79/3
f 8/9/3 11/15/3 13/20/3
f 13/20/3 38/85/3 37/82/3
f 23/44/3 8/9/3 13/20/3
f 6/6/4 7/7/4 10/14/4
f 21/37/5 19/33/5 7/7/5
f 7/7/5 6/6/5 5/5/5
f 5/5/5 18/31/5 21/37/5
f 12/17/6 11/15/6 8/9/6
f 5/5/6 6/6/6 9/11/6
f 9/11/6 15/24/6 12/17/6
f 12/17/6 8/9/6 5/5/6
f 41/94/8 40/91/8 22/39/8
f 14/23/8 35/77/8 41/94/8
f 41/94/8 22/39/8 3/3/8
f 43/100/8 42/97/8 27/53/8
f 27/53/8 3/3/8 22/39/8
f 39/88/9 13/21/9 11/16/9
f 11/16/23 12/18/23 3/3/23
f 3/3/24 27/54/24 28/56/24
f 28/56/23 45/105/23 44/102/23
f 44/102/9 39/88/9 11/16/9
f 11/16/9 3/3/9 28/56/9
f 3/3/10 12/18/10 15/25/10
f 46/109/11 43/101/11 22/40/11
f 22/40/11 4/4/11 17/30/11
f 17/30/11 16/28/11 26/51/11
f 29/59/11 46/109/11 22/40/11
f 17/30/11 26/51/11 29/59/11
f 21/38/13 18/32/13 17/30/13
f 47/111/14 20/36/14 19/34/14
f 19/34/14 21/38/14 4/4/14
f 4/4/25 22/41/25 40/92/25
f 48/113/14 47/111/14 19/34/14
f 4/4/14 40/92/14 48/113/14
f 30/63/15 45/106/15 28/57/15
f 28/57/15 2/2/15 25/49/15
f 26/52/17 24/47/17 25/49/17
f 25/49/17 2/2/17 29/60/17
f 42/98/18 46/110/18 29/60/18
f 2/2/18 28/58/18 27/55/18
f 27/55/18 42/98/18 29/60/18
f 31/65/26 44/103/26 45/107/26
f 41/95/19 1/1/19 48/114/19
f 39/89/20 44/104/20 31/66/20
f 31/66/20 32/69/20 37/83/20
f 37/83/20 38/86/20 39/89/20
f 36/80/21 33/72/21 34/75/21
f 47/112/21 48/114/21 1/1/21
f 36/80/21 34/75/21 47/112/21
f 35/78/22 36/80/22 1/1/22
o Cube.001
v 0.057306 -0.017155 -0.594416
v -0.018764 0.897064 -0.148727
v 0.080365 0.093773 -0.741006
v 0.139600 0.786999 0.027055
v 0.238729 -0.016291 -0.565224
v 0.162659 0.897928 -0.119535
v 0.059849 0.698148 -0.130569
v 0.261788 0.094638 -0.711814
v -0.020708 0.615034 -0.128292
v -0.038929 0.762689 -0.019424
v -0.019551 0.774841 -0.140214
v -0.017031 0.615963 -0.151171
v 0.046139 0.692981 -0.058793
v -0.034488 0.785113 -0.001757
v -0.016920 0.774111 -0.007319
v -0.034490 0.759051 -0.021478
v -0.033421 0.786175 -0.000785
v -0.033421 0.786175 -0.000785
v -0.038929 0.762689 -0.019424
v -0.016920 0.774111 -0.007319
v -0.034488 0.785113 -0.001756
v -0.034490 0.759051 -0.021478
v -0.034488 0.785113 -0.001757
v -0.016920 0.774111 -0.007319
v -0.034490 0.759051 -0.021479
v -0.033421 0.786175 -0.000785
v -0.033421 0.786175 -0.000785
v -0.041822 0.786135 -0.002137
v -0.038929 0.762689 -0.019424
v -0.038929 0.762689 -0.019424
v -0.016920 0.774111 -0.007319
v -0.016920 0.774111 -0.007319
v -0.029434 0.781947 -0.003357
v -0.016920 0.774111 -0.007319
v -0.016920 0.774111 -0.007319
v -0.036191 0.760446 -0.020691
v -0.034490 0.759051 -0.021478
v -0.016920 0.774111 -0.007319
v -0.034488 0.785113 -0.001757
vn -0.0988 0.8009 0.5905
vn 0.1245 0.5987 -0.7912
vn 0.9873 0.0047 0.1589
vn 0.0988 -0.8009 -0.5905
vn -0.9873 -0.0047 -0.1589
vn -0.6720 -0.7183 -0.1801
vn -0.1872 -0.0705 0.9798
vn -0.7165 0.6921 -0.0870
vn -0.3887 0.8100 -0.4391
vn 0.6817 0.6857 0.2550
vn -0.6828 0.7257 0.0842
vn -0.5189 -0.5775 -0.6303
vn -0.4198 -0.2757 -0.8647
vn -0.5287 0.8114 -0.2492
vn 0.6349 0.7464 0.1995
vn -0.1245 -0.5987 0.7912
vn -0.7095 0.5355 0.4582
vn -0.9875 -0.0059 -0.1573
vn 0.9933 0.1151 0.0102
vn -0.1218 -0.6482 0.7517
vn -0.5537 -0.5730 -0.6042
vn -0.3780 -0.1948 -0.9051
vn -0.4542 -0.3785 -0.8065
vn -0.3826 0.7866 -0.4847
vn 0.5477 0.6235 0.5580
vn 0.6878 0.6879 0.2319
vn -0.1198 -0.6349 0.7633
vn -0.1429 -0.4112 0.9003
vn -0.1538 -0.2227 0.9627
vn -0.0915 -0.8006 0.5921
vn -0.7045 0.6921 0.1574
vn -0.5640 -0.4682 -0.6802
vn -0.3690 0.8141 -0.4484
vn 0.7280 0.4867 0.4828
vn 0.6908 0.6806 0.2443
vn -0.7106 0.6685 0.2194
vt 0.375000 0.500000
vt 0.625000 0.750000
vt 0.375000 0.750000
vt 0.875000 0.500000
vt 0.625000 0.250000
vt 0.125000 0.500000
vt 0.375000 0.250000
vt 0.875000 0.750000
vt 0.625000 1.000000
vt 0.625000 0.000000
vt 0.625000 1.000000
vt 0.875000 0.750000
vt 0.625000 0.000000
vt 0.375000 0.000000
vt 0.375000 1.000000
vt 0.125000 0.750000
vt 0.571750 0.500000
vt 0.596726 0.031265
vt 0.731099 0.584253
vt 0.617703 0.500000
vt 0.625000 0.849243
vt 0.601871 0.642033
vt 0.724243 0.750000
vt 0.596482 1.000000
vt 0.568477 0.525794
vt 0.596482 0.000000
vt 0.625000 0.098849
vt 0.595895 0.394693
vt 0.875000 0.651151
vt 0.625000 0.926099
vt 0.801099 0.750000
vt 0.624671 0.490073
vt 0.621852 0.949707
vt 0.621223 0.467748
vt 0.749259 0.675576
vt 0.738608 0.587744
vt 0.616565 0.494504
vt 0.716064 0.691578
vt 0.636577 0.500000
vt 0.801229 0.747586
vt 0.625000 0.488423
vt 0.801229 0.747586
vt 0.636577 0.500000
vt 0.625000 0.488423
vt 0.617703 0.500000
vt 0.731099 0.584252
vt 0.621223 0.467748
vt 0.621852 0.949707
vt 0.749259 0.675576
vt 0.624671 0.490073
vt 0.625000 0.926098
vt 0.801099 0.750000
vt 0.716064 0.691578
vt 0.616565 0.494505
vt 0.738609 0.587744
vt 0.625000 0.926099
vt 0.801099 0.750000
vt 0.624671 0.490073
vt 0.621852 0.949707
vt 0.621223 0.467748
vt 0.749259 0.675576
vt 0.738608 0.587744
vt 0.616565 0.494504
vt 0.716064 0.691578
vt 0.636577 0.500000
vt 0.801229 0.747586
vt 0.625000 0.488423
vt 0.636577 0.500000
vt 0.625000 0.488423
vt 0.801229 0.747586
vt 0.625000 0.500000
vt 0.731099 0.584253
vt 0.617703 0.500000
vt 0.617703 0.500000
vt 0.731099 0.584252
vt 0.621852 0.949707
vt 0.621223 0.467748
vt 0.749259 0.675575
vt 0.621223 0.467748
vt 0.749259 0.675575
vt 0.621852 0.949707
vt 0.623679 0.483650
vt 0.624094 0.932891
vt 0.621852 0.949707
vt 0.749259 0.675576
vt 0.621852 0.949707
vt 0.749259 0.675575
vt 0.617001 0.496611
vt 0.735730 0.586406
vt 0.616565 0.494504
vt 0.716064 0.691578
vt 0.738608 0.587744
vt 0.621223 0.467748
vt 0.621852 0.949707
vt 0.749259 0.675576
vt 0.625000 0.926099
vt 0.801099 0.750000
vt 0.624671 0.490073
s 0
usemtl Material.001
f 65/153/27 50/116/27 74/179/27
f 50/116/28 56/129/28 51/117/28
f 54/124/29 53/121/29 56/128/29
f 49/115/30 56/130/30 53/120/30
f 50/116/31 59/136/31 77/187/31
f 80/193/27 68/161/27 79/191/27
f 59/137/32 61/143/32 58/133/32
f 60/138/33 55/125/33 59/135/33
f 55/127/34 57/132/34 61/141/34
f 68/162/30 80/195/30 82/198/30
f 65/154/35 69/166/35 66/156/35
f 67/160/36 64/150/36 84/203/36
f 84/202/28 86/207/28 85/204/28
f 68/163/37 64/152/37 70/167/37
f 79/190/38 81/197/38 82/198/38
f 71/170/39 86/208/39 87/210/39
f 75/184/40 71/171/40 87/211/40
f 77/186/41 84/203/41 85/206/41
f 71/172/42 76/185/42 77/187/42
f 86/209/43 73/178/43 85/205/43
f 79/192/27 83/201/27 80/194/27
f 65/153/27 66/157/27 52/118/27
f 52/118/27 54/122/27 50/116/27
f 50/116/27 76/185/27 74/179/27
f 74/179/27 75/182/27 65/153/27
f 65/153/27 52/118/27 50/116/27
f 50/116/28 54/123/28 56/129/28
f 54/124/29 52/119/29 53/121/29
f 49/115/30 51/117/30 56/130/30
f 77/187/31 76/185/31 50/116/31
f 50/116/31 51/117/31 49/115/31
f 49/115/31 57/131/31 60/139/31
f 59/136/44 58/134/44 67/159/44
f 49/115/31 60/139/31 59/136/31
f 67/159/27 78/188/27 77/187/27
f 50/116/31 49/115/31 59/136/31
f 59/136/45 67/159/45 77/187/45
f 70/168/42 67/159/42 58/134/42
f 61/142/42 57/131/42 49/115/42
f 70/168/46 58/134/46 61/142/46
f 68/161/42 70/168/42 61/142/42
f 61/142/42 49/115/42 53/121/42
f 52/119/42 66/158/42 69/164/42
f 69/164/27 81/196/27 79/191/27
f 52/119/42 69/164/42 79/191/42
f 61/142/42 53/121/42 52/119/42
f 68/161/42 61/142/42 52/119/42
f 68/161/42 52/119/42 79/191/42
f 59/137/32 55/126/32 61/143/32
f 55/127/34 60/140/34 57/132/34
f 69/165/47 62/144/47 63/147/47
f 82/198/48 81/197/48 69/165/48
f 82/198/49 69/165/49 63/147/49
f 82/198/30 63/147/30 68/162/30
f 80/195/27 83/200/27 82/198/27
f 65/154/50 62/145/50 69/166/50
f 84/203/51 78/189/51 67/160/51
f 67/160/52 70/169/52 64/150/52
f 84/202/42 64/151/42 63/148/42
f 62/146/53 65/155/53 75/183/53
f 62/146/54 75/183/54 87/212/54
f 62/146/42 87/212/42 86/207/42
f 63/148/55 62/146/55 86/207/55
f 84/202/56 63/148/56 86/207/56
f 68/163/57 63/149/57 64/152/57
f 71/170/58 72/173/58 86/208/58
f 75/184/59 74/180/59 71/171/59
f 85/206/60 73/176/60 77/186/60
f 77/186/61 78/189/61 84/203/61
f 77/187/42 73/177/42 72/174/42
f 71/172/42 74/181/42 76/185/42
f 77/187/42 72/174/42 71/172/42
f 86/209/62 72/175/62 73/178/62
f 79/192/27 82/199/27 83/201/27
o Cube.002
v -0.087931 0.698292 0.113020
v 0.591811 -0.036567 0.051138
v 0.597377 -0.015921 -0.132895
v 0.047073 0.821661 0.130943
v 0.025174 0.685079 0.050960
v 0.726815 0.086803 0.069061
v 0.052639 0.842307 -0.053090
v 0.732381 0.107448 -0.114972
v 0.044819 0.835161 -0.054129
v -0.002674 0.786321 0.004162
v 0.156029 0.653870 -0.071103
v 0.154245 0.732462 -0.062340
v 0.058101 0.836401 -0.053588
v 0.093720 0.786781 0.019673
v 0.146138 0.734021 -0.012006
v -0.085464 0.707445 0.031436
v -0.040260 0.748283 0.043011
v -0.034490 0.759051 -0.021478
v -0.006100 0.636488 -0.077956
v 0.033339 0.678056 -0.072100
v -0.020935 0.635789 0.038603
v 0.046139 0.692981 -0.058793
vn -0.6777 0.7327 0.0617
vn 0.0300 0.1114 -0.9933
vn 0.7347 0.6714 0.0975
vn 0.6777 -0.7327 -0.0617
vn -0.7347 -0.6714 -0.0975
vn -0.0300 -0.1114 0.9933
vn 0.0988 -0.8009 -0.5905
vn -0.9873 -0.0047 -0.1589
vn 0.1245 0.5987 -0.7912
vn -0.6720 -0.7183 -0.1801
vn -0.7165 0.6921 -0.0870
vn 0.1872 0.0705 -0.9798
vn -0.6778 0.7327 0.0617
vt 0.625000 0.500000
vt 0.375000 0.500000
vt 0.375000 0.750000
vt 0.875000 0.500000
vt 0.625000 0.250000
vt 0.875000 0.500000
vt 0.625000 0.250000
vt 0.125000 0.500000
vt 0.375000 0.250000
vt 0.625000 1.000000
vt 0.875000 0.750000
vt 0.625000 0.000000
vt 0.375000 1.000000
vt 0.375000 0.000000
vt 0.125000 0.750000
vt 0.625000 0.985519
vt 0.860519 0.750000
vt 0.730452 0.609668
vt 0.678946 0.500000
vt 0.776175 0.662601
vt 0.625000 0.446054
vt 0.572840 0.928836
vt 0.583567 0.250000
vt 0.600592 0.196159
vt 0.587631 1.000000
vt 0.587631 0.000000
vt 0.622991 1.000000
vt 0.622991 0.000000
vt 0.748418 0.612324
vt 0.609038 0.104212
vt 0.811777 0.500000
vt 0.625000 0.313223
vt 0.590059 0.067559
vt 0.608512 0.250000
vt 0.609596 0.381224
vt 0.625000 0.610828
vt 0.709019 0.603287
vt 0.750759 0.500000
vt 0.625000 0.374241
vt 0.716064 0.691578
vt 0.616565 0.494504
vt 0.738608 0.587744
vt 0.596951 0.750000
vt 0.605274 0.092083
vt 0.597970 0.828163
vt 0.591272 0.414857
vt 0.619586 0.085908
vt 0.601122 0.593062
vt 0.607896 0.250000
vt 0.875000 0.651151
vt 0.595895 0.394693
vt 0.625000 0.098849
s 0
usemtl Material.002
f 88/213/63 97/232/63 104/249/63
f 96/228/64 94/222/64 100/239/64
f 98/234/64 95/225/64 106/255/64
f 91/217/65 95/226/65 101/242/65
f 89/214/66 95/227/66 93/220/66
f 90/215/67 88/213/67 108/260/67
f 91/217/68 89/214/68 93/221/68
f 96/230/69 101/243/69 97/231/69
f 98/235/70 102/246/70 99/236/70
f 102/246/71 107/258/71 109/263/71
f 92/218/72 105/254/72 109/262/72
f 109/264/73 106/256/73 108/261/73
f 104/251/74 108/261/74 103/247/74
f 104/249/63 103/248/63 88/213/63
f 88/213/63 91/216/63 94/223/63
f 94/223/63 96/229/63 97/232/63
f 97/232/63 105/252/63 104/249/63
f 88/213/75 94/223/75 97/232/75
f 106/255/64 107/257/64 98/234/64
f 98/234/64 99/237/64 95/225/64
f 95/225/64 90/215/64 106/255/64
f 101/242/65 100/240/65 94/224/65
f 91/217/65 93/221/65 95/226/65
f 95/226/65 99/238/65 102/245/65
f 101/242/65 94/224/65 91/217/65
f 95/226/65 102/245/65 101/242/65
f 89/214/66 90/215/66 95/227/66
f 108/260/67 106/255/67 90/215/67
f 90/215/67 89/214/67 88/213/67
f 88/213/67 103/248/67 108/260/67
f 91/217/68 88/213/68 89/214/68
f 96/230/69 100/241/69 101/243/69
f 109/263/71 105/253/71 97/233/71
f 97/233/71 101/244/71 102/246/71
f 102/246/71 98/235/71 107/258/71
f 109/263/71 97/233/71 102/246/71
f 92/218/72 104/250/72 105/254/72
f 108/261/73 92/219/73 109/264/73
f 109/264/73 107/259/73 106/256/73
f 104/251/74 92/219/74 108/261/74
o Cube.003
v -0.106494 0.812259 0.034965
v -0.780452 0.091802 -0.145640
v -0.071820 0.825328 -0.146563
v -0.745777 0.104871 -0.327168
v 0.025174 0.685079 0.050960
v -0.648784 -0.035378 -0.129645
v 0.059849 0.698148 -0.130569
v -0.614109 -0.022309 -0.311174
vn 0.6720 0.7183 0.1801
vn 0.1872 0.0705 -0.9798
vn 0.7165 -0.6921 0.0870
vn -0.6720 -0.7183 -0.1801
vn -0.7165 0.6921 -0.0870
vn -0.1872 -0.0705 0.9798
vt 0.625000 0.500000
vt 0.375000 0.500000
vt 0.625000 0.750000
vt 0.375000 0.750000
vt 0.875000 0.500000
vt 0.625000 0.250000
vt 0.125000 0.500000
vt 0.375000 0.250000
vt 0.875000 0.750000
vt 0.625000 1.000000
vt 0.625000 0.000000
vt 0.375000 0.000000
vt 0.375000 1.000000
vt 0.125000 0.750000
s 0
usemtl Material.003
f 114/269/76 112/267/76 110/265/76
f 112/267/77 117/277/77 113/268/77
f 116/275/78 115/272/78 117/276/78
f 111/266/79 117/278/79 115/271/79
f 110/265/80 113/268/80 111/266/80
f 114/270/81 111/266/81 115/272/81
f 114/269/76 116/273/76 112/267/76
f 112/267/77 116/274/77 117/277/77
f 116/275/78 114/270/78 115/272/78
f 111/266/79 113/268/79 117/278/79
f 110/265/80 112/267/80 113/268/80
f 114/270/81 110/265/81 111/266/81
o Cube.004
v -0.027853 0.902185 0.191453
v 0.340057 0.098673 0.665695
v -0.130973 0.791711 0.084275
v 0.236937 -0.011802 0.558517
v 0.109123 0.892818 0.069318
v 0.047073 0.821661 0.130943
v 0.477033 0.089306 0.543560
v 0.373913 -0.021169 0.436382
v 0.050548 0.834552 0.016039
v 0.052961 0.832651 0.010946
v -0.075101 0.710017 0.114724
v 0.114497 0.545395 0.101990
v 0.144149 0.716714 0.122106
v -0.033420 0.786175 -0.000785
v -0.034488 0.785113 -0.001757
v 0.010340 0.799704 -0.011810
v -0.016920 0.774111 -0.007319
v -0.002674 0.786321 0.004162
vn -0.3668 0.8012 -0.4729
vn -0.5566 -0.5963 -0.5785
vn 0.7454 -0.0510 -0.6646
vn 0.3668 -0.8012 0.4729
vn -0.7454 0.0510 0.6646
vn 0.5566 0.5963 0.5785
vn 0.6778 -0.7327 -0.0617
vn -0.7347 -0.6714 -0.0975
vn 0.0300 0.1114 -0.9933
vn 0.0988 -0.8009 -0.5905
vn 0.1245 0.5987 -0.7912
vn 0.6777 -0.7327 -0.0617
vt 0.625000 0.500000
vt 0.375000 0.500000
vt 0.625000 0.750000
vt 0.375000 0.750000
vt 0.875000 0.500000
vt 0.625000 0.250000
vt 0.875000 0.500000
vt 0.625000 0.250000
vt 0.375000 0.250000
vt 0.125000 0.500000
vt 0.125000 0.750000
vt 0.375000 1.000000
vt 0.375000 0.000000
vt 0.867816 0.632464
vt 0.875000 0.656092
vt 0.625000 0.093908
vt 0.624167 0.087270
vt 0.875000 0.636157
vt 0.625000 0.113843
vt 0.599988 0.784794
vt 0.648759 0.500000
vt 0.625000 0.476241
vt 0.562708 0.438787
vt 0.551277 1.000000
vt 0.551277 0.000000
vt 0.580407 0.175818
vt 0.589297 0.250000
vt 0.636578 0.500000
vt 0.801229 0.747585
vt 0.625000 0.488422
vt 0.624671 0.490072
vt 0.801099 0.750000
vt 0.625000 0.926099
vt 0.693060 0.530051
vt 0.854639 0.712440
vt 0.799287 0.686550
vt 0.621852 0.949707
vt 0.749259 0.675576
vt 0.621223 0.467748
vt 0.678946 0.500000
vt 0.776175 0.662601
vt 0.625000 0.446054
s 0
usemtl Material.004
f 131/307/82 122/283/82 126/292/82
f 120/281/83 134/315/83 128/298/83
f 122/284/84 125/291/84 130/304/84
f 124/288/85 121/282/85 125/289/85
f 118/279/86 121/282/86 119/280/86
f 122/284/87 119/280/87 124/287/87
f 123/285/88 134/316/88 135/319/88
f 130/305/89 126/294/89 127/295/89
f 128/300/90 130/305/90 129/301/90
f 135/318/91 131/306/91 133/312/91
f 131/308/92 134/317/92 132/309/92
f 131/307/82 132/310/82 120/281/82
f 120/281/82 118/279/82 122/283/82
f 122/283/82 127/296/82 126/292/82
f 126/292/82 133/313/82 131/307/82
f 131/307/82 120/281/82 122/283/82
f 128/298/83 129/302/83 125/290/83
f 125/290/83 121/282/83 120/281/83
f 120/281/83 132/311/83 134/315/83
f 128/298/83 125/290/83 120/281/83
f 130/304/84 127/297/84 122/284/84
f 122/284/84 124/287/84 125/291/84
f 125/291/84 129/303/84 130/304/84
f 124/288/85 119/280/85 121/282/85
f 118/279/86 120/281/86 121/282/86
f 122/284/87 118/279/87 119/280/87
f 133/314/93 126/293/93 123/285/93
f 123/285/93 128/299/93 134/316/93
f 135/319/93 133/314/93 123/285/93
f 130/305/89 123/286/89 126/294/89
f 128/300/90 123/286/90 130/305/90
f 131/308/92 135/320/92 134/317/92
