# Blender 3.5.0
# www.blender.org
mtllib LeavesS.mtl
o 立方体.013
v -0.018814 0.331683 0.018814
v -0.018814 0.417561 0.018814
v -0.018814 0.331683 -0.018814
v 0.018814 0.331683 0.018814
v 0.018814 0.331683 -0.018814
v 0.018814 0.417561 0.018814
v 0.018814 0.417561 -0.018814
v -0.018814 0.417561 -0.018814
vn -0.0000 -0.0000 1.0000
vn -1.0000 -0.0000 -0.0000
vn -0.0000 -1.0000 -0.0000
vn 1.0000 -0.0000 -0.0000
vn -0.0000 1.0000 -0.0000
vn -0.0000 -0.0000 -1.0000
vt 0.481647 0.277792
vt 0.451771 0.475646
vt 0.480136 0.409876
vt 0.451771 0.484283
vt 0.481647 0.286430
vt 0.475421 0.235128
vt 0.447987 0.475646
vt 0.476352 0.409876
vt 0.485255 0.240117
vt 0.485432 0.277792
vt 0.480136 0.406091
vt 0.432814 0.476526
vt 0.476352 0.406091
vt 0.436599 0.476526
vt 0.481470 0.240117
vt 0.485432 0.286430
vt 0.432814 0.485164
vt 0.475421 0.238913
vt 0.471636 0.238913
vt 0.481470 0.248754
vt 0.436599 0.485164
vt 0.447987 0.484283
vt 0.471636 0.235128
vt 0.485255 0.248754
s 0
usemtl 
f 6/16/1 1/1/1 4/10/1
f 8/22/2 1/2/2 2/4/2
f 4/11/3 3/8/3 5/13/3
f 7/21/4 4/12/4 5/14/4
f 8/23/5 6/18/5 7/19/5
f 5/15/6 8/24/6 7/20/6
f 6/16/1 2/5/1 1/1/1
f 8/22/2 3/7/2 1/2/2
f 4/11/3 1/3/3 3/8/3
f 7/21/4 6/17/4 4/12/4
f 8/23/5 2/6/5 6/18/5
f 5/15/6 3/9/6 8/24/6
