# Blender 3.5.0
# www.blender.org
mtllib LeavesM.mtl
o 立方体.012
v -0.056443 0.245806 0.056443
v -0.056443 0.331683 0.056443
v 0.056443 0.245806 0.056443
v -0.056443 0.245806 -0.056443
v -0.056443 0.331683 -0.056443
v 0.056443 0.245806 -0.056443
v 0.056443 0.331683 -0.056443
v 0.056443 0.331683 0.056443
vn -0.0000 -0.0000 1.0000
vn -1.0000 -0.0000 -0.0000
vn -0.0000 -1.0000 -0.0000
vn -0.0000 -0.0000 -1.0000
vn 1.0000 -0.0000 -0.0000
vn -0.0000 1.0000 -0.0000
vt 0.458504 0.399281
vt 0.459393 0.289090
vt 0.461220 0.263714
vt 0.468031 0.289090
vt 0.449866 0.399281
vt 0.449866 0.203386
vt 0.458504 0.410635
vt 0.461220 0.252360
vt 0.459393 0.361661
vt 0.458504 0.324931
vt 0.459393 0.300444
vt 0.449866 0.263714
vt 0.468031 0.300444
vt 0.449866 0.324931
vt 0.449866 0.214741
vt 0.449866 0.252360
vt 0.458504 0.313577
vt 0.459393 0.350307
vt 0.461220 0.214741
vt 0.449866 0.313577
vt 0.468031 0.350307
vt 0.468031 0.361661
vt 0.449866 0.410635
vt 0.461220 0.203386
s 0
usemtl 
f 8/23/1 1/1/1 3/7/1
f 5/13/2 1/2/2 2/4/2
f 1/3/3 6/16/3 3/8/3
f 5/14/4 6/17/4 4/10/4
f 3/9/5 7/21/5 8/22/5
f 5/15/6 8/24/6 7/19/6
f 8/23/1 2/5/1 1/1/1
f 5/13/2 4/11/2 1/2/2
f 1/3/3 4/12/3 6/16/3
f 5/14/4 7/20/4 6/17/4
f 3/9/5 6/18/5 7/21/5
f 5/15/6 2/6/6 8/24/6
