# Blender 3.5.0
# www.blender.org
mtllib LeavesL.mtl
o 立方体.011
v -0.094071 0.159928 0.094071
v -0.094071 0.245806 0.094071
v -0.094071 0.159928 0.056443
v -0.056443 0.159928 0.094071
v -0.056443 0.159928 0.131700
v -0.056443 0.245806 0.094071
v -0.056443 0.245806 0.131700
v 0.056443 0.245806 0.131700
v 0.056443 0.159928 0.131700
v 0.056443 0.245806 0.094071
v 0.056443 0.159928 0.094071
v 0.094071 0.245806 0.094071
v 0.094071 0.159928 0.094071
v 0.094071 0.245806 0.056443
v 0.094071 0.159928 0.056443
v 0.131700 0.245806 0.056443
v 0.131700 0.159928 0.056443
v 0.131700 0.245806 -0.056443
v 0.131700 0.159928 -0.056443
v 0.094071 0.245806 -0.056443
v 0.094071 0.159928 -0.056443
v 0.094071 0.245806 -0.094071
v 0.094071 0.159928 -0.094071
v 0.056443 0.245806 -0.094071
v 0.056443 0.159928 -0.094071
v 0.056443 0.245806 -0.131700
v 0.056443 0.159928 -0.131700
v -0.056443 0.245806 -0.131700
v -0.056443 0.159928 -0.131700
v -0.056443 0.245806 -0.094071
v -0.056443 0.159928 -0.094071
v -0.094071 0.245806 -0.094071
v -0.094071 0.245806 -0.056443
v -0.094071 0.159928 -0.094071
v -0.094071 0.159928 -0.056443
v -0.131700 0.159928 -0.056443
v -0.131700 0.159928 0.056443
v -0.131700 0.245806 -0.056443
v -0.131700 0.245806 0.056443
v -0.094071 0.245806 0.056443
vn -0.0000 -0.0000 1.0000
vn -1.0000 -0.0000 -0.0000
vn -0.0000 -1.0000 -0.0000
vn -0.0000 1.0000 -0.0000
vn 1.0000 -0.0000 -0.0000
vn -0.0000 -0.0000 -1.0000
vt 0.467220 0.475961
vt 0.489307 0.289090
vt 0.410113 0.261936
vt 0.489307 0.297728
vt 0.467220 0.484599
vt 0.410113 0.226095
vt 0.478259 0.450844
vt 0.485523 0.289090
vt 0.413898 0.261936
vt 0.471004 0.475961
vt 0.410113 0.265720
vt 0.480581 0.248754
vt 0.406328 0.265720
vt 0.476796 0.248754
vt 0.458504 0.362551
vt 0.471004 0.484599
vt 0.480581 0.240117
vt 0.410113 0.222310
vt 0.476796 0.240117
vt 0.406328 0.222310
vt 0.449866 0.362551
vt 0.406328 0.210956
vt 0.449866 0.373905
vt 0.476175 0.370048
vt 0.458504 0.373905
vt 0.406328 0.277075
vt 0.476175 0.361410
vt 0.479960 0.370048
vt 0.410113 0.210956
vt 0.485523 0.335836
vt 0.410113 0.277075
vt 0.479960 0.361410
vt 0.485523 0.327198
vt 0.410113 0.207171
vt 0.489307 0.335836
vt 0.479149 0.488062
vt 0.489307 0.327198
vt 0.410113 0.280859
vt 0.479149 0.479424
vt 0.482933 0.488062
vt 0.413898 0.207171
vt 0.478831 0.431083
vt 0.413898 0.280859
vt 0.482933 0.479424
vt 0.478831 0.422445
vt 0.413898 0.203386
vt 0.482616 0.431083
vt 0.415855 0.454756
vt 0.482616 0.422445
vt 0.424493 0.454756
vt 0.413898 0.284644
vt 0.418258 0.483068
vt 0.425252 0.203386
vt 0.415855 0.466110
vt 0.425252 0.284644
vt 0.424493 0.466110
vt 0.418258 0.474431
vt 0.425252 0.207171
vt 0.422042 0.483068
vt 0.485523 0.373943
vt 0.425252 0.280859
vt 0.422042 0.474431
vt 0.485523 0.365306
vt 0.489307 0.373943
vt 0.485699 0.405202
vt 0.429037 0.207171
vt 0.429037 0.280859
vt 0.489307 0.365306
vt 0.485699 0.396564
vt 0.429037 0.210956
vt 0.489484 0.405202
vt 0.460404 0.481252
vt 0.429037 0.277075
vt 0.489484 0.396564
vt 0.460404 0.472614
vt 0.464189 0.481252
vt 0.449866 0.301334
vt 0.432822 0.210956
vt 0.432822 0.277075
vt 0.464189 0.472614
vt 0.458504 0.301334
vt 0.432822 0.222310
vt 0.449866 0.312688
vt 0.482933 0.469898
vt 0.432822 0.265720
vt 0.458504 0.312688
vt 0.482933 0.478535
vt 0.480849 0.326309
vt 0.429037 0.222310
vt 0.479149 0.469898
vt 0.479149 0.478535
vt 0.429037 0.265720
vt 0.480849 0.317671
vt 0.429037 0.226095
vt 0.484634 0.326309
vt 0.485523 0.345362
vt 0.489307 0.345362
vt 0.476175 0.338867
vt 0.425252 0.226095
vt 0.429037 0.261936
vt 0.484634 0.317671
vt 0.485523 0.336725
vt 0.425252 0.261936
vt 0.489307 0.336725
vt 0.476175 0.330229
vt 0.425252 0.258151
vt 0.479960 0.330229
vt 0.458504 0.387037
vt 0.413898 0.258151
vt 0.458504 0.398392
vt 0.474475 0.450844
vt 0.449866 0.387037
vt 0.425252 0.229879
vt 0.479960 0.338867
vt 0.413898 0.229879
vt 0.449866 0.398392
vt 0.474475 0.459481
vt 0.485523 0.297728
vt 0.413898 0.226095
vt 0.478259 0.459481
s 0
usemtl 
f 6/16/1 1/1/1 4/10/1
f 40/118/2 1/2/2 2/4/2
f 21/61/3 11/31/3 4/11/3
f 6/17/2 5/14/2 7/19/2
f 6/18/4 10/29/4 20/58/4
f 8/23/1 5/15/1 9/25/1
f 8/24/5 11/32/5 10/28/5
f 12/35/1 11/33/1 13/37/1
f 12/36/5 15/44/5 14/40/5
f 16/47/1 15/45/1 17/49/1
f 19/56/5 16/48/5 17/50/5
f 19/57/6 20/59/6 18/52/6
f 20/60/5 23/68/5 22/64/5
f 23/69/6 24/71/6 22/65/6
f 24/72/5 27/80/5 26/76/5
f 27/81/6 28/83/6 26/77/6
f 30/90/2 29/87/2 31/91/2
f 31/93/6 32/95/6 30/88/6
f 32/96/2 35/104/2 33/97/2
f 35/105/6 38/114/6 33/98/6
f 36/108/2 39/116/2 38/112/2
f 40/120/1 37/111/1 3/7/1
f 6/16/1 2/5/1 1/1/1
f 40/118/2 3/8/2 1/2/2
f 37/109/3 36/106/3 35/103/3
f 35/103/3 34/100/3 31/92/3
f 31/92/3 29/85/3 27/79/3
f 25/73/3 23/67/3 21/61/3
f 31/92/3 27/79/3 25/73/3
f 37/109/3 35/103/3 31/92/3
f 4/11/3 1/3/3 3/9/3
f 3/9/3 37/109/3 31/92/3
f 31/92/3 25/73/3 21/61/3
f 21/61/3 19/55/3 17/51/3
f 15/43/3 13/38/3 11/31/3
f 21/61/3 17/51/3 15/43/3
f 3/9/3 31/92/3 21/61/3
f 9/26/3 5/13/3 4/11/3
f 4/11/3 3/9/3 21/61/3
f 21/61/3 15/43/3 11/31/3
f 11/31/3 9/26/3 4/11/3
f 6/17/2 4/12/2 5/14/2
f 33/99/4 38/113/4 39/115/4
f 40/119/4 2/6/4 6/18/4
f 33/99/4 39/115/4 40/119/4
f 30/89/4 32/94/4 33/99/4
f 26/78/4 28/82/4 30/89/4
f 20/58/4 22/66/4 24/70/4
f 24/70/4 26/78/4 30/89/4
f 30/89/4 33/99/4 40/119/4
f 6/18/4 7/20/4 8/22/4
f 30/89/4 40/119/4 6/18/4
f 20/58/4 24/70/4 30/89/4
f 16/46/4 18/53/4 20/58/4
f 10/29/4 12/34/4 14/41/4
f 14/41/4 16/46/4 20/58/4
f 20/58/4 30/89/4 6/18/4
f 6/18/4 8/22/4 10/29/4
f 10/29/4 14/41/4 20/58/4
f 8/23/1 7/21/1 5/15/1
f 8/24/5 9/27/5 11/32/5
f 12/35/1 10/30/1 11/33/1
f 12/36/5 13/39/5 15/44/5
f 16/47/1 14/42/1 15/45/1
f 19/56/5 18/54/5 16/48/5
f 19/57/6 21/62/6 20/59/6
f 20/60/5 21/63/5 23/68/5
f 23/69/6 25/74/6 24/71/6
f 24/72/5 25/75/5 27/80/5
f 27/81/6 29/86/6 28/83/6
f 30/90/2 28/84/2 29/87/2
f 31/93/6 34/101/6 32/95/6
f 32/96/2 34/102/2 35/104/2
f 35/105/6 36/107/6 38/114/6
f 36/108/2 37/110/2 39/116/2
f 40/120/1 39/117/1 37/111/1
