# Blender 3.5.0
# www.blender.org
mtllib VineFloorLeaf.mtl
o 円柱
v 0.033971 -0.051388 0.498699
v 0.101913 -0.051388 0.430758
v 0.033971 -0.051388 0.430758
v 0.169855 -0.051388 0.362816
v 0.237796 -0.051388 0.294874
v 0.169855 -0.051388 0.294874
v 0.101913 -0.051388 0.362816
v 0.305738 -0.051388 0.226932
v 0.373680 -0.051388 0.158990
v 0.305738 -0.051388 0.158990
v 0.441622 -0.051388 0.023107
v 0.373680 -0.051388 0.023107
v 0.237796 -0.051388 0.226932
v 0.033971 0.001049 0.498699
v 0.101913 0.001049 0.430758
v 0.033971 0.001049 0.430758
v 0.169855 0.001049 0.362816
v 0.237796 0.001049 0.294874
v 0.169855 0.001049 0.294874
v 0.101913 0.001049 0.362816
v 0.305738 0.001049 0.226932
v 0.373680 0.001049 0.158990
v 0.305738 0.001049 0.158990
v 0.441622 0.001049 0.023107
v 0.373680 0.001049 0.023107
v 0.237796 0.001049 0.226932
v -0.033971 -0.051388 0.498699
v -0.033971 -0.051388 0.430758
v -0.101913 -0.051388 0.430758
v -0.101913 -0.051388 0.362816
v -0.169855 -0.051388 0.362816
v -0.169855 -0.051388 0.294874
v -0.237796 -0.051388 0.294874
v -0.237796 -0.051388 0.226932
v -0.305738 -0.051388 0.226932
v -0.305738 -0.051388 0.158990
v -0.373680 -0.051388 0.158990
v -0.373680 -0.051388 0.023107
v -0.441622 -0.051388 0.023107
v -0.033971 0.001049 0.498699
v -0.033971 0.001049 0.430758
v -0.101913 0.001049 0.430758
v -0.101913 0.001049 0.362816
v -0.169855 0.001049 0.362816
v -0.169855 0.001049 0.294874
v -0.237796 0.001049 0.294874
v -0.237796 0.001049 0.226932
v -0.305738 0.001049 0.226932
v -0.305738 0.001049 0.158990
v -0.373680 0.001049 0.158990
v -0.373680 0.001049 0.023107
v -0.441622 0.001049 0.023107
v 0.441622 -0.051388 -0.248661
v 0.373680 -0.051388 -0.248661
v 0.373680 -0.051388 -0.384544
v 0.237796 -0.051388 -0.384544
v 0.237796 -0.051388 -0.452486
v 0.033971 -0.051388 -0.452486
v 0.033971 -0.051388 -0.520428
v 0.441622 0.001049 -0.248661
v 0.373680 0.001049 -0.248661
v 0.373680 0.001049 -0.384544
v 0.237796 0.001049 -0.384544
v 0.237796 0.001049 -0.452486
v 0.033971 0.001049 -0.452486
v 0.033971 0.001049 -0.520428
v -0.373680 -0.051388 -0.248661
v -0.441622 -0.051388 -0.248661
v -0.237796 -0.051388 -0.384544
v -0.033971 -0.051388 -0.452486
v -0.033971 -0.051388 -0.520428
v -0.237796 -0.051388 -0.452486
v -0.373680 -0.051388 -0.384544
v -0.373680 0.001049 -0.248661
v -0.441622 0.001049 -0.248661
v -0.237796 0.001049 -0.384544
v -0.033971 0.001049 -0.452486
v -0.033971 0.001049 -0.520428
v -0.237796 0.001049 -0.452486
v -0.373680 0.001049 -0.384544
vn -0.0000 -0.0000 -1.0000
vn 1.0000 -0.0000 -0.0000
vn -0.0000 -0.0000 1.0000
vn -1.0000 -0.0000 -0.0000
vn -0.0000 1.0000 -0.0000
vn -0.0000 -1.0000 -0.0000
vn -0.0000 1.0000 0.0016
vn -0.0000 1.0000 0.0011
vt 0.854292 0.026815
vt 0.093537 0.485840
vt 0.202697 0.193440
vt 0.256328 0.776815
vt 0.694666 0.276815
vt 0.202697 0.174926
vt 0.106628 0.485840
vt 0.681575 0.276815
vt 0.193440 0.184183
vt 0.106628 0.735840
vt 0.389771 0.526815
vt 0.202697 0.156413
vt 0.907922 0.026815
vt 0.603027 0.526815
vt 0.202697 0.137899
vt 0.402862 0.526815
vt 0.589936 0.526815
vt 0.193440 0.147156
vt 0.269419 0.776815
vt 0.093537 0.735840
vt 0.193440 0.165670
vt 0.936635 0.526815
vt 0.202697 0.119385
vt 0.523214 0.526815
vt 0.269419 0.526815
vt 0.202697 0.100871
vt 0.442136 0.276815
vt 0.536305 0.526815
vt 0.256328 0.526815
vt 0.193440 0.110128
vt 0.256328 0.026815
vt 0.894831 0.276815
vt 0.193440 0.073100
vt 0.184183 0.082357
vt 0.468319 0.276815
vt 0.881739 0.276815
vt 0.923543 0.526815
vt 0.921013 0.026815
vt 0.193440 0.128642
vt 0.093537 0.682210
vt 0.193440 0.432210
vt 0.854292 0.223185
vt 0.694666 0.473185
vt 0.256328 0.973185
vt 0.174926 0.432210
vt 0.106628 0.682210
vt 0.184183 0.422953
vt 0.681575 0.473185
vt 0.106628 0.932210
vt 0.389771 0.723185
vt 0.156413 0.432210
vt 0.603027 0.723185
vt 0.907922 0.223185
vt 0.137899 0.432210
vt 0.402862 0.723185
vt 0.147156 0.422953
vt 0.589936 0.723185
vt 0.269419 0.973185
vt 0.093537 0.932210
vt 0.165670 0.422953
vt 0.936635 0.723185
vt 0.119385 0.432210
vt 0.523214 0.723185
vt 0.269419 0.723185
vt 0.100871 0.432210
vt 0.442136 0.473185
vt 0.256328 0.723185
vt 0.110128 0.422953
vt 0.536305 0.723185
vt 0.073100 0.422953
vt 0.256328 0.223185
vt 0.894831 0.473185
vt 0.468319 0.473185
vt 0.082357 0.413696
vt 0.881739 0.473185
vt 0.921013 0.223185
vt 0.923543 0.723185
vt 0.128642 0.422953
vt 0.841201 0.026815
vt 0.803192 0.526815
vt 0.193440 0.202697
vt 0.720849 0.026815
vt 0.790100 0.526815
vt 0.184183 0.193440
vt 0.707757 0.026815
vt 0.828109 0.276815
vt 0.174926 0.202697
vt 0.173350 0.735840
vt 0.815018 0.276815
vt 0.165670 0.193440
vt 0.160258 0.735840
vt 0.039906 0.485840
vt 0.156413 0.202697
vt 0.026815 0.485840
vt 0.469584 0.526815
vt 0.147156 0.193440
vt 0.039906 0.735840
vt 0.137899 0.202697
vt 0.456492 0.526815
vt 0.961552 0.276815
vt 0.026815 0.735840
vt 0.128642 0.193440
vt 0.948461 0.276815
vt 0.669748 0.526815
vt 0.119385 0.202697
vt 0.656657 0.526815
vt 0.761388 0.276815
vt 0.110128 0.193440
vt 0.627944 0.276815
vt 0.748296 0.276815
vt 0.100871 0.202697
vt 0.601762 0.276815
vt 0.787570 0.026815
vt 0.082357 0.184183
vt 0.414688 0.026815
vt 0.774479 0.026815
vt 0.073100 0.193440
vt 0.202697 0.422953
vt 0.841201 0.223185
vt 0.803192 0.723185
vt 0.720849 0.223185
vt 0.193440 0.413696
vt 0.790100 0.723185
vt 0.707757 0.223185
vt 0.828109 0.473185
vt 0.202697 0.404439
vt 0.173350 0.932210
vt 0.815018 0.473185
vt 0.193440 0.395182
vt 0.160258 0.932210
vt 0.039906 0.682210
vt 0.202697 0.385925
vt 0.026815 0.682210
vt 0.193440 0.376668
vt 0.469584 0.723185
vt 0.039906 0.932210
vt 0.202697 0.367411
vt 0.456492 0.723185
vt 0.961552 0.473185
vt 0.026815 0.932210
vt 0.193440 0.358154
vt 0.948461 0.473185
vt 0.669748 0.723185
vt 0.202697 0.348897
vt 0.656657 0.723185
vt 0.761388 0.473185
vt 0.193440 0.339640
vt 0.627944 0.473185
vt 0.748296 0.473185
vt 0.202697 0.330383
vt 0.601762 0.473185
vt 0.787570 0.223185
vt 0.184183 0.311869
vt 0.414688 0.223185
vt 0.774479 0.223185
vt 0.193440 0.302612
vt 0.308693 0.026815
vt 0.156413 0.036072
vt 0.323049 0.776815
vt 0.336141 0.776815
vt 0.147156 0.045329
vt 0.627944 0.026815
vt 0.468319 0.026815
vt 0.654127 0.026815
vt 0.128642 0.026815
vt 0.323049 0.526815
vt 0.494501 0.026815
vt 0.110128 0.045329
vt 0.336141 0.526815
vt 0.349232 0.276815
vt 0.100871 0.036072
vt 0.456492 0.776815
vt 0.388506 0.276815
vt 0.073100 0.063843
vt 0.469584 0.776815
vt 0.389771 0.776815
vt 0.063843 0.054586
vt 0.036072 0.385925
vt 0.308693 0.223185
vt 0.323049 0.973185
vt 0.045329 0.376668
vt 0.627944 0.223185
vt 0.336141 0.973185
vt 0.468319 0.223185
vt 0.026815 0.358154
vt 0.654127 0.223185
vt 0.323049 0.723185
vt 0.494501 0.223185
vt 0.045329 0.339640
vt 0.336141 0.723185
vt 0.349232 0.473185
vt 0.036072 0.330383
vt 0.456492 0.973185
vt 0.388506 0.473185
vt 0.063843 0.302612
vt 0.389771 0.973185
vt 0.469584 0.973185
vt 0.054586 0.293355
vt 0.160258 0.485840
vt 0.045329 0.147156
vt 0.548132 0.276815
vt 0.362323 0.026815
vt 0.173350 0.485840
vt 0.036072 0.156413
vt 0.548132 0.026815
vt 0.736470 0.526815
vt 0.045329 0.110128
vt 0.256328 0.276815
vt 0.869913 0.526815
vt 0.063843 0.073100
vt 0.402862 0.776815
vt 0.856822 0.526815
vt 0.054586 0.063843
vt 0.723379 0.526815
vt 0.295602 0.276815
vt 0.036072 0.100871
vt 0.574314 0.026815
vt 0.026815 0.128642
vt 0.521949 0.276815
vt 0.160258 0.682210
vt 0.147156 0.274842
vt 0.548132 0.473185
vt 0.173350 0.682210
vt 0.362323 0.223185
vt 0.156413 0.265585
vt 0.548132 0.223185
vt 0.736470 0.723185
vt 0.110128 0.274842
vt 0.256328 0.473185
vt 0.073100 0.293355
vt 0.869913 0.723185
vt 0.402862 0.973185
vt 0.856822 0.723185
vt 0.063843 0.284098
vt 0.295602 0.473185
vt 0.723379 0.723185
vt 0.100871 0.265585
vt 0.521949 0.473185
vt 0.574314 0.223185
vt 0.128642 0.256328
s 0
usemtl マテリアル
f 66/196/1 71/211/1 78/232/1
f 64/190/2 56/166/2 57/169/2
f 22/64/3 10/29/3 9/25/3
f 20/58/2 2/4/2 7/19/2
f 47/139/3 35/103/3 34/100/3
f 14/40/2 3/7/2 16/46/2
f 26/77/3 8/22/3 21/61/3
f 41/121/3 29/85/3 28/82/3
f 74/220/1 68/203/1 75/223/1
f 80/239/1 69/205/1 73/217/1
f 43/127/3 31/91/3 30/88/3
f 17/49/3 7/20/3 4/10/3
f 31/92/4 45/133/4 32/94/4
f 37/109/4 51/151/4 38/112/4
f 66/197/2 58/172/2 59/175/2
f 29/86/4 43/128/4 30/89/4
f 56/167/1 62/184/1 55/163/1
f 39/115/4 75/224/4 68/202/4
f 72/215/1 77/229/1 70/208/1
f 19/55/2 4/11/2 6/16/2
f 58/173/1 64/191/1 57/170/1
f 35/104/4 49/145/4 36/106/4
f 18/53/2 13/38/2 26/76/2
f 33/97/4 47/140/4 34/101/4
f 69/206/4 79/236/4 72/214/4
f 49/146/3 37/110/3 36/107/3
f 51/152/3 39/116/3 38/113/3
f 65/195/5 76/228/5 45/134/5
f 19/57/3 5/14/3 18/52/3
f 16/48/3 2/5/3 15/43/3
f 14/42/3 27/79/3 1/1/3
f 71/212/4 77/231/4 78/233/4
f 53/157/2 24/71/2 11/31/2
f 27/80/4 41/123/4 28/83/4
f 70/210/6 6/18/6 28/84/6
f 62/186/2 54/162/2 55/164/2
f 22/66/2 12/35/2 25/73/2
f 45/135/3 33/99/3 32/95/3
f 73/219/4 74/222/4 80/238/4
f 61/183/1 53/159/1 54/160/1
f 24/72/3 12/36/3 11/32/3
f 23/69/2 8/24/2 10/28/2
f 66/196/1 59/176/1 71/211/1
f 64/190/2 63/187/2 56/166/2
f 22/64/3 23/67/3 10/29/3
f 20/58/2 15/44/2 2/4/2
f 47/139/3 48/142/3 35/103/3
f 14/40/2 1/2/2 3/7/2
f 26/77/3 13/37/3 8/22/3
f 41/121/3 42/124/3 29/85/3
f 74/220/1 67/199/1 68/203/1
f 80/239/1 76/226/1 69/205/1
f 43/127/3 44/130/3 31/91/3
f 17/49/3 20/59/3 7/20/3
f 31/92/4 44/131/4 45/133/4
f 37/109/4 50/148/4 51/151/4
f 66/197/2 65/193/2 58/172/2
f 29/86/4 42/125/4 43/128/4
f 56/167/1 63/188/1 62/184/1
f 39/115/4 52/154/4 75/224/4
f 72/215/1 79/235/1 77/229/1
f 19/55/2 17/50/2 4/11/2
f 58/173/1 65/194/1 64/191/1
f 35/104/4 48/143/4 49/145/4
f 18/53/2 5/13/2 13/38/2
f 33/97/4 46/136/4 47/140/4
f 69/206/4 76/227/4 79/236/4
f 49/146/3 50/149/3 37/110/3
f 51/152/3 52/155/3 39/116/3
f 25/74/5 24/70/5 60/178/5
f 61/181/5 62/185/5 63/189/5
f 25/74/5 60/178/5 61/181/5
f 23/68/5 22/65/5 25/74/5
f 26/78/5 21/62/5 23/68/5
f 19/56/5 18/54/5 26/78/5
f 20/60/5 17/51/5 19/56/5
f 16/47/5 15/45/5 20/60/5
f 40/118/5 14/41/5 16/47/5
f 43/129/5 42/126/5 41/122/5
f 41/122/5 40/118/5 16/47/5
f 16/47/7 20/60/7 19/56/7
f 19/56/8 26/78/8 23/68/8
f 23/68/5 25/74/5 61/181/5
f 63/189/5 64/192/5 65/195/5
f 23/68/5 61/181/5 63/189/5
f 41/122/5 16/47/5 19/56/5
f 19/56/5 23/68/5 63/189/5
f 65/195/5 66/198/5 78/234/5
f 19/56/5 63/189/5 65/195/5
f 43/129/5 41/122/5 19/56/5
f 45/134/5 44/132/5 43/129/5
f 47/141/5 46/137/5 45/134/5
f 49/147/5 48/144/5 47/141/5
f 51/153/5 50/150/5 49/147/5
f 75/225/5 52/156/5 51/153/5
f 76/228/5 80/240/5 74/221/5
f 74/221/5 75/225/5 51/153/5
f 51/153/5 49/147/5 47/141/5
f 45/134/5 43/129/5 19/56/5
f 51/153/5 47/141/5 45/134/5
f 76/228/5 74/221/5 51/153/5
f 77/230/5 79/237/5 76/228/5
f 65/195/5 78/234/5 77/230/5
f 45/134/5 19/56/5 65/195/5
f 76/228/5 51/153/5 45/134/5
f 65/195/5 77/230/5 76/228/5
f 19/57/3 6/17/3 5/14/3
f 16/48/3 3/8/3 2/5/3
f 14/42/3 40/119/3 27/79/3
f 71/212/4 70/209/4 77/231/4
f 53/157/2 60/179/2 24/71/2
f 27/80/4 40/120/4 41/123/4
f 70/210/6 71/213/6 59/177/6
f 58/174/6 57/171/6 56/168/6
f 70/210/6 59/177/6 58/174/6
f 69/207/6 72/216/6 70/210/6
f 67/200/6 73/218/6 69/207/6
f 39/117/6 68/204/6 67/200/6
f 36/108/6 37/111/6 38/114/6
f 38/114/6 39/117/6 67/200/6
f 67/200/6 69/207/6 70/210/6
f 70/210/6 58/174/6 56/168/6
f 56/168/6 55/165/6 54/161/6
f 54/161/6 53/158/6 11/33/6
f 12/34/6 9/26/6 10/30/6
f 54/161/6 11/33/6 12/34/6
f 70/210/6 56/168/6 54/161/6
f 38/114/6 67/200/6 70/210/6
f 34/102/6 35/105/6 36/108/6
f 36/108/6 38/114/6 70/210/6
f 70/210/6 54/161/6 12/34/6
f 10/30/6 8/23/6 13/39/6
f 70/210/6 12/34/6 10/30/6
f 34/102/6 36/108/6 70/210/6
f 32/96/6 33/98/6 34/102/6
f 30/90/6 31/93/6 32/96/6
f 28/84/6 29/87/6 30/90/6
f 1/3/6 27/81/6 28/84/6
f 7/21/6 2/6/6 3/9/6
f 3/9/6 1/3/6 28/84/6
f 28/84/6 30/90/6 32/96/6
f 32/96/6 34/102/6 70/210/6
f 70/210/6 10/30/6 13/39/6
f 13/39/6 5/15/6 6/18/6
f 6/18/6 4/12/6 7/21/6
f 7/21/6 3/9/6 28/84/6
f 28/84/6 32/96/6 70/210/6
f 70/210/6 13/39/6 6/18/6
f 6/18/6 7/21/6 28/84/6
f 62/186/2 61/182/2 54/162/2
f 22/66/2 9/27/2 12/35/2
f 45/135/3 46/138/3 33/99/3
f 73/219/4 67/201/4 74/222/4
f 61/183/1 60/180/1 53/159/1
f 24/72/3 25/75/3 12/36/3
f 23/69/2 21/63/2 8/24/2
