# Blender 3.5.0
# www.blender.org
mtllib FlowerStem.mtl
o 円柱.001
v 0.003093 0.000725 -0.003093
v 0.004331 0.000725 -0.001856
v 0.003093 0.000725 -0.001856
v 0.001856 0.000725 -0.004331
v 0.001856 0.000725 -0.003093
v 0.003093 0.051457 -0.003093
v 0.004331 0.051457 -0.001856
v 0.003093 0.051457 -0.001856
v 0.001856 0.051457 -0.004331
v 0.001856 0.051457 -0.003093
v 0.004331 0.000725 0.001856
v 0.003093 0.000725 0.001856
v 0.003093 0.000725 0.003093
v 0.001856 0.000725 0.003093
v 0.001856 0.000725 0.004331
v 0.004331 0.051457 0.001856
v 0.003093 0.051457 0.001856
v 0.003093 0.051457 0.003093
v 0.001856 0.051457 0.003093
v 0.001856 0.051457 0.004331
v -0.001856 0.000725 -0.004331
v -0.001856 0.000725 -0.003093
v -0.003093 0.000725 -0.003093
v -0.003093 0.000725 -0.001856
v -0.004331 0.000725 -0.001856
v -0.001856 0.051457 -0.004331
v -0.001856 0.051457 -0.003093
v -0.003093 0.051457 -0.003093
v -0.003093 0.051457 -0.001856
v -0.004331 0.051457 -0.001856
v -0.001856 0.000725 0.003093
v -0.001856 0.000725 0.004331
v -0.003093 0.000725 0.001856
v -0.004331 0.000725 0.001856
v -0.003093 0.000725 0.003093
v -0.001856 0.051457 0.003093
v -0.001856 0.051457 0.004331
v -0.003093 0.051457 0.001856
v -0.004331 0.051457 0.001856
v -0.003093 0.051457 0.003093
vn -0.0000 -0.0000 -1.0000
vn 1.0000 -0.0000 -0.0000
vn -0.0000 -0.0000 1.0000
vn -1.0000 -0.0000 -0.0000
vn -0.0000 -1.0000 -0.0000
vn -0.0000 1.0000 -0.0000
vt 0.000000 0.000000
s 0
f 6/1/1 5/1/1 10/1/1
f 18/1/2 12/1/2 17/1/2
f 11/1/3 17/1/3 12/1/3
f 9/1/2 5/1/2 4/1/2
f 11/1/2 7/1/2 16/1/2
f 14/1/3 18/1/3 19/1/3
f 27/1/4 21/1/4 22/1/4
f 8/1/1 2/1/1 3/1/1
f 9/1/1 21/1/1 26/1/1
f 28/1/4 24/1/4 29/1/4
f 24/1/5 12/1/5 31/1/5
f 34/1/3 38/1/3 39/1/3
f 31/1/3 40/1/3 35/1/3
f 37/1/4 31/1/4 32/1/4
f 10/1/6 27/1/6 38/1/6
f 40/1/4 33/1/4 35/1/4
f 32/1/3 20/1/3 37/1/3
f 30/1/4 34/1/4 39/1/4
f 28/1/1 22/1/1 23/1/1
f 19/1/2 15/1/2 14/1/2
f 6/1/2 3/1/2 1/1/2
f 30/1/1 24/1/1 25/1/1
f 6/1/1 1/1/1 5/1/1
f 18/1/2 13/1/2 12/1/2
f 11/1/3 16/1/3 17/1/3
f 9/1/2 10/1/2 5/1/2
f 11/1/2 2/1/2 7/1/2
f 14/1/3 13/1/3 18/1/3
f 27/1/4 26/1/4 21/1/4
f 8/1/1 7/1/1 2/1/1
f 9/1/1 4/1/1 21/1/1
f 28/1/4 23/1/4 24/1/4
f 24/1/5 23/1/5 22/1/5
f 22/1/5 21/1/5 4/1/5
f 5/1/5 1/1/5 3/1/5
f 22/1/5 4/1/5 5/1/5
f 34/1/5 25/1/5 24/1/5
f 24/1/5 22/1/5 5/1/5
f 3/1/5 2/1/5 11/1/5
f 24/1/5 5/1/5 3/1/5
f 33/1/5 34/1/5 24/1/5
f 31/1/5 35/1/5 33/1/5
f 15/1/5 32/1/5 31/1/5
f 12/1/5 13/1/5 14/1/5
f 14/1/5 15/1/5 31/1/5
f 31/1/5 33/1/5 24/1/5
f 24/1/5 3/1/5 11/1/5
f 12/1/5 14/1/5 31/1/5
f 24/1/5 11/1/5 12/1/5
f 34/1/3 33/1/3 38/1/3
f 31/1/3 36/1/3 40/1/3
f 37/1/4 36/1/4 31/1/4
f 17/1/6 16/1/6 7/1/6
f 8/1/6 6/1/6 10/1/6
f 17/1/6 7/1/6 8/1/6
f 19/1/6 18/1/6 17/1/6
f 37/1/6 20/1/6 19/1/6
f 38/1/6 40/1/6 36/1/6
f 36/1/6 37/1/6 19/1/6
f 19/1/6 17/1/6 8/1/6
f 10/1/6 9/1/6 26/1/6
f 19/1/6 8/1/6 10/1/6
f 38/1/6 36/1/6 19/1/6
f 30/1/6 39/1/6 38/1/6
f 27/1/6 28/1/6 29/1/6
f 29/1/6 30/1/6 38/1/6
f 38/1/6 19/1/6 10/1/6
f 10/1/6 26/1/6 27/1/6
f 27/1/6 29/1/6 38/1/6
f 40/1/4 38/1/4 33/1/4
f 32/1/3 15/1/3 20/1/3
f 30/1/4 25/1/4 34/1/4
f 28/1/1 27/1/1 22/1/1
f 19/1/2 20/1/2 15/1/2
f 6/1/2 8/1/2 3/1/2
f 30/1/1 29/1/1 24/1/1
