# Blender 3.5.0
# www.blender.org
mtllib FlowerLeaf.mtl
o 球.002
v -0.010214 -0.000963 -0.008368
v -0.010214 0.001380 -0.014803
v -0.010214 0.003722 -0.021239
v -0.006129 -0.000963 -0.008368
v -0.002043 -0.000963 -0.008368
v -0.006129 -0.000036 -0.015319
v -0.006129 0.002307 -0.021755
v -0.002043 -0.000036 -0.015319
v -0.002043 0.002307 -0.021755
v -0.006129 0.001380 -0.014803
v -0.006129 0.003722 -0.021239
v -0.002043 0.001380 -0.014803
v -0.010214 0.000453 -0.007852
v -0.010214 0.001869 -0.007337
v -0.014300 0.002796 -0.014288
v -0.014300 0.005138 -0.020724
v -0.010214 0.002796 -0.014288
v -0.010214 0.005138 -0.020724
v -0.014300 0.004211 -0.013773
v -0.014300 0.006554 -0.020209
v -0.010214 0.004211 -0.013773
v -0.006129 -0.001889 -0.001416
v -0.006129 0.000453 -0.007852
v -0.002043 -0.001889 -0.001416
v -0.002043 0.000453 -0.007852
v -0.006129 -0.000474 -0.000901
v -0.006129 0.001869 -0.007337
v -0.002043 -0.000474 -0.000901
v -0.010214 0.006065 -0.027675
v -0.010214 0.008407 -0.034111
v -0.010214 0.010750 -0.040547
v -0.006129 0.004649 -0.028190
v -0.006129 0.006992 -0.034626
v -0.002043 0.004649 -0.028190
v -0.002043 0.006992 -0.034626
v -0.006129 0.006065 -0.027675
v -0.006129 0.008407 -0.034111
v -0.002043 0.008407 -0.034111
v -0.006129 0.010750 -0.040547
v -0.002043 0.010750 -0.040547
v -0.014300 0.007481 -0.027160
v -0.014300 0.009823 -0.033596
v -0.010214 0.007481 -0.027160
v -0.010214 0.009823 -0.033596
v -0.014300 0.008896 -0.026645
v -0.014300 0.011239 -0.033080
v -0.010214 0.011239 -0.033080
v -0.010214 0.012165 -0.040032
v -0.010214 0.013581 -0.039516
v -0.006129 0.012165 -0.040032
v -0.006129 0.014508 -0.046467
v -0.002043 0.012165 -0.040032
v -0.002043 0.014508 -0.046467
v -0.006129 0.013581 -0.039516
v -0.006129 0.015924 -0.045952
v -0.002043 0.015924 -0.045952
v 0.002043 -0.000963 -0.008368
v 0.006129 -0.000963 -0.008368
v 0.002043 -0.000036 -0.015319
v 0.002043 0.002307 -0.021755
v 0.006129 -0.000036 -0.015319
v 0.006129 0.002307 -0.021755
v 0.002043 0.001380 -0.014803
v 0.006129 0.001380 -0.014803
v 0.006129 0.003722 -0.021239
v 0.010214 -0.000963 -0.008368
v 0.010214 0.001380 -0.014803
v 0.010214 0.003722 -0.021239
v 0.002043 -0.001889 -0.001416
v 0.002043 0.000453 -0.007852
v 0.006129 -0.001889 -0.001416
v 0.006129 0.000453 -0.007852
v 0.002043 -0.000474 -0.000901
v 0.006129 -0.000474 -0.000901
v 0.006129 0.001869 -0.007337
v 0.010214 0.000453 -0.007852
v 0.010214 0.001869 -0.007337
v 0.010214 0.002796 -0.014288
v 0.010214 0.005138 -0.020724
v 0.014300 0.002796 -0.014288
v 0.014300 0.005138 -0.020724
v 0.010214 0.004211 -0.013773
v 0.014300 0.004211 -0.013773
v 0.014300 0.006554 -0.020209
v 0.002043 0.004649 -0.028190
v 0.002043 0.006992 -0.034626
v 0.006129 0.004649 -0.028190
v 0.006129 0.006992 -0.034626
v 0.002043 0.008407 -0.034111
v 0.006129 0.006065 -0.027675
v 0.006129 0.008407 -0.034111
v 0.002043 0.010750 -0.040547
v 0.006129 0.010750 -0.040547
v 0.010214 0.006065 -0.027675
v 0.010214 0.008407 -0.034111
v 0.010214 0.010750 -0.040547
v 0.002043 0.012165 -0.040032
v 0.002043 0.014508 -0.046467
v 0.006129 0.012165 -0.040032
v 0.006129 0.014508 -0.046467
v 0.002043 0.015924 -0.045952
v 0.006129 0.013581 -0.039516
v 0.006129 0.015924 -0.045952
v 0.010214 0.007481 -0.027160
v 0.010214 0.009823 -0.033596
v 0.014300 0.007481 -0.027160
v 0.014300 0.009823 -0.033596
v 0.010214 0.011239 -0.033080
v 0.014300 0.008896 -0.026645
v 0.014300 0.011239 -0.033080
v 0.010214 0.012165 -0.040032
v 0.010214 0.013581 -0.039516
v -0.010214 0.003285 -0.006822
v -0.010214 0.004700 -0.006307
v -0.014300 0.005627 -0.013258
v -0.014300 0.007969 -0.019693
v -0.010214 0.005627 -0.013258
v -0.014300 0.007043 -0.012742
v -0.014300 0.009385 -0.019178
v -0.010214 0.007043 -0.012742
v -0.010214 0.009385 -0.019178
v -0.006129 0.000942 -0.000386
v -0.006129 0.003285 -0.006822
v -0.002043 0.000942 -0.000386
v -0.006129 0.002358 0.000129
v -0.006129 0.004700 -0.006307
v -0.002043 0.002358 0.000129
v -0.002043 0.004700 -0.006307
v -0.010214 0.006116 -0.005791
v -0.010214 0.008458 -0.012227
v -0.010214 0.010801 -0.018663
v -0.006129 0.006116 -0.005791
v -0.002043 0.006116 -0.005791
v -0.006129 0.008458 -0.012227
v -0.006129 0.010801 -0.018663
v -0.002043 0.008458 -0.012227
v -0.006129 0.009874 -0.011712
v -0.006129 0.012217 -0.018148
v -0.002043 0.009874 -0.011712
v -0.002043 0.012217 -0.018148
v -0.014300 0.010312 -0.026129
v -0.014300 0.012654 -0.032565
v -0.010214 0.012654 -0.032565
v -0.014300 0.011728 -0.025614
v -0.014300 0.014070 -0.032050
v -0.010214 0.011728 -0.025614
v -0.010214 0.014070 -0.032050
v -0.010214 0.014997 -0.039001
v -0.010214 0.016413 -0.038486
v -0.006129 0.014997 -0.039001
v -0.006129 0.017339 -0.045437
v -0.002043 0.017339 -0.045437
v -0.006129 0.016413 -0.038486
v -0.006129 0.018755 -0.044922
v -0.002043 0.016413 -0.038486
v -0.002043 0.018755 -0.044922
v -0.010214 0.013143 -0.025099
v -0.010214 0.015486 -0.031535
v -0.010214 0.017828 -0.037970
v -0.006129 0.013143 -0.025099
v -0.006129 0.015486 -0.031535
v -0.002043 0.015486 -0.031535
v -0.006129 0.014559 -0.024583
v -0.006129 0.016901 -0.031019
v -0.002043 0.014559 -0.024583
v -0.002043 0.016901 -0.031019
v -0.006129 0.017828 -0.037970
v -0.002043 0.017828 -0.037970
v 0.002043 0.000942 -0.000386
v 0.006129 0.000942 -0.000386
v 0.006129 0.003285 -0.006822
v 0.002043 0.002358 0.000129
v 0.002043 0.004700 -0.006307
v 0.006129 0.002358 0.000129
v 0.006129 0.004700 -0.006307
v 0.010214 0.003285 -0.006822
v 0.010214 0.004700 -0.006307
v 0.010214 0.005627 -0.013258
v 0.014300 0.005627 -0.013258
v 0.014300 0.007969 -0.019693
v 0.010214 0.007043 -0.012742
v 0.010214 0.009385 -0.019178
v 0.014300 0.007043 -0.012742
v 0.014300 0.009385 -0.019178
v 0.002043 0.006116 -0.005791
v 0.006129 0.006116 -0.005791
v 0.002043 0.008458 -0.012227
v 0.006129 0.008458 -0.012227
v 0.006129 0.010801 -0.018663
v 0.002043 0.009874 -0.011712
v 0.002043 0.012217 -0.018148
v 0.006129 0.009874 -0.011712
v 0.006129 0.012217 -0.018148
v 0.010214 0.006116 -0.005791
v 0.010214 0.008458 -0.012227
v 0.010214 0.010801 -0.018663
v 0.002043 0.017339 -0.045437
v 0.006129 0.014997 -0.039001
v 0.006129 0.017339 -0.045437
v 0.002043 0.016413 -0.038486
v 0.002043 0.018755 -0.044922
v 0.006129 0.016413 -0.038486
v 0.006129 0.018755 -0.044922
v 0.010214 0.012654 -0.032565
v 0.014300 0.010312 -0.026129
v 0.014300 0.012654 -0.032565
v 0.010214 0.011728 -0.025614
v 0.010214 0.014070 -0.032050
v 0.014300 0.011728 -0.025614
v 0.014300 0.014070 -0.032050
v 0.010214 0.014997 -0.039001
v 0.010214 0.016413 -0.038486
v 0.002043 0.015486 -0.031535
v 0.006129 0.013143 -0.025099
v 0.006129 0.015486 -0.031535
v 0.002043 0.014559 -0.024583
v 0.002043 0.016901 -0.031019
v 0.006129 0.014559 -0.024583
v 0.006129 0.016901 -0.031019
v 0.002043 0.017828 -0.037970
v 0.006129 0.017828 -0.037970
v 0.010214 0.013143 -0.025099
v 0.010214 0.015486 -0.031535
v 0.010214 0.017828 -0.037970
vn -0.0000 -0.9397 -0.3420
vn -1.0000 -0.0000 -0.0000
vn -0.0000 -0.3420 0.9397
vn -0.0000 0.3420 -0.9397
vn 1.0000 -0.0000 -0.0000
vn -0.0000 0.9397 0.3420
vt 0.000000 0.000000
s 0
f 7/1/1 8/1/1 6/1/1
f 10/1/2 7/1/2 6/1/2
f 8/1/3 10/1/3 6/1/3
f 16/1/1 17/1/1 15/1/1
f 19/1/2 16/1/2 15/1/2
f 17/1/3 19/1/3 15/1/3
f 23/1/1 24/1/1 22/1/1
f 26/1/2 23/1/2 22/1/2
f 24/1/3 26/1/3 22/1/3
f 17/1/2 3/1/2 2/1/2
f 5/1/3 23/1/3 4/1/3
f 23/1/3 14/1/3 13/1/3
f 3/1/1 10/1/1 2/1/1
f 10/1/1 5/1/1 4/1/1
f 14/1/2 17/1/2 13/1/2
f 2/1/1 4/1/1 1/1/1
f 13/1/2 2/1/2 1/1/2
f 4/1/3 13/1/3 1/1/3
f 33/1/1 34/1/1 32/1/1
f 36/1/2 33/1/2 32/1/2
f 38/1/4 33/1/4 37/1/4
f 42/1/1 43/1/1 41/1/1
f 45/1/2 42/1/2 41/1/2
f 47/1/4 42/1/4 46/1/4
f 51/1/1 52/1/1 50/1/1
f 54/1/2 51/1/2 50/1/2
f 56/1/4 51/1/4 55/1/4
f 43/1/2 30/1/2 29/1/2
f 52/1/4 39/1/4 50/1/4
f 30/1/1 36/1/1 29/1/1
f 54/1/4 48/1/4 49/1/4
f 39/1/1 38/1/1 37/1/1
f 47/1/2 48/1/2 44/1/2
f 31/1/1 37/1/1 30/1/1
f 44/1/2 31/1/2 30/1/2
f 50/1/4 31/1/4 48/1/4
f 60/1/1 61/1/1 59/1/1
f 65/1/5 61/1/5 62/1/5
f 61/1/3 63/1/3 59/1/3
f 70/1/1 71/1/1 69/1/1
f 75/1/5 71/1/5 72/1/5
f 71/1/3 73/1/3 69/1/3
f 79/1/1 80/1/1 78/1/1
f 84/1/5 80/1/5 81/1/5
f 80/1/3 82/1/3 78/1/3
f 58/1/3 70/1/3 57/1/3
f 79/1/5 67/1/5 68/1/5
f 76/1/3 75/1/3 72/1/3
f 65/1/1 67/1/1 64/1/1
f 63/1/1 58/1/1 57/1/1
f 82/1/5 76/1/5 78/1/5
f 64/1/1 66/1/1 58/1/1
f 78/1/5 66/1/5 67/1/5
f 66/1/3 72/1/3 58/1/3
f 86/1/1 87/1/1 85/1/1
f 91/1/5 87/1/5 88/1/5
f 91/1/4 86/1/4 89/1/4
f 98/1/1 99/1/1 97/1/1
f 103/1/5 99/1/5 100/1/5
f 103/1/4 98/1/4 101/1/4
f 105/1/1 106/1/1 104/1/1
f 110/1/5 106/1/5 107/1/5
f 110/1/4 105/1/4 108/1/4
f 99/1/4 92/1/4 97/1/4
f 105/1/5 94/1/5 95/1/5
f 91/1/1 94/1/1 90/1/1
f 112/1/4 99/1/4 102/1/4
f 92/1/1 91/1/1 89/1/1
f 112/1/5 105/1/5 111/1/5
f 93/1/1 95/1/1 91/1/1
f 111/1/5 95/1/5 96/1/5
f 111/1/4 93/1/4 99/1/4
f 121/1/6 118/1/6 120/1/6
f 118/1/2 116/1/2 115/1/2
f 117/1/3 118/1/3 115/1/3
f 128/1/6 125/1/6 127/1/6
f 125/1/2 123/1/2 122/1/2
f 124/1/3 125/1/3 122/1/3
f 140/1/6 137/1/6 139/1/6
f 137/1/2 135/1/2 134/1/2
f 136/1/3 137/1/3 134/1/3
f 130/1/2 121/1/2 120/1/2
f 128/1/3 132/1/3 126/1/3
f 123/1/3 114/1/3 113/1/3
f 135/1/6 130/1/6 134/1/6
f 114/1/2 117/1/2 113/1/2
f 136/1/6 132/1/6 133/1/6
f 134/1/6 129/1/6 132/1/6
f 129/1/2 120/1/2 114/1/2
f 126/1/3 129/1/3 114/1/3
f 147/1/6 144/1/6 146/1/6
f 144/1/2 142/1/2 141/1/2
f 147/1/4 142/1/4 145/1/4
f 156/1/6 153/1/6 155/1/6
f 153/1/2 151/1/2 150/1/2
f 156/1/4 151/1/4 154/1/4
f 166/1/6 163/1/6 165/1/6
f 163/1/2 161/1/2 160/1/2
f 166/1/4 161/1/4 164/1/4
f 157/1/2 147/1/2 146/1/2
f 168/1/4 153/1/4 167/1/4
f 161/1/6 157/1/6 160/1/6
f 153/1/4 148/1/4 149/1/4
f 147/1/2 148/1/2 143/1/2
f 168/1/6 161/1/6 162/1/6
f 167/1/6 158/1/6 161/1/6
f 158/1/2 149/1/2 147/1/2
f 167/1/4 149/1/4 159/1/4
f 175/1/6 172/1/6 174/1/6
f 175/1/5 170/1/5 171/1/5
f 170/1/3 172/1/3 169/1/3
f 184/1/6 181/1/6 183/1/6
f 184/1/5 179/1/5 180/1/5
f 179/1/3 181/1/3 178/1/3
f 193/1/6 190/1/6 192/1/6
f 193/1/5 188/1/5 189/1/5
f 188/1/3 190/1/3 187/1/3
f 175/1/3 185/1/3 173/1/3
f 196/1/5 181/1/5 182/1/5
f 176/1/3 175/1/3 171/1/3
f 196/1/6 188/1/6 195/1/6
f 181/1/5 176/1/5 178/1/5
f 188/1/6 185/1/6 186/1/6
f 195/1/6 186/1/6 194/1/6
f 195/1/5 177/1/5 181/1/5
f 177/1/3 186/1/3 175/1/3
f 203/1/6 200/1/6 202/1/6
f 203/1/5 198/1/5 199/1/5
f 203/1/4 197/1/4 201/1/4
f 210/1/6 207/1/6 209/1/6
f 210/1/5 205/1/5 206/1/5
f 210/1/4 204/1/4 208/1/4
f 219/1/6 216/1/6 218/1/6
f 219/1/5 214/1/5 215/1/5
f 219/1/4 213/1/4 217/1/4
f 221/1/4 200/1/4 220/1/4
f 223/1/5 207/1/5 208/1/5
f 223/1/6 214/1/6 222/1/6
f 212/1/4 198/1/4 202/1/4
f 212/1/5 204/1/5 211/1/5
f 221/1/6 213/1/6 215/1/6
f 224/1/6 215/1/6 223/1/6
f 224/1/5 208/1/5 212/1/5
f 224/1/4 202/1/4 221/1/4
f 115/1/2 20/1/2 19/1/2
f 21/1/3 115/1/3 19/1/3
f 122/1/2 27/1/2 26/1/2
f 28/1/3 122/1/3 26/1/3
f 113/1/2 21/1/2 14/1/2
f 27/1/3 113/1/3 14/1/3
f 141/1/2 46/1/2 45/1/2
f 143/1/4 46/1/4 142/1/4
f 150/1/2 55/1/2 54/1/2
f 152/1/4 55/1/4 151/1/4
f 143/1/2 49/1/2 47/1/2
f 150/1/4 49/1/4 148/1/4
f 171/1/5 74/1/5 75/1/5
f 74/1/3 169/1/3 73/1/3
f 180/1/5 83/1/5 84/1/5
f 83/1/3 178/1/3 82/1/3
f 178/1/5 77/1/5 82/1/5
f 77/1/3 171/1/3 75/1/3
f 199/1/5 102/1/5 103/1/5
f 199/1/4 101/1/4 197/1/4
f 206/1/5 109/1/5 110/1/5
f 206/1/4 108/1/4 204/1/4
f 211/1/5 108/1/5 112/1/5
f 211/1/4 102/1/4 198/1/4
f 25/1/1 69/1/1 24/1/1
f 69/1/3 28/1/3 24/1/3
f 9/1/1 59/1/1 8/1/1
f 59/1/3 12/1/3 8/1/3
f 12/1/1 57/1/1 5/1/1
f 57/1/3 25/1/3 5/1/3
f 173/1/6 127/1/6 172/1/6
f 169/1/3 127/1/3 124/1/3
f 191/1/6 139/1/6 190/1/6
f 187/1/3 139/1/3 136/1/3
f 187/1/6 133/1/6 185/1/6
f 173/1/3 133/1/3 128/1/3
f 35/1/1 85/1/1 34/1/1
f 89/1/4 35/1/4 38/1/4
f 53/1/1 97/1/1 52/1/1
f 101/1/4 53/1/4 56/1/4
f 40/1/1 89/1/1 38/1/1
f 97/1/4 40/1/4 52/1/4
f 217/1/6 165/1/6 216/1/6
f 217/1/4 162/1/4 166/1/4
f 201/1/6 155/1/6 200/1/6
f 201/1/4 152/1/4 156/1/4
f 220/1/6 162/1/6 213/1/6
f 220/1/4 155/1/4 168/1/4
f 32/1/1 9/1/1 7/1/1
f 11/1/2 32/1/2 7/1/2
f 41/1/1 18/1/1 16/1/1
f 20/1/2 41/1/2 16/1/2
f 29/1/1 11/1/1 3/1/1
f 18/1/2 29/1/2 3/1/2
f 85/1/1 62/1/1 60/1/1
f 90/1/5 62/1/5 87/1/5
f 104/1/1 81/1/1 79/1/1
f 109/1/5 81/1/5 106/1/5
f 90/1/1 68/1/1 65/1/1
f 104/1/5 68/1/5 94/1/5
f 146/1/6 119/1/6 121/1/6
f 119/1/2 141/1/2 116/1/2
f 165/1/6 138/1/6 140/1/6
f 138/1/2 160/1/2 135/1/2
f 160/1/6 131/1/6 135/1/6
f 131/1/2 146/1/2 121/1/2
f 209/1/6 182/1/6 184/1/6
f 209/1/5 180/1/5 205/1/5
f 218/1/6 191/1/6 193/1/6
f 218/1/5 189/1/5 214/1/5
f 222/1/6 189/1/6 196/1/6
f 222/1/5 182/1/5 207/1/5
f 34/1/1 60/1/1 9/1/1
f 216/1/6 140/1/6 191/1/6
f 116/1/2 45/1/2 20/1/2
f 205/1/5 84/1/5 109/1/5
f 73/1/3 124/1/3 28/1/3
f 197/1/4 56/1/4 152/1/4
f 7/1/1 9/1/1 8/1/1
f 10/1/2 11/1/2 7/1/2
f 8/1/3 12/1/3 10/1/3
f 16/1/1 18/1/1 17/1/1
f 19/1/2 20/1/2 16/1/2
f 17/1/3 21/1/3 19/1/3
f 23/1/1 25/1/1 24/1/1
f 26/1/2 27/1/2 23/1/2
f 24/1/3 28/1/3 26/1/3
f 17/1/2 18/1/2 3/1/2
f 5/1/3 25/1/3 23/1/3
f 23/1/3 27/1/3 14/1/3
f 3/1/1 11/1/1 10/1/1
f 10/1/1 12/1/1 5/1/1
f 14/1/2 21/1/2 17/1/2
f 2/1/1 10/1/1 4/1/1
f 13/1/2 17/1/2 2/1/2
f 4/1/3 23/1/3 13/1/3
f 33/1/1 35/1/1 34/1/1
f 36/1/2 37/1/2 33/1/2
f 38/1/4 35/1/4 33/1/4
f 42/1/1 44/1/1 43/1/1
f 45/1/2 46/1/2 42/1/2
f 47/1/4 44/1/4 42/1/4
f 51/1/1 53/1/1 52/1/1
f 54/1/2 55/1/2 51/1/2
f 56/1/4 53/1/4 51/1/4
f 43/1/2 44/1/2 30/1/2
f 52/1/4 40/1/4 39/1/4
f 30/1/1 37/1/1 36/1/1
f 54/1/4 50/1/4 48/1/4
f 39/1/1 40/1/1 38/1/1
f 47/1/2 49/1/2 48/1/2
f 31/1/1 39/1/1 37/1/1
f 44/1/2 48/1/2 31/1/2
f 50/1/4 39/1/4 31/1/4
f 60/1/1 62/1/1 61/1/1
f 65/1/5 64/1/5 61/1/5
f 61/1/3 64/1/3 63/1/3
f 70/1/1 72/1/1 71/1/1
f 75/1/5 74/1/5 71/1/5
f 71/1/3 74/1/3 73/1/3
f 79/1/1 81/1/1 80/1/1
f 84/1/5 83/1/5 80/1/5
f 80/1/3 83/1/3 82/1/3
f 58/1/3 72/1/3 70/1/3
f 79/1/5 78/1/5 67/1/5
f 76/1/3 77/1/3 75/1/3
f 65/1/1 68/1/1 67/1/1
f 63/1/1 64/1/1 58/1/1
f 82/1/5 77/1/5 76/1/5
f 64/1/1 67/1/1 66/1/1
f 78/1/5 76/1/5 66/1/5
f 66/1/3 76/1/3 72/1/3
f 86/1/1 88/1/1 87/1/1
f 91/1/5 90/1/5 87/1/5
f 91/1/4 88/1/4 86/1/4
f 98/1/1 100/1/1 99/1/1
f 103/1/5 102/1/5 99/1/5
f 103/1/4 100/1/4 98/1/4
f 105/1/1 107/1/1 106/1/1
f 110/1/5 109/1/5 106/1/5
f 110/1/4 107/1/4 105/1/4
f 99/1/4 93/1/4 92/1/4
f 105/1/5 104/1/5 94/1/5
f 91/1/1 95/1/1 94/1/1
f 112/1/4 111/1/4 99/1/4
f 92/1/1 93/1/1 91/1/1
f 112/1/5 108/1/5 105/1/5
f 93/1/1 96/1/1 95/1/1
f 111/1/5 105/1/5 95/1/5
f 111/1/4 96/1/4 93/1/4
f 121/1/6 119/1/6 118/1/6
f 118/1/2 119/1/2 116/1/2
f 117/1/3 120/1/3 118/1/3
f 128/1/6 126/1/6 125/1/6
f 125/1/2 126/1/2 123/1/2
f 124/1/3 127/1/3 125/1/3
f 140/1/6 138/1/6 137/1/6
f 137/1/2 138/1/2 135/1/2
f 136/1/3 139/1/3 137/1/3
f 130/1/2 131/1/2 121/1/2
f 128/1/3 133/1/3 132/1/3
f 123/1/3 126/1/3 114/1/3
f 135/1/6 131/1/6 130/1/6
f 114/1/2 120/1/2 117/1/2
f 136/1/6 134/1/6 132/1/6
f 134/1/6 130/1/6 129/1/6
f 129/1/2 130/1/2 120/1/2
f 126/1/3 132/1/3 129/1/3
f 147/1/6 145/1/6 144/1/6
f 144/1/2 145/1/2 142/1/2
f 147/1/4 143/1/4 142/1/4
f 156/1/6 154/1/6 153/1/6
f 153/1/2 154/1/2 151/1/2
f 156/1/4 152/1/4 151/1/4
f 166/1/6 164/1/6 163/1/6
f 163/1/2 164/1/2 161/1/2
f 166/1/4 162/1/4 161/1/4
f 157/1/2 158/1/2 147/1/2
f 168/1/4 155/1/4 153/1/4
f 161/1/6 158/1/6 157/1/6
f 153/1/4 150/1/4 148/1/4
f 147/1/2 149/1/2 148/1/2
f 168/1/6 167/1/6 161/1/6
f 167/1/6 159/1/6 158/1/6
f 158/1/2 159/1/2 149/1/2
f 167/1/4 153/1/4 149/1/4
f 175/1/6 173/1/6 172/1/6
f 175/1/5 174/1/5 170/1/5
f 170/1/3 174/1/3 172/1/3
f 184/1/6 182/1/6 181/1/6
f 184/1/5 183/1/5 179/1/5
f 179/1/3 183/1/3 181/1/3
f 193/1/6 191/1/6 190/1/6
f 193/1/5 192/1/5 188/1/5
f 188/1/3 192/1/3 190/1/3
f 175/1/3 186/1/3 185/1/3
f 196/1/5 195/1/5 181/1/5
f 176/1/3 177/1/3 175/1/3
f 196/1/6 189/1/6 188/1/6
f 181/1/5 177/1/5 176/1/5
f 188/1/6 187/1/6 185/1/6
f 195/1/6 188/1/6 186/1/6
f 195/1/5 194/1/5 177/1/5
f 177/1/3 194/1/3 186/1/3
f 203/1/6 201/1/6 200/1/6
f 203/1/5 202/1/5 198/1/5
f 203/1/4 199/1/4 197/1/4
f 210/1/6 208/1/6 207/1/6
f 210/1/5 209/1/5 205/1/5
f 210/1/4 206/1/4 204/1/4
f 219/1/6 217/1/6 216/1/6
f 219/1/5 218/1/5 214/1/5
f 219/1/4 215/1/4 213/1/4
f 221/1/4 202/1/4 200/1/4
f 223/1/5 222/1/5 207/1/5
f 223/1/6 215/1/6 214/1/6
f 212/1/4 211/1/4 198/1/4
f 212/1/5 208/1/5 204/1/5
f 221/1/6 220/1/6 213/1/6
f 224/1/6 221/1/6 215/1/6
f 224/1/5 223/1/5 208/1/5
f 224/1/4 212/1/4 202/1/4
f 115/1/2 116/1/2 20/1/2
f 21/1/3 117/1/3 115/1/3
f 122/1/2 123/1/2 27/1/2
f 28/1/3 124/1/3 122/1/3
f 113/1/2 117/1/2 21/1/2
f 27/1/3 123/1/3 113/1/3
f 141/1/2 142/1/2 46/1/2
f 143/1/4 47/1/4 46/1/4
f 150/1/2 151/1/2 55/1/2
f 152/1/4 56/1/4 55/1/4
f 143/1/2 148/1/2 49/1/2
f 150/1/4 54/1/4 49/1/4
f 171/1/5 170/1/5 74/1/5
f 74/1/3 170/1/3 169/1/3
f 180/1/5 179/1/5 83/1/5
f 83/1/3 179/1/3 178/1/3
f 178/1/5 176/1/5 77/1/5
f 77/1/3 176/1/3 171/1/3
f 199/1/5 198/1/5 102/1/5
f 199/1/4 103/1/4 101/1/4
f 206/1/5 205/1/5 109/1/5
f 206/1/4 110/1/4 108/1/4
f 211/1/5 204/1/5 108/1/5
f 211/1/4 112/1/4 102/1/4
f 25/1/1 70/1/1 69/1/1
f 69/1/3 73/1/3 28/1/3
f 9/1/1 60/1/1 59/1/1
f 59/1/3 63/1/3 12/1/3
f 12/1/1 63/1/1 57/1/1
f 57/1/3 70/1/3 25/1/3
f 173/1/6 128/1/6 127/1/6
f 169/1/3 172/1/3 127/1/3
f 191/1/6 140/1/6 139/1/6
f 187/1/3 190/1/3 139/1/3
f 187/1/6 136/1/6 133/1/6
f 173/1/3 185/1/3 133/1/3
f 35/1/1 86/1/1 85/1/1
f 89/1/4 86/1/4 35/1/4
f 53/1/1 98/1/1 97/1/1
f 101/1/4 98/1/4 53/1/4
f 40/1/1 92/1/1 89/1/1
f 97/1/4 92/1/4 40/1/4
f 217/1/6 166/1/6 165/1/6
f 217/1/4 213/1/4 162/1/4
f 201/1/6 156/1/6 155/1/6
f 201/1/4 197/1/4 152/1/4
f 220/1/6 168/1/6 162/1/6
f 220/1/4 200/1/4 155/1/4
f 32/1/1 34/1/1 9/1/1
f 11/1/2 36/1/2 32/1/2
f 41/1/1 43/1/1 18/1/1
f 20/1/2 45/1/2 41/1/2
f 29/1/1 36/1/1 11/1/1
f 18/1/2 43/1/2 29/1/2
f 85/1/1 87/1/1 62/1/1
f 90/1/5 65/1/5 62/1/5
f 104/1/1 106/1/1 81/1/1
f 109/1/5 84/1/5 81/1/5
f 90/1/1 94/1/1 68/1/1
f 104/1/5 79/1/5 68/1/5
f 146/1/6 144/1/6 119/1/6
f 119/1/2 144/1/2 141/1/2
f 165/1/6 163/1/6 138/1/6
f 138/1/2 163/1/2 160/1/2
f 160/1/6 157/1/6 131/1/6
f 131/1/2 157/1/2 146/1/2
f 209/1/6 207/1/6 182/1/6
f 209/1/5 184/1/5 180/1/5
f 218/1/6 216/1/6 191/1/6
f 218/1/5 193/1/5 189/1/5
f 222/1/6 214/1/6 189/1/6
f 222/1/5 196/1/5 182/1/5
f 34/1/1 85/1/1 60/1/1
f 216/1/6 165/1/6 140/1/6
f 116/1/2 141/1/2 45/1/2
f 205/1/5 180/1/5 84/1/5
f 73/1/3 169/1/3 124/1/3
f 197/1/4 101/1/4 56/1/4
