# Blender 3.5.0
# www.blender.org
mtllib FlowerStem.mtl
o 円柱.001
v 0.003093 0.000725 -0.003093
v 0.003093 0.007972 -0.003093
v 0.003093 0.015220 -0.003093
v 0.003093 0.022467 -0.003093
v 0.004331 0.000725 -0.001856
v 0.004331 0.007972 -0.001856
v 0.004331 0.000725 -0.000619
v 0.004331 0.007972 -0.000619
v 0.003093 0.000725 -0.001856
v 0.003093 0.007972 -0.001856
v 0.003093 0.000725 -0.000619
v 0.004331 0.015220 -0.001856
v 0.004331 0.022467 -0.001856
v 0.004331 0.015220 -0.000619
v 0.004331 0.022467 -0.000619
v 0.003093 0.015220 -0.001856
v 0.003093 0.022467 -0.001856
v 0.001856 0.000725 -0.004331
v 0.001856 0.007972 -0.004331
v 0.001856 0.000725 -0.003093
v 0.001856 0.007972 -0.003093
v 0.000619 0.000725 -0.004331
v 0.000619 0.007972 -0.004331
v 0.000619 0.000725 -0.003093
v 0.001856 0.015220 -0.004331
v 0.001856 0.022467 -0.004331
v 0.001856 0.015220 -0.003093
v 0.001856 0.022467 -0.003093
v 0.000619 0.015220 -0.004331
v 0.000619 0.022467 -0.004331
v 0.001856 0.000725 -0.001856
v 0.001856 0.000725 -0.000619
v 0.000619 0.000725 -0.001856
v 0.000619 0.000725 -0.000619
v 0.003093 0.029715 -0.003093
v 0.003093 0.036962 -0.003093
v 0.003093 0.044210 -0.003093
v 0.003093 0.051457 -0.003093
v 0.004331 0.029715 -0.001856
v 0.004331 0.036962 -0.001856
v 0.004331 0.029715 -0.000619
v 0.004331 0.036962 -0.000619
v 0.003093 0.029715 -0.001856
v 0.003093 0.036962 -0.001856
v 0.004331 0.044210 -0.001856
v 0.004331 0.051457 -0.001856
v 0.004331 0.044210 -0.000619
v 0.004331 0.051457 -0.000619
v 0.003093 0.044210 -0.001856
v 0.003093 0.051457 -0.001856
v 0.003093 0.051457 -0.000619
v 0.001856 0.029715 -0.004331
v 0.001856 0.036962 -0.004331
v 0.001856 0.029715 -0.003093
v 0.001856 0.036962 -0.003093
v 0.000619 0.029715 -0.004331
v 0.000619 0.036962 -0.004331
v 0.001856 0.044210 -0.004331
v 0.001856 0.051457 -0.004331
v 0.001856 0.044210 -0.003093
v 0.001856 0.051457 -0.003093
v 0.000619 0.044210 -0.004331
v 0.000619 0.051457 -0.004331
v 0.000619 0.051457 -0.003093
v 0.001856 0.051457 -0.001856
v 0.001856 0.051457 -0.000619
v 0.000619 0.051457 -0.001856
v 0.000619 0.051457 -0.000619
v 0.004331 0.000725 0.000619
v 0.004331 0.007972 0.000619
v 0.004331 0.000725 0.001856
v 0.004331 0.007972 0.001856
v 0.003093 0.000725 0.000619
v 0.003093 0.000725 0.001856
v 0.003093 0.007972 0.001856
v 0.004331 0.015220 0.000619
v 0.004331 0.022467 0.000619
v 0.004331 0.015220 0.001856
v 0.004331 0.022467 0.001856
v 0.003093 0.015220 0.001856
v 0.003093 0.022467 0.001856
v 0.003093 0.000725 0.003093
v 0.003093 0.007972 0.003093
v 0.003093 0.015220 0.003093
v 0.003093 0.022467 0.003093
v 0.001856 0.000725 0.000619
v 0.001856 0.000725 0.001856
v 0.000619 0.000725 0.000619
v 0.000619 0.000725 0.001856
v 0.001856 0.000725 0.003093
v 0.001856 0.007972 0.003093
v 0.001856 0.000725 0.004331
v 0.001856 0.007972 0.004331
v 0.000619 0.000725 0.003093
v 0.000619 0.000725 0.004331
v 0.000619 0.007972 0.004331
v 0.001856 0.015220 0.003093
v 0.001856 0.022467 0.003093
v 0.001856 0.015220 0.004331
v 0.001856 0.022467 0.004331
v 0.000619 0.015220 0.004331
v 0.000619 0.022467 0.004331
v 0.004331 0.029715 0.000619
v 0.004331 0.036962 0.000619
v 0.004331 0.029715 0.001856
v 0.004331 0.036962 0.001856
v 0.003093 0.029715 0.001856
v 0.003093 0.036962 0.001856
v 0.004331 0.044210 0.000619
v 0.004331 0.051457 0.000619
v 0.004331 0.044210 0.001856
v 0.004331 0.051457 0.001856
v 0.003093 0.051457 0.000619
v 0.003093 0.044210 0.001856
v 0.003093 0.051457 0.001856
v 0.003093 0.029715 0.003093
v 0.003093 0.036962 0.003093
v 0.003093 0.044210 0.003093
v 0.003093 0.051457 0.003093
v 0.001856 0.051457 0.000619
v 0.001856 0.051457 0.001856
v 0.000619 0.051457 0.000619
v 0.000619 0.051457 0.001856
v 0.001856 0.029715 0.003093
v 0.001856 0.036962 0.003093
v 0.001856 0.029715 0.004331
v 0.001856 0.036962 0.004331
v 0.000619 0.029715 0.004331
v 0.000619 0.036962 0.004331
v 0.001856 0.044210 0.003093
v 0.001856 0.051457 0.003093
v 0.001856 0.044210 0.004331
v 0.001856 0.051457 0.004331
v 0.000619 0.051457 0.003093
v 0.000619 0.044210 0.004331
v 0.000619 0.051457 0.004331
v -0.000619 0.000725 -0.004331
v -0.000619 0.007972 -0.004331
v -0.000619 0.000725 -0.003093
v -0.001856 0.000725 -0.004331
v -0.001856 0.007972 -0.004331
v -0.001856 0.000725 -0.003093
v -0.001856 0.007972 -0.003093
v -0.000619 0.015220 -0.004331
v -0.000619 0.022467 -0.004331
v -0.001856 0.015220 -0.004331
v -0.001856 0.022467 -0.004331
v -0.001856 0.015220 -0.003093
v -0.001856 0.022467 -0.003093
v -0.000619 0.000725 -0.001856
v -0.000619 0.000725 -0.000619
v -0.001856 0.000725 -0.001856
v -0.001856 0.000725 -0.000619
v -0.003093 0.000725 -0.003093
v -0.003093 0.007972 -0.003093
v -0.003093 0.015220 -0.003093
v -0.003093 0.022467 -0.003093
v -0.003093 0.000725 -0.001856
v -0.003093 0.007972 -0.001856
v -0.003093 0.000725 -0.000619
v -0.004331 0.000725 -0.001856
v -0.004331 0.007972 -0.001856
v -0.004331 0.000725 -0.000619
v -0.004331 0.007972 -0.000619
v -0.003093 0.015220 -0.001856
v -0.003093 0.022467 -0.001856
v -0.004331 0.015220 -0.001856
v -0.004331 0.022467 -0.001856
v -0.004331 0.015220 -0.000619
v -0.004331 0.022467 -0.000619
v -0.000619 0.029715 -0.004331
v -0.000619 0.036962 -0.004331
v -0.001856 0.029715 -0.004331
v -0.001856 0.036962 -0.004331
v -0.001856 0.029715 -0.003093
v -0.001856 0.036962 -0.003093
v -0.000619 0.044210 -0.004331
v -0.000619 0.051457 -0.004331
v -0.000619 0.051457 -0.003093
v -0.001856 0.044210 -0.004331
v -0.001856 0.051457 -0.004331
v -0.001856 0.044210 -0.003093
v -0.001856 0.051457 -0.003093
v -0.000619 0.051457 -0.001856
v -0.000619 0.051457 -0.000619
v -0.001856 0.051457 -0.001856
v -0.001856 0.051457 -0.000619
v -0.003093 0.029715 -0.003093
v -0.003093 0.036962 -0.003093
v -0.003093 0.044210 -0.003093
v -0.003093 0.051457 -0.003093
v -0.003093 0.029715 -0.001856
v -0.003093 0.036962 -0.001856
v -0.004331 0.029715 -0.001856
v -0.004331 0.036962 -0.001856
v -0.004331 0.029715 -0.000619
v -0.004331 0.036962 -0.000619
v -0.003093 0.044210 -0.001856
v -0.003093 0.051457 -0.001856
v -0.003093 0.051457 -0.000619
v -0.004331 0.044210 -0.001856
v -0.004331 0.051457 -0.001856
v -0.004331 0.044210 -0.000619
v -0.004331 0.051457 -0.000619
v -0.000619 0.000725 0.000619
v -0.000619 0.000725 0.001856
v -0.001856 0.000725 0.000619
v -0.001856 0.000725 0.001856
v -0.000619 0.000725 0.003093
v -0.000619 0.000725 0.004331
v -0.000619 0.007972 0.004331
v -0.001856 0.000725 0.003093
v -0.001856 0.007972 0.003093
v -0.001856 0.000725 0.004331
v -0.001856 0.007972 0.004331
v -0.000619 0.015220 0.004331
v -0.000619 0.022467 0.004331
v -0.001856 0.015220 0.003093
v -0.001856 0.022467 0.003093
v -0.001856 0.015220 0.004331
v -0.001856 0.022467 0.004331
v -0.003093 0.000725 0.000619
v -0.003093 0.000725 0.001856
v -0.003093 0.007972 0.001856
v -0.004331 0.000725 0.000619
v -0.004331 0.007972 0.000619
v -0.004331 0.000725 0.001856
v -0.004331 0.007972 0.001856
v -0.003093 0.015220 0.001856
v -0.003093 0.022467 0.001856
v -0.004331 0.015220 0.000619
v -0.004331 0.022467 0.000619
v -0.004331 0.015220 0.001856
v -0.004331 0.022467 0.001856
v -0.003093 0.000725 0.003093
v -0.003093 0.007972 0.003093
v -0.003093 0.015220 0.003093
v -0.003093 0.022467 0.003093
v -0.000619 0.051457 0.000619
v -0.000619 0.051457 0.001856
v -0.001856 0.051457 0.000619
v -0.001856 0.051457 0.001856
v -0.000619 0.029715 0.004331
v -0.000619 0.036962 0.004331
v -0.001856 0.029715 0.003093
v -0.001856 0.036962 0.003093
v -0.001856 0.029715 0.004331
v -0.001856 0.036962 0.004331
v -0.000619 0.051457 0.003093
v -0.000619 0.044210 0.004331
v -0.000619 0.051457 0.004331
v -0.001856 0.044210 0.003093
v -0.001856 0.051457 0.003093
v -0.001856 0.044210 0.004331
v -0.001856 0.051457 0.004331
v -0.003093 0.029715 0.001856
v -0.003093 0.036962 0.001856
v -0.004331 0.029715 0.000619
v -0.004331 0.036962 0.000619
v -0.004331 0.029715 0.001856
v -0.004331 0.036962 0.001856
v -0.003093 0.051457 0.000619
v -0.003093 0.044210 0.001856
v -0.003093 0.051457 0.001856
v -0.004331 0.044210 0.000619
v -0.004331 0.051457 0.000619
v -0.004331 0.044210 0.001856
v -0.004331 0.051457 0.001856
v -0.003093 0.029715 0.003093
v -0.003093 0.036962 0.003093
v -0.003093 0.044210 0.003093
v -0.003093 0.051457 0.003093
vn 1.0000 -0.0000 -0.0000
vn -0.0000 -0.0000 -1.0000
vn -0.0000 -1.0000 -0.0000
vn -0.0000 1.0000 -0.0000
vn -0.0000 -0.0000 1.0000
vn -1.0000 -0.0000 -0.0000
vt 0.000000 0.000000
s 0
f 6/1/1 7/1/1 5/1/1
f 9/1/2 6/1/2 5/1/2
f 7/1/3 9/1/3 5/1/3
f 13/1/1 14/1/1 12/1/1
f 16/1/2 13/1/2 12/1/2
f 19/1/1 20/1/1 18/1/1
f 22/1/2 19/1/2 18/1/2
f 20/1/3 22/1/3 18/1/3
f 26/1/1 27/1/1 25/1/1
f 29/1/2 26/1/2 25/1/2
f 32/1/3 33/1/3 31/1/3
f 20/1/2 2/1/2 1/1/2
f 27/1/2 4/1/2 3/1/2
f 11/1/3 31/1/3 9/1/3
f 2/1/1 9/1/1 1/1/1
f 31/1/3 24/1/3 20/1/3
f 4/1/1 16/1/1 3/1/1
f 12/1/1 8/1/1 6/1/1
f 10/1/2 12/1/2 6/1/2
f 25/1/1 21/1/1 19/1/1
f 23/1/2 25/1/2 19/1/2
f 3/1/1 10/1/1 2/1/1
f 21/1/2 3/1/2 2/1/2
f 9/1/3 20/1/3 1/1/3
f 40/1/1 41/1/1 39/1/1
f 43/1/2 40/1/2 39/1/2
f 46/1/1 47/1/1 45/1/1
f 49/1/2 46/1/2 45/1/2
f 51/1/4 46/1/4 50/1/4
f 53/1/1 54/1/1 52/1/1
f 56/1/2 53/1/2 52/1/2
f 59/1/1 60/1/1 58/1/1
f 62/1/2 59/1/2 58/1/2
f 64/1/4 59/1/4 63/1/4
f 68/1/4 65/1/4 67/1/4
f 54/1/2 36/1/2 35/1/2
f 60/1/2 38/1/2 37/1/2
f 66/1/4 50/1/4 65/1/4
f 36/1/1 43/1/1 35/1/1
f 38/1/1 49/1/1 37/1/1
f 67/1/4 61/1/4 64/1/4
f 45/1/1 42/1/1 40/1/1
f 44/1/2 45/1/2 40/1/2
f 58/1/1 55/1/1 53/1/1
f 57/1/2 58/1/2 53/1/2
f 37/1/1 44/1/1 36/1/1
f 55/1/2 37/1/2 36/1/2
f 65/1/4 38/1/4 61/1/4
f 70/1/1 71/1/1 69/1/1
f 75/1/5 71/1/5 72/1/5
f 71/1/3 73/1/3 69/1/3
f 77/1/1 78/1/1 76/1/1
f 81/1/5 78/1/5 79/1/5
f 87/1/3 88/1/3 86/1/3
f 91/1/1 92/1/1 90/1/1
f 96/1/5 92/1/5 93/1/5
f 92/1/3 94/1/3 90/1/3
f 98/1/1 99/1/1 97/1/1
f 102/1/5 99/1/5 100/1/5
f 74/1/3 86/1/3 73/1/3
f 91/1/5 82/1/5 83/1/5
f 98/1/5 84/1/5 85/1/5
f 75/1/1 82/1/1 74/1/1
f 90/1/3 89/1/3 87/1/3
f 81/1/1 84/1/1 80/1/1
f 76/1/1 72/1/1 70/1/1
f 80/1/5 72/1/5 78/1/5
f 97/1/1 93/1/1 91/1/1
f 101/1/5 93/1/5 99/1/5
f 80/1/1 83/1/1 75/1/1
f 97/1/5 83/1/5 84/1/5
f 82/1/3 87/1/3 74/1/3
f 104/1/1 105/1/1 103/1/1
f 108/1/5 105/1/5 106/1/5
f 110/1/1 111/1/1 109/1/1
f 115/1/5 111/1/5 112/1/5
f 115/1/4 110/1/4 113/1/4
f 123/1/4 120/1/4 122/1/4
f 125/1/1 126/1/1 124/1/1
f 129/1/5 126/1/5 127/1/5
f 131/1/1 132/1/1 130/1/1
f 136/1/5 132/1/5 133/1/5
f 136/1/4 131/1/4 134/1/4
f 121/1/4 113/1/4 120/1/4
f 125/1/5 116/1/5 117/1/5
f 131/1/5 118/1/5 119/1/5
f 108/1/1 116/1/1 107/1/1
f 115/1/1 118/1/1 114/1/1
f 134/1/4 121/1/4 123/1/4
f 109/1/1 106/1/1 104/1/1
f 114/1/5 106/1/5 111/1/5
f 130/1/1 127/1/1 125/1/1
f 135/1/5 127/1/5 132/1/5
f 114/1/1 117/1/1 108/1/1
f 130/1/5 117/1/5 118/1/5
f 131/1/4 115/1/4 121/1/4
f 143/1/6 140/1/6 142/1/6
f 140/1/2 138/1/2 137/1/2
f 139/1/3 140/1/3 137/1/3
f 149/1/6 146/1/6 148/1/6
f 146/1/2 145/1/2 144/1/2
f 151/1/3 152/1/3 150/1/3
f 164/1/6 161/1/6 163/1/6
f 161/1/2 159/1/2 158/1/2
f 160/1/3 161/1/3 158/1/3
f 170/1/6 167/1/6 169/1/6
f 167/1/2 166/1/2 165/1/2
f 154/1/2 143/1/2 142/1/2
f 156/1/2 149/1/2 148/1/2
f 153/1/3 158/1/3 152/1/3
f 150/1/3 142/1/3 139/1/3
f 159/1/6 154/1/6 158/1/6
f 166/1/6 156/1/6 165/1/6
f 148/1/6 141/1/6 143/1/6
f 141/1/2 144/1/2 138/1/2
f 169/1/6 162/1/6 164/1/6
f 162/1/2 165/1/2 159/1/2
f 165/1/6 155/1/6 159/1/6
f 155/1/2 148/1/2 143/1/2
f 152/1/3 154/1/3 142/1/3
f 176/1/6 173/1/6 175/1/6
f 173/1/2 172/1/2 171/1/2
f 183/1/6 180/1/6 182/1/6
f 180/1/2 178/1/2 177/1/2
f 183/1/4 178/1/4 181/1/4
f 187/1/4 184/1/4 186/1/4
f 197/1/6 194/1/6 196/1/6
f 194/1/2 193/1/2 192/1/2
f 204/1/6 201/1/6 203/1/6
f 201/1/2 199/1/2 198/1/2
f 204/1/4 199/1/4 202/1/4
f 188/1/2 176/1/2 175/1/2
f 190/1/2 183/1/2 182/1/2
f 200/1/4 186/1/4 199/1/4
f 193/1/6 188/1/6 192/1/6
f 186/1/4 179/1/4 183/1/4
f 199/1/6 190/1/6 198/1/6
f 182/1/6 174/1/6 176/1/6
f 174/1/2 177/1/2 172/1/2
f 203/1/6 195/1/6 197/1/6
f 195/1/2 198/1/2 193/1/2
f 198/1/6 189/1/6 193/1/6
f 189/1/2 182/1/2 176/1/2
f 199/1/4 183/1/4 191/1/4
f 206/1/3 207/1/3 205/1/3
f 215/1/6 212/1/6 214/1/6
f 215/1/5 210/1/5 211/1/5
f 210/1/3 212/1/3 209/1/3
f 221/1/6 218/1/6 220/1/6
f 221/1/5 216/1/5 217/1/5
f 228/1/6 225/1/6 227/1/6
f 228/1/5 223/1/5 224/1/5
f 223/1/3 225/1/3 222/1/3
f 234/1/6 231/1/6 233/1/6
f 234/1/5 229/1/5 230/1/5
f 208/1/3 222/1/3 207/1/3
f 236/1/5 212/1/5 213/1/5
f 238/1/5 218/1/5 219/1/5
f 209/1/3 208/1/3 206/1/3
f 236/1/6 223/1/6 235/1/6
f 238/1/6 229/1/6 237/1/6
f 220/1/6 213/1/6 215/1/6
f 220/1/5 211/1/5 216/1/5
f 233/1/6 226/1/6 228/1/6
f 233/1/5 224/1/5 229/1/5
f 237/1/6 224/1/6 236/1/6
f 237/1/5 213/1/5 218/1/5
f 212/1/3 223/1/3 208/1/3
f 242/1/4 239/1/4 241/1/4
f 248/1/6 245/1/6 247/1/6
f 248/1/5 243/1/5 244/1/5
f 255/1/6 252/1/6 254/1/6
f 255/1/5 250/1/5 251/1/5
f 255/1/4 249/1/4 253/1/4
f 261/1/6 258/1/6 260/1/6
f 261/1/5 256/1/5 257/1/5
f 268/1/6 265/1/6 267/1/6
f 268/1/5 263/1/5 264/1/5
f 268/1/4 262/1/4 266/1/4
f 264/1/4 241/1/4 262/1/4
f 270/1/5 245/1/5 246/1/5
f 272/1/5 252/1/5 253/1/5
f 270/1/6 256/1/6 269/1/6
f 253/1/4 240/1/4 242/1/4
f 272/1/6 263/1/6 271/1/6
f 254/1/6 246/1/6 248/1/6
f 254/1/5 244/1/5 250/1/5
f 267/1/6 259/1/6 261/1/6
f 267/1/5 257/1/5 263/1/5
f 271/1/6 257/1/6 270/1/6
f 271/1/5 246/1/5 252/1/5
f 272/1/4 242/1/4 264/1/4
f 137/1/2 23/1/2 22/1/2
f 24/1/3 137/1/3 22/1/3
f 144/1/2 30/1/2 29/1/2
f 34/1/3 150/1/3 33/1/3
f 138/1/2 29/1/2 23/1/2
f 33/1/3 139/1/3 24/1/3
f 171/1/2 57/1/2 56/1/2
f 177/1/2 63/1/2 62/1/2
f 179/1/4 63/1/4 178/1/4
f 185/1/4 67/1/4 184/1/4
f 172/1/2 62/1/2 57/1/2
f 184/1/4 64/1/4 179/1/4
f 89/1/3 205/1/3 88/1/3
f 211/1/5 95/1/5 96/1/5
f 95/1/3 209/1/3 94/1/3
f 217/1/5 101/1/5 102/1/5
f 216/1/5 96/1/5 101/1/5
f 94/1/3 206/1/3 89/1/3
f 240/1/4 122/1/4 239/1/4
f 244/1/5 128/1/5 129/1/5
f 251/1/5 135/1/5 136/1/5
f 251/1/4 134/1/4 249/1/4
f 250/1/5 129/1/5 135/1/5
f 249/1/4 123/1/4 240/1/4
f 8/1/1 69/1/1 7/1/1
f 69/1/3 11/1/3 7/1/3
f 86/1/3 34/1/3 32/1/3
f 15/1/1 76/1/1 14/1/1
f 14/1/1 70/1/1 8/1/1
f 73/1/3 32/1/3 11/1/3
f 205/1/3 153/1/3 151/1/3
f 226/1/6 163/1/6 225/1/6
f 222/1/3 163/1/3 160/1/3
f 232/1/6 169/1/6 231/1/6
f 231/1/6 164/1/6 226/1/6
f 207/1/3 160/1/3 153/1/3
f 42/1/1 103/1/1 41/1/1
f 48/1/1 109/1/1 47/1/1
f 113/1/4 48/1/4 51/1/4
f 122/1/4 66/1/4 68/1/4
f 47/1/1 104/1/1 42/1/1
f 120/1/4 51/1/4 66/1/4
f 259/1/6 196/1/6 258/1/6
f 241/1/4 185/1/4 187/1/4
f 266/1/6 203/1/6 265/1/6
f 266/1/4 200/1/4 204/1/4
f 265/1/6 197/1/6 259/1/6
f 262/1/4 187/1/4 200/1/4
f 39/1/1 15/1/1 13/1/1
f 17/1/2 39/1/2 13/1/2
f 52/1/1 28/1/1 26/1/1
f 30/1/2 52/1/2 26/1/2
f 35/1/1 17/1/1 4/1/1
f 28/1/2 35/1/2 4/1/2
f 103/1/1 79/1/1 77/1/1
f 107/1/5 79/1/5 105/1/5
f 124/1/1 100/1/1 98/1/1
f 128/1/5 100/1/5 126/1/5
f 107/1/1 85/1/1 81/1/1
f 124/1/5 85/1/5 116/1/5
f 175/1/6 147/1/6 149/1/6
f 147/1/2 171/1/2 145/1/2
f 196/1/6 168/1/6 170/1/6
f 168/1/2 192/1/2 166/1/2
f 192/1/6 157/1/6 166/1/6
f 157/1/2 175/1/2 149/1/2
f 247/1/6 219/1/6 221/1/6
f 247/1/5 217/1/5 243/1/5
f 260/1/6 232/1/6 234/1/6
f 260/1/5 230/1/5 256/1/5
f 269/1/6 230/1/6 238/1/6
f 269/1/5 219/1/5 245/1/5
f 41/1/1 77/1/1 15/1/1
f 258/1/6 170/1/6 232/1/6
f 145/1/2 56/1/2 30/1/2
f 243/1/5 102/1/5 128/1/5
f 88/1/3 151/1/3 34/1/3
f 239/1/4 68/1/4 185/1/4
f 6/1/1 8/1/1 7/1/1
f 9/1/2 10/1/2 6/1/2
f 7/1/3 11/1/3 9/1/3
f 13/1/1 15/1/1 14/1/1
f 16/1/2 17/1/2 13/1/2
f 19/1/1 21/1/1 20/1/1
f 22/1/2 23/1/2 19/1/2
f 20/1/3 24/1/3 22/1/3
f 26/1/1 28/1/1 27/1/1
f 29/1/2 30/1/2 26/1/2
f 32/1/3 34/1/3 33/1/3
f 20/1/2 21/1/2 2/1/2
f 27/1/2 28/1/2 4/1/2
f 11/1/3 32/1/3 31/1/3
f 2/1/1 10/1/1 9/1/1
f 31/1/3 33/1/3 24/1/3
f 4/1/1 17/1/1 16/1/1
f 12/1/1 14/1/1 8/1/1
f 10/1/2 16/1/2 12/1/2
f 25/1/1 27/1/1 21/1/1
f 23/1/2 29/1/2 25/1/2
f 3/1/1 16/1/1 10/1/1
f 21/1/2 27/1/2 3/1/2
f 9/1/3 31/1/3 20/1/3
f 40/1/1 42/1/1 41/1/1
f 43/1/2 44/1/2 40/1/2
f 46/1/1 48/1/1 47/1/1
f 49/1/2 50/1/2 46/1/2
f 51/1/4 48/1/4 46/1/4
f 53/1/1 55/1/1 54/1/1
f 56/1/2 57/1/2 53/1/2
f 59/1/1 61/1/1 60/1/1
f 62/1/2 63/1/2 59/1/2
f 64/1/4 61/1/4 59/1/4
f 68/1/4 66/1/4 65/1/4
f 54/1/2 55/1/2 36/1/2
f 60/1/2 61/1/2 38/1/2
f 66/1/4 51/1/4 50/1/4
f 36/1/1 44/1/1 43/1/1
f 38/1/1 50/1/1 49/1/1
f 67/1/4 65/1/4 61/1/4
f 45/1/1 47/1/1 42/1/1
f 44/1/2 49/1/2 45/1/2
f 58/1/1 60/1/1 55/1/1
f 57/1/2 62/1/2 58/1/2
f 37/1/1 49/1/1 44/1/1
f 55/1/2 60/1/2 37/1/2
f 65/1/4 50/1/4 38/1/4
f 70/1/1 72/1/1 71/1/1
f 75/1/5 74/1/5 71/1/5
f 71/1/3 74/1/3 73/1/3
f 77/1/1 79/1/1 78/1/1
f 81/1/5 80/1/5 78/1/5
f 87/1/3 89/1/3 88/1/3
f 91/1/1 93/1/1 92/1/1
f 96/1/5 95/1/5 92/1/5
f 92/1/3 95/1/3 94/1/3
f 98/1/1 100/1/1 99/1/1
f 102/1/5 101/1/5 99/1/5
f 74/1/3 87/1/3 86/1/3
f 91/1/5 90/1/5 82/1/5
f 98/1/5 97/1/5 84/1/5
f 75/1/1 83/1/1 82/1/1
f 90/1/3 94/1/3 89/1/3
f 81/1/1 85/1/1 84/1/1
f 76/1/1 78/1/1 72/1/1
f 80/1/5 75/1/5 72/1/5
f 97/1/1 99/1/1 93/1/1
f 101/1/5 96/1/5 93/1/5
f 80/1/1 84/1/1 83/1/1
f 97/1/5 91/1/5 83/1/5
f 82/1/3 90/1/3 87/1/3
f 104/1/1 106/1/1 105/1/1
f 108/1/5 107/1/5 105/1/5
f 110/1/1 112/1/1 111/1/1
f 115/1/5 114/1/5 111/1/5
f 115/1/4 112/1/4 110/1/4
f 123/1/4 121/1/4 120/1/4
f 125/1/1 127/1/1 126/1/1
f 129/1/5 128/1/5 126/1/5
f 131/1/1 133/1/1 132/1/1
f 136/1/5 135/1/5 132/1/5
f 136/1/4 133/1/4 131/1/4
f 121/1/4 115/1/4 113/1/4
f 125/1/5 124/1/5 116/1/5
f 131/1/5 130/1/5 118/1/5
f 108/1/1 117/1/1 116/1/1
f 115/1/1 119/1/1 118/1/1
f 134/1/4 131/1/4 121/1/4
f 109/1/1 111/1/1 106/1/1
f 114/1/5 108/1/5 106/1/5
f 130/1/1 132/1/1 127/1/1
f 135/1/5 129/1/5 127/1/5
f 114/1/1 118/1/1 117/1/1
f 130/1/5 125/1/5 117/1/5
f 131/1/4 119/1/4 115/1/4
f 143/1/6 141/1/6 140/1/6
f 140/1/2 141/1/2 138/1/2
f 139/1/3 142/1/3 140/1/3
f 149/1/6 147/1/6 146/1/6
f 146/1/2 147/1/2 145/1/2
f 151/1/3 153/1/3 152/1/3
f 164/1/6 162/1/6 161/1/6
f 161/1/2 162/1/2 159/1/2
f 160/1/3 163/1/3 161/1/3
f 170/1/6 168/1/6 167/1/6
f 167/1/2 168/1/2 166/1/2
f 154/1/2 155/1/2 143/1/2
f 156/1/2 157/1/2 149/1/2
f 153/1/3 160/1/3 158/1/3
f 150/1/3 152/1/3 142/1/3
f 159/1/6 155/1/6 154/1/6
f 166/1/6 157/1/6 156/1/6
f 148/1/6 146/1/6 141/1/6
f 141/1/2 146/1/2 144/1/2
f 169/1/6 167/1/6 162/1/6
f 162/1/2 167/1/2 165/1/2
f 165/1/6 156/1/6 155/1/6
f 155/1/2 156/1/2 148/1/2
f 152/1/3 158/1/3 154/1/3
f 176/1/6 174/1/6 173/1/6
f 173/1/2 174/1/2 172/1/2
f 183/1/6 181/1/6 180/1/6
f 180/1/2 181/1/2 178/1/2
f 183/1/4 179/1/4 178/1/4
f 187/1/4 185/1/4 184/1/4
f 197/1/6 195/1/6 194/1/6
f 194/1/2 195/1/2 193/1/2
f 204/1/6 202/1/6 201/1/6
f 201/1/2 202/1/2 199/1/2
f 204/1/4 200/1/4 199/1/4
f 188/1/2 189/1/2 176/1/2
f 190/1/2 191/1/2 183/1/2
f 200/1/4 187/1/4 186/1/4
f 193/1/6 189/1/6 188/1/6
f 186/1/4 184/1/4 179/1/4
f 199/1/6 191/1/6 190/1/6
f 182/1/6 180/1/6 174/1/6
f 174/1/2 180/1/2 177/1/2
f 203/1/6 201/1/6 195/1/6
f 195/1/2 201/1/2 198/1/2
f 198/1/6 190/1/6 189/1/6
f 189/1/2 190/1/2 182/1/2
f 199/1/4 186/1/4 183/1/4
f 206/1/3 208/1/3 207/1/3
f 215/1/6 213/1/6 212/1/6
f 215/1/5 214/1/5 210/1/5
f 210/1/3 214/1/3 212/1/3
f 221/1/6 219/1/6 218/1/6
f 221/1/5 220/1/5 216/1/5
f 228/1/6 226/1/6 225/1/6
f 228/1/5 227/1/5 223/1/5
f 223/1/3 227/1/3 225/1/3
f 234/1/6 232/1/6 231/1/6
f 234/1/5 233/1/5 229/1/5
f 208/1/3 223/1/3 222/1/3
f 236/1/5 235/1/5 212/1/5
f 238/1/5 237/1/5 218/1/5
f 209/1/3 212/1/3 208/1/3
f 236/1/6 224/1/6 223/1/6
f 238/1/6 230/1/6 229/1/6
f 220/1/6 218/1/6 213/1/6
f 220/1/5 215/1/5 211/1/5
f 233/1/6 231/1/6 226/1/6
f 233/1/5 228/1/5 224/1/5
f 237/1/6 229/1/6 224/1/6
f 237/1/5 236/1/5 213/1/5
f 212/1/3 235/1/3 223/1/3
f 242/1/4 240/1/4 239/1/4
f 248/1/6 246/1/6 245/1/6
f 248/1/5 247/1/5 243/1/5
f 255/1/6 253/1/6 252/1/6
f 255/1/5 254/1/5 250/1/5
f 255/1/4 251/1/4 249/1/4
f 261/1/6 259/1/6 258/1/6
f 261/1/5 260/1/5 256/1/5
f 268/1/6 266/1/6 265/1/6
f 268/1/5 267/1/5 263/1/5
f 268/1/4 264/1/4 262/1/4
f 264/1/4 242/1/4 241/1/4
f 270/1/5 269/1/5 245/1/5
f 272/1/5 271/1/5 252/1/5
f 270/1/6 257/1/6 256/1/6
f 253/1/4 249/1/4 240/1/4
f 272/1/6 264/1/6 263/1/6
f 254/1/6 252/1/6 246/1/6
f 254/1/5 248/1/5 244/1/5
f 267/1/6 265/1/6 259/1/6
f 267/1/5 261/1/5 257/1/5
f 271/1/6 263/1/6 257/1/6
f 271/1/5 270/1/5 246/1/5
f 272/1/4 253/1/4 242/1/4
f 137/1/2 138/1/2 23/1/2
f 24/1/3 139/1/3 137/1/3
f 144/1/2 145/1/2 30/1/2
f 34/1/3 151/1/3 150/1/3
f 138/1/2 144/1/2 29/1/2
f 33/1/3 150/1/3 139/1/3
f 171/1/2 172/1/2 57/1/2
f 177/1/2 178/1/2 63/1/2
f 179/1/4 64/1/4 63/1/4
f 185/1/4 68/1/4 67/1/4
f 172/1/2 177/1/2 62/1/2
f 184/1/4 67/1/4 64/1/4
f 89/1/3 206/1/3 205/1/3
f 211/1/5 210/1/5 95/1/5
f 95/1/3 210/1/3 209/1/3
f 217/1/5 216/1/5 101/1/5
f 216/1/5 211/1/5 96/1/5
f 94/1/3 209/1/3 206/1/3
f 240/1/4 123/1/4 122/1/4
f 244/1/5 243/1/5 128/1/5
f 251/1/5 250/1/5 135/1/5
f 251/1/4 136/1/4 134/1/4
f 250/1/5 244/1/5 129/1/5
f 249/1/4 134/1/4 123/1/4
f 8/1/1 70/1/1 69/1/1
f 69/1/3 73/1/3 11/1/3
f 86/1/3 88/1/3 34/1/3
f 15/1/1 77/1/1 76/1/1
f 14/1/1 76/1/1 70/1/1
f 73/1/3 86/1/3 32/1/3
f 205/1/3 207/1/3 153/1/3
f 226/1/6 164/1/6 163/1/6
f 222/1/3 225/1/3 163/1/3
f 232/1/6 170/1/6 169/1/6
f 231/1/6 169/1/6 164/1/6
f 207/1/3 222/1/3 160/1/3
f 42/1/1 104/1/1 103/1/1
f 48/1/1 110/1/1 109/1/1
f 113/1/4 110/1/4 48/1/4
f 122/1/4 120/1/4 66/1/4
f 47/1/1 109/1/1 104/1/1
f 120/1/4 113/1/4 51/1/4
f 259/1/6 197/1/6 196/1/6
f 241/1/4 239/1/4 185/1/4
f 266/1/6 204/1/6 203/1/6
f 266/1/4 262/1/4 200/1/4
f 265/1/6 203/1/6 197/1/6
f 262/1/4 241/1/4 187/1/4
f 39/1/1 41/1/1 15/1/1
f 17/1/2 43/1/2 39/1/2
f 52/1/1 54/1/1 28/1/1
f 30/1/2 56/1/2 52/1/2
f 35/1/1 43/1/1 17/1/1
f 28/1/2 54/1/2 35/1/2
f 103/1/1 105/1/1 79/1/1
f 107/1/5 81/1/5 79/1/5
f 124/1/1 126/1/1 100/1/1
f 128/1/5 102/1/5 100/1/5
f 107/1/1 116/1/1 85/1/1
f 124/1/5 98/1/5 85/1/5
f 175/1/6 173/1/6 147/1/6
f 147/1/2 173/1/2 171/1/2
f 196/1/6 194/1/6 168/1/6
f 168/1/2 194/1/2 192/1/2
f 192/1/6 188/1/6 157/1/6
f 157/1/2 188/1/2 175/1/2
f 247/1/6 245/1/6 219/1/6
f 247/1/5 221/1/5 217/1/5
f 260/1/6 258/1/6 232/1/6
f 260/1/5 234/1/5 230/1/5
f 269/1/6 256/1/6 230/1/6
f 269/1/5 238/1/5 219/1/5
f 41/1/1 103/1/1 77/1/1
f 258/1/6 196/1/6 170/1/6
f 145/1/2 171/1/2 56/1/2
f 243/1/5 217/1/5 102/1/5
f 88/1/3 205/1/3 151/1/3
f 239/1/4 122/1/4 68/1/4
