# Blender 3.5.0
# www.blender.org
mtllib Flower.mtl
o 円錐.002
v -0.021732 0.027576 -0.021732
v -0.021732 0.023642 -0.021732
v -0.030424 0.027576 -0.013039
v -0.030424 0.023642 -0.013039
v -0.030424 0.027576 -0.004346
v -0.030424 0.023642 -0.004346
v -0.021732 0.027576 -0.013039
v -0.021732 0.023642 -0.013039
v -0.021732 0.027576 -0.004346
v -0.021732 0.023642 -0.004346
v -0.021732 0.019709 -0.013039
v -0.020542 0.024175 -0.012325
v -0.021732 0.015776 -0.013039
v -0.020542 0.020457 -0.012325
v -0.021732 0.019709 -0.004346
v -0.020542 0.024175 -0.004108
v -0.021732 0.015776 -0.004346
v -0.020542 0.020457 -0.004108
v -0.013039 0.027576 -0.030424
v -0.013039 0.023642 -0.030424
v -0.013039 0.027576 -0.021732
v -0.013039 0.023642 -0.021732
v -0.004346 0.027576 -0.030424
v -0.004346 0.023642 -0.030424
v -0.004346 0.027576 -0.021732
v -0.004346 0.023642 -0.021732
v -0.013039 0.019709 -0.021732
v -0.012325 0.024175 -0.020542
v -0.013039 0.015776 -0.021732
v -0.012325 0.020457 -0.020542
v -0.004346 0.019709 -0.021732
v -0.004108 0.024175 -0.020542
v -0.004108 0.020457 -0.020542
v -0.004346 0.015776 -0.021732
v -0.013039 0.027576 -0.013039
v -0.013039 0.023642 -0.013039
v -0.012325 0.024175 -0.012325
v -0.013039 0.019709 -0.013039
v -0.012325 0.020457 -0.012325
v -0.013039 0.015776 -0.013039
v -0.013039 0.015776 -0.004346
v -0.012325 0.020457 -0.004108
v -0.004346 0.015776 -0.013039
v -0.004108 0.020457 -0.012325
v -0.013039 0.011843 -0.013039
v -0.012325 0.016739 -0.012325
v -0.013039 0.011843 -0.004346
v -0.012325 0.016739 -0.004108
v -0.013039 0.007909 -0.004346
v -0.012325 0.013021 -0.004108
v -0.004346 0.011843 -0.013039
v -0.004108 0.016739 -0.012325
v -0.004346 0.007909 -0.013039
v -0.004108 0.013021 -0.012325
v -0.004346 0.011843 -0.004346
v -0.004108 0.016739 -0.004108
v -0.004346 0.007909 -0.004346
v -0.004108 0.013021 -0.004108
v -0.004346 0.003976 -0.004346
v -0.004108 0.009303 -0.004108
v -0.004346 0.000043 -0.004346
v -0.004108 0.005585 -0.004108
v -0.030424 0.027576 0.004346
v -0.030424 0.023642 0.004346
v -0.030424 0.027576 0.013039
v -0.030424 0.023642 0.013039
v -0.021732 0.027576 0.004346
v -0.021732 0.023642 0.004346
v -0.021732 0.027576 0.013039
v -0.021732 0.023642 0.013039
v -0.021732 0.019709 0.004346
v -0.020542 0.024175 0.004108
v -0.021732 0.015776 0.004346
v -0.020542 0.020457 0.004108
v -0.021732 0.019709 0.013039
v -0.020542 0.024175 0.012325
v -0.021732 0.015776 0.013039
v -0.020542 0.020457 0.012325
v -0.021732 0.027576 0.021732
v -0.021732 0.023642 0.021732
v -0.013039 0.027576 0.013039
v -0.013039 0.023642 0.013039
v -0.013039 0.015776 0.004346
v -0.012325 0.020457 0.004108
v -0.012325 0.024175 0.012325
v -0.013039 0.019709 0.013039
v -0.012325 0.020457 0.012325
v -0.013039 0.015776 0.013039
v -0.004108 0.020457 0.012325
v -0.004346 0.015776 0.013039
v -0.013039 0.027576 0.021732
v -0.013039 0.023642 0.021732
v -0.013039 0.027576 0.030424
v -0.013039 0.023642 0.030424
v -0.004346 0.027576 0.021732
v -0.004346 0.023642 0.021732
v -0.004346 0.027576 0.030424
v -0.004346 0.023642 0.030424
v -0.013039 0.019709 0.021732
v -0.012325 0.024175 0.020542
v -0.013039 0.015776 0.021732
v -0.012325 0.020457 0.020542
v -0.004346 0.019709 0.021732
v -0.004108 0.024175 0.020542
v -0.004108 0.020457 0.020542
v -0.004346 0.015776 0.021732
v -0.013039 0.011843 0.004346
v -0.012325 0.016739 0.004108
v -0.013039 0.007909 0.004346
v -0.012325 0.013021 0.004108
v -0.012325 0.016739 0.012325
v -0.013039 0.011843 0.013039
v -0.004346 0.011843 0.004346
v -0.004108 0.016739 0.004108
v -0.004346 0.007909 0.004346
v -0.004108 0.013021 0.004108
v -0.004108 0.016739 0.012325
v -0.004346 0.011843 0.013039
v -0.004108 0.013021 0.012325
v -0.004346 0.007909 0.013039
v -0.004108 0.009303 0.004108
v -0.004346 0.003976 0.004346
v -0.004346 0.000043 0.004346
v -0.004108 0.005585 0.004108
v 0.004346 0.027576 -0.030424
v 0.004346 0.023642 -0.030424
v 0.004346 0.027576 -0.021732
v 0.004346 0.023642 -0.021732
v 0.013039 0.027576 -0.030424
v 0.013039 0.023642 -0.030424
v 0.013039 0.027576 -0.021732
v 0.013039 0.023642 -0.021732
v 0.004346 0.019709 -0.021732
v 0.004108 0.024175 -0.020542
v 0.004346 0.015776 -0.021732
v 0.004108 0.020457 -0.020542
v 0.013039 0.019709 -0.021732
v 0.012325 0.024175 -0.020542
v 0.013039 0.015776 -0.021732
v 0.012325 0.020457 -0.020542
v 0.013039 0.027576 -0.013039
v 0.013039 0.023642 -0.013039
v 0.004108 0.020457 -0.012325
v 0.004346 0.015776 -0.013039
v 0.012325 0.024175 -0.012325
v 0.013039 0.019709 -0.013039
v 0.013039 0.015776 -0.013039
v 0.012325 0.020457 -0.012325
v 0.012325 0.020457 -0.004108
v 0.013039 0.015776 -0.004346
v 0.021732 0.027576 -0.021732
v 0.021732 0.023642 -0.021732
v 0.021732 0.027576 -0.013039
v 0.021732 0.023642 -0.013039
v 0.021732 0.027576 -0.004346
v 0.021732 0.023642 -0.004346
v 0.030424 0.027576 -0.013039
v 0.030424 0.023642 -0.013039
v 0.030424 0.027576 -0.004346
v 0.030424 0.023642 -0.004346
v 0.020542 0.024175 -0.012325
v 0.021732 0.019709 -0.013039
v 0.020542 0.020457 -0.012325
v 0.021732 0.015776 -0.013039
v 0.021732 0.019709 -0.004346
v 0.020542 0.024175 -0.004108
v 0.020542 0.020457 -0.004108
v 0.021732 0.015776 -0.004346
v 0.004108 0.016739 -0.012325
v 0.004346 0.011843 -0.013039
v 0.004346 0.007909 -0.013039
v 0.004108 0.013021 -0.012325
v 0.004108 0.016739 -0.004108
v 0.004346 0.011843 -0.004346
v 0.004346 0.007909 -0.004346
v 0.004108 0.013021 -0.004108
v 0.013039 0.011843 -0.013039
v 0.012325 0.016739 -0.012325
v 0.013039 0.011843 -0.004346
v 0.012325 0.016739 -0.004108
v 0.013039 0.007909 -0.004346
v 0.012325 0.013021 -0.004108
v 0.004108 0.009303 -0.004108
v 0.004346 0.003976 -0.004346
v 0.004108 0.005585 -0.004108
v 0.004346 0.000043 -0.004346
v 0.013039 0.027576 0.013039
v 0.013039 0.023642 0.013039
v 0.004346 0.015776 0.013039
v 0.004108 0.020457 0.012325
v 0.012325 0.020457 0.004108
v 0.013039 0.015776 0.004346
v 0.012325 0.024175 0.012325
v 0.013039 0.019709 0.013039
v 0.012325 0.020457 0.012325
v 0.013039 0.015776 0.013039
v 0.004346 0.027576 0.021732
v 0.004346 0.023642 0.021732
v 0.004346 0.027576 0.030424
v 0.004346 0.023642 0.030424
v 0.013039 0.027576 0.021732
v 0.013039 0.023642 0.021732
v 0.013039 0.027576 0.030424
v 0.013039 0.023642 0.030424
v 0.004346 0.019709 0.021732
v 0.004108 0.024175 0.020542
v 0.004346 0.015776 0.021732
v 0.004108 0.020457 0.020542
v 0.013039 0.019709 0.021732
v 0.012325 0.024175 0.020542
v 0.013039 0.015776 0.021732
v 0.012325 0.020457 0.020542
v 0.021732 0.027576 0.004346
v 0.021732 0.023642 0.004346
v 0.021732 0.027576 0.013039
v 0.021732 0.023642 0.013039
v 0.030424 0.027576 0.004346
v 0.030424 0.023642 0.004346
v 0.030424 0.027576 0.013039
v 0.030424 0.023642 0.013039
v 0.021732 0.019709 0.004346
v 0.020542 0.024175 0.004108
v 0.021732 0.015776 0.004346
v 0.020542 0.020457 0.004108
v 0.021732 0.019709 0.013039
v 0.020542 0.024175 0.012325
v 0.021732 0.015776 0.013039
v 0.020542 0.020457 0.012325
v 0.021732 0.027576 0.021732
v 0.021732 0.023642 0.021732
v 0.004346 0.011843 0.004346
v 0.004108 0.016739 0.004108
v 0.004346 0.007909 0.004346
v 0.004108 0.013021 0.004108
v 0.004108 0.016739 0.012325
v 0.004346 0.011843 0.013039
v 0.004108 0.013021 0.012325
v 0.004346 0.007909 0.013039
v 0.012325 0.016739 0.004108
v 0.013039 0.011843 0.004346
v 0.013039 0.007909 0.004346
v 0.012325 0.013021 0.004108
v 0.012325 0.016739 0.012325
v 0.013039 0.011843 0.013039
v 0.004346 0.003976 0.004346
v 0.004108 0.009303 0.004108
v 0.004346 0.000043 0.004346
v 0.004108 0.005585 0.004108
v -0.012325 0.027576 -0.012325
v -0.013039 0.027576 -0.012325
v -0.012325 0.027576 -0.013039
v -0.020542 0.027576 -0.004346
v -0.020542 0.027576 -0.012325
v -0.012325 0.027576 -0.020542
v -0.004346 0.027576 -0.020542
v -0.013039 0.027576 0.012325
v -0.012325 0.027576 0.012325
v -0.012325 0.027576 0.013039
v -0.020542 0.027576 0.012325
v -0.020542 0.027576 0.004346
v -0.012325 0.027576 0.020542
v -0.004346 0.027576 0.020542
v 0.012325 0.027576 -0.013039
v 0.012325 0.027576 -0.012325
v 0.013039 0.027576 -0.012325
v 0.020542 0.027576 -0.004346
v 0.020542 0.027576 -0.012325
v 0.004346 0.027576 -0.020542
v 0.012325 0.027576 -0.020542
v 0.012325 0.027576 0.013039
v 0.012325 0.027576 0.012325
v 0.013039 0.027576 0.012325
v 0.020542 0.027576 0.012325
v 0.020542 0.027576 0.004346
v 0.004346 0.027576 0.020542
v 0.012325 0.027576 0.020542
v -0.004108 0.027576 -0.020542
v 0.004108 0.027576 -0.020542
v -0.004108 0.027576 0.020542
v 0.004108 0.027576 0.020542
v -0.020542 0.027576 0.004108
v -0.020542 0.027576 -0.004108
v 0.020542 0.027576 0.004108
v 0.020542 0.027576 -0.004108
vn -1.0000 -0.0000 -0.0000
vn -0.0000 -0.0000 -1.0000
vn -0.0000 1.0000 -0.0000
vn -0.0000 -1.0000 -0.0000
vn -0.0000 -0.0000 1.0000
vn 1.0000 -0.0000 -0.0000
vt 0.000000 0.000000
s 0
f 4/1/1 5/1/1 3/1/1
f 7/1/2 4/1/2 3/1/2
f 5/1/3 7/1/3 3/1/3
f 10/1/4 4/1/4 8/1/4
f 13/1/1 15/1/1 11/1/1
f 20/1/1 21/1/1 19/1/1
f 23/1/2 20/1/2 19/1/2
f 21/1/3 23/1/3 19/1/3
f 26/1/4 20/1/4 24/1/4
f 31/1/2 29/1/2 27/1/2
f 250/1/3 251/1/3 35/1/3
f 21/1/2 2/1/2 1/1/2
f 7/1/3 252/1/3 253/1/3
f 38/1/2 13/1/2 11/1/2
f 41/1/4 13/1/4 40/1/4
f 2/1/1 7/1/1 1/1/1
f 21/1/3 251/1/3 254/1/3
f 29/1/1 38/1/1 27/1/1
f 43/1/4 29/1/4 34/1/4
f 11/1/1 10/1/1 8/1/1
f 26/1/2 27/1/2 22/1/2
f 27/1/1 36/1/1 22/1/1
f 36/1/2 11/1/2 8/1/2
f 7/1/3 21/1/3 1/1/3
f 36/1/4 2/1/4 22/1/4
f 53/1/1 55/1/1 51/1/1
f 55/1/2 49/1/2 47/1/2
f 55/1/4 45/1/4 51/1/4
f 64/1/1 65/1/1 63/1/1
f 70/1/5 65/1/5 66/1/5
f 65/1/3 67/1/3 63/1/3
f 70/1/4 64/1/4 68/1/4
f 73/1/1 75/1/1 71/1/1
f 81/1/3 257/1/3 256/1/3
f 92/1/1 93/1/1 91/1/1
f 98/1/5 93/1/5 94/1/5
f 93/1/3 95/1/3 91/1/3
f 98/1/4 92/1/4 96/1/4
f 106/1/5 99/1/5 101/1/5
f 69/1/3 256/1/3 259/1/3
f 88/1/5 75/1/5 77/1/5
f 88/1/4 73/1/4 83/1/4
f 92/1/5 79/1/5 80/1/5
f 70/1/1 79/1/1 69/1/1
f 91/1/3 262/1/3 261/1/3
f 88/1/1 99/1/1 86/1/1
f 106/1/4 88/1/4 90/1/4
f 71/1/1 70/1/1 68/1/1
f 103/1/5 92/1/5 99/1/5
f 86/1/1 92/1/1 82/1/1
f 86/1/5 70/1/5 75/1/5
f 79/1/3 81/1/3 69/1/3
f 92/1/4 70/1/4 82/1/4
f 115/1/1 118/1/1 113/1/1
f 115/1/5 107/1/5 109/1/5
f 118/1/4 107/1/4 113/1/4
f 132/1/6 129/1/6 131/1/6
f 129/1/2 126/1/2 125/1/2
f 127/1/3 129/1/3 125/1/3
f 132/1/4 126/1/4 130/1/4
f 137/1/2 135/1/2 133/1/2
f 141/1/3 264/1/3 265/1/3
f 160/1/6 157/1/6 159/1/6
f 157/1/2 154/1/2 153/1/2
f 155/1/3 157/1/3 153/1/3
f 160/1/4 154/1/4 158/1/4
f 168/1/6 162/1/6 165/1/6
f 151/1/2 132/1/2 131/1/2
f 153/1/3 265/1/3 267/1/3
f 162/1/2 147/1/2 146/1/2
f 168/1/4 147/1/4 164/1/4
f 131/1/3 268/1/3 269/1/3
f 154/1/6 151/1/6 153/1/6
f 147/1/6 137/1/6 146/1/6
f 147/1/4 135/1/4 139/1/4
f 132/1/2 133/1/2 128/1/2
f 165/1/6 154/1/6 156/1/6
f 146/1/6 132/1/6 142/1/6
f 154/1/2 146/1/2 142/1/2
f 141/1/3 151/1/3 131/1/3
f 154/1/4 132/1/4 152/1/4
f 175/1/6 170/1/6 174/1/6
f 179/1/2 175/1/2 174/1/2
f 179/1/4 170/1/4 177/1/4
f 187/1/3 271/1/3 270/1/3
f 204/1/6 201/1/6 203/1/6
f 204/1/5 199/1/5 200/1/5
f 199/1/3 201/1/3 197/1/3
f 204/1/4 198/1/4 202/1/4
f 211/1/5 205/1/5 207/1/5
f 220/1/6 217/1/6 219/1/6
f 220/1/5 215/1/5 216/1/5
f 215/1/3 217/1/3 213/1/3
f 220/1/4 214/1/4 218/1/4
f 227/1/6 221/1/6 225/1/6
f 215/1/3 274/1/3 273/1/3
f 227/1/5 194/1/5 196/1/5
f 227/1/4 192/1/4 223/1/4
f 230/1/5 201/1/5 202/1/5
f 201/1/3 270/1/3 276/1/3
f 230/1/6 215/1/6 229/1/6
f 211/1/6 194/1/6 209/1/6
f 211/1/4 189/1/4 196/1/4
f 209/1/5 198/1/5 205/1/5
f 225/1/6 214/1/6 216/1/6
f 209/1/6 188/1/6 202/1/6
f 225/1/5 188/1/5 194/1/5
f 201/1/3 215/1/3 187/1/3
f 230/1/4 188/1/4 216/1/4
f 238/1/6 231/1/6 236/1/6
f 241/1/5 231/1/5 233/1/5
f 244/1/4 231/1/4 240/1/4
f 125/1/2 24/1/2 23/1/2
f 25/1/3 125/1/3 23/1/3
f 128/1/4 24/1/4 126/1/4
f 133/1/2 34/1/2 31/1/2
f 128/1/2 31/1/2 26/1/2
f 25/1/3 277/1/3 278/1/3
f 144/1/4 34/1/4 135/1/4
f 170/1/2 53/1/2 51/1/2
f 175/1/4 53/1/4 171/1/4
f 184/1/2 61/1/2 59/1/2
f 175/1/2 59/1/2 57/1/2
f 200/1/5 97/1/5 98/1/5
f 97/1/3 197/1/3 95/1/3
f 200/1/4 96/1/4 198/1/4
f 207/1/5 103/1/5 106/1/5
f 205/1/5 96/1/5 103/1/5
f 197/1/3 280/1/3 279/1/3
f 207/1/4 90/1/4 189/1/4
f 238/1/5 118/1/5 120/1/5
f 238/1/4 115/1/4 233/1/4
f 247/1/5 122/1/5 123/1/5
f 245/1/5 115/1/5 122/1/5
f 6/1/1 63/1/1 5/1/1
f 63/1/3 9/1/3 5/1/3
f 68/1/4 6/1/4 10/1/4
f 17/1/1 71/1/1 15/1/1
f 15/1/1 68/1/1 10/1/1
f 67/1/3 281/1/3 282/1/3
f 83/1/4 17/1/4 41/1/4
f 218/1/6 159/1/6 217/1/6
f 213/1/3 159/1/3 155/1/3
f 218/1/4 156/1/4 160/1/4
f 223/1/6 165/1/6 221/1/6
f 221/1/6 156/1/6 214/1/6
f 155/1/3 284/1/3 283/1/3
f 223/1/4 150/1/4 168/1/4
f 49/1/1 107/1/1 47/1/1
f 115/1/4 49/1/4 57/1/4
f 61/1/1 122/1/1 59/1/1
f 59/1/1 115/1/1 57/1/1
f 241/1/6 179/1/6 240/1/6
f 241/1/4 175/1/4 181/1/4
f 247/1/6 184/1/6 245/1/6
f 245/1/6 175/1/6 233/1/6
f 45/1/1 41/1/1 40/1/1
f 43/1/2 45/1/2 40/1/2
f 107/1/1 88/1/1 83/1/1
f 118/1/5 88/1/5 112/1/5
f 179/1/6 147/1/6 150/1/6
f 147/1/2 170/1/2 144/1/2
f 244/1/6 192/1/6 196/1/6
f 244/1/5 189/1/5 236/1/5
f 47/1/1 83/1/1 41/1/1
f 240/1/6 150/1/6 192/1/6
f 144/1/2 51/1/2 43/1/2
f 236/1/5 90/1/5 118/1/5
f 247/1/4 61/1/4 186/1/4
f 16/1/6 14/1/6 12/1/6
f 30/1/5 32/1/5 28/1/5
f 14/1/5 37/1/5 12/1/5
f 14/1/3 42/1/3 39/1/3
f 37/1/6 30/1/6 28/1/6
f 30/1/3 44/1/3 33/1/3
f 16/1/6 253/1/6 252/1/6
f 32/1/5 255/1/5 254/1/5
f 37/1/6 254/1/6 251/1/6
f 12/1/5 249/1/5 250/1/5
f 56/1/6 54/1/6 52/1/6
f 50/1/5 56/1/5 48/1/5
f 46/1/3 56/1/3 52/1/3
f 76/1/6 74/1/6 72/1/6
f 100/1/2 105/1/2 102/1/2
f 76/1/2 87/1/2 78/1/2
f 74/1/3 87/1/3 84/1/3
f 100/1/6 87/1/6 85/1/6
f 87/1/3 105/1/3 89/1/3
f 76/1/6 281/1/6 260/1/6
f 104/1/2 261/1/2 262/1/2
f 100/1/6 257/1/6 258/1/6
f 85/1/2 259/1/2 256/1/2
f 117/1/6 116/1/6 114/1/6
f 108/1/2 116/1/2 110/1/2
f 108/1/3 117/1/3 114/1/3
f 136/1/5 138/1/5 134/1/5
f 161/1/1 167/1/1 166/1/1
f 148/1/5 161/1/5 145/1/5
f 148/1/3 167/1/3 163/1/3
f 138/1/1 148/1/1 145/1/1
f 136/1/3 148/1/3 140/1/3
f 138/1/5 268/1/5 278/1/5
f 166/1/1 266/1/1 267/1/1
f 145/1/1 263/1/1 269/1/1
f 145/1/5 267/1/5 265/1/5
f 169/1/1 176/1/1 173/1/1
f 176/1/5 180/1/5 173/1/5
f 169/1/3 180/1/3 178/1/3
f 206/1/2 212/1/2 208/1/2
f 222/1/1 228/1/1 226/1/1
f 193/1/2 228/1/2 195/1/2
f 191/1/3 228/1/3 224/1/3
f 193/1/1 212/1/1 210/1/1
f 190/1/3 212/1/3 195/1/3
f 210/1/2 280/1/2 275/1/2
f 226/1/1 274/1/1 283/1/1
f 210/1/1 270/1/1 271/1/1
f 226/1/2 271/1/2 272/1/2
f 232/1/1 237/1/1 235/1/1
f 232/1/2 242/1/2 234/1/2
f 232/1/3 243/1/3 239/1/3
f 33/1/5 134/1/5 32/1/5
f 32/1/5 278/1/5 277/1/5
f 33/1/3 143/1/3 136/1/3
f 54/1/5 169/1/5 52/1/5
f 54/1/3 176/1/3 172/1/3
f 62/1/5 183/1/5 60/1/5
f 60/1/5 176/1/5 58/1/5
f 104/1/2 208/1/2 105/1/2
f 206/1/2 279/1/2 280/1/2
f 89/1/3 208/1/3 190/1/3
f 117/1/2 237/1/2 119/1/2
f 116/1/3 237/1/3 234/1/3
f 121/1/2 248/1/2 124/1/2
f 116/1/2 246/1/2 121/1/2
f 72/1/6 18/1/6 16/1/6
f 72/1/6 282/1/6 281/1/6
f 18/1/3 84/1/3 42/1/3
f 166/1/1 224/1/1 222/1/1
f 222/1/1 284/1/1 166/1/1
f 149/1/3 224/1/3 167/1/3
f 108/1/6 50/1/6 48/1/6
f 50/1/3 116/1/3 58/1/3
f 121/1/6 62/1/6 60/1/6
f 116/1/6 60/1/6 58/1/6
f 180/1/1 242/1/1 239/1/1
f 176/1/3 242/1/3 182/1/3
f 183/1/1 248/1/1 246/1/1
f 176/1/1 246/1/1 234/1/1
f 42/1/6 46/1/6 39/1/6
f 46/1/5 44/1/5 39/1/5
f 87/1/6 108/1/6 84/1/6
f 87/1/2 117/1/2 111/1/2
f 148/1/1 180/1/1 149/1/1
f 169/1/5 148/1/5 143/1/5
f 191/1/1 243/1/1 195/1/1
f 190/1/2 243/1/2 235/1/2
f 84/1/6 48/1/6 42/1/6
f 149/1/1 239/1/1 191/1/1
f 52/1/5 143/1/5 44/1/5
f 89/1/2 235/1/2 117/1/2
f 62/1/3 248/1/3 185/1/3
f 4/1/1 6/1/1 5/1/1
f 7/1/2 8/1/2 4/1/2
f 5/1/3 9/1/3 7/1/3
f 10/1/4 6/1/4 4/1/4
f 13/1/1 17/1/1 15/1/1
f 20/1/1 22/1/1 21/1/1
f 23/1/2 24/1/2 20/1/2
f 21/1/3 25/1/3 23/1/3
f 26/1/4 22/1/4 20/1/4
f 31/1/2 34/1/2 29/1/2
f 250/1/3 249/1/3 251/1/3
f 21/1/2 22/1/2 2/1/2
f 253/1/3 250/1/3 35/1/3
f 7/1/3 9/1/3 252/1/3
f 253/1/3 35/1/3 7/1/3
f 38/1/2 40/1/2 13/1/2
f 41/1/4 17/1/4 13/1/4
f 2/1/1 8/1/1 7/1/1
f 255/1/3 25/1/3 21/1/3
f 21/1/3 35/1/3 251/1/3
f 254/1/3 255/1/3 21/1/3
f 29/1/1 40/1/1 38/1/1
f 43/1/4 40/1/4 29/1/4
f 11/1/1 15/1/1 10/1/1
f 26/1/2 31/1/2 27/1/2
f 27/1/1 38/1/1 36/1/1
f 36/1/2 38/1/2 11/1/2
f 7/1/3 35/1/3 21/1/3
f 36/1/4 8/1/4 2/1/4
f 53/1/1 57/1/1 55/1/1
f 55/1/2 57/1/2 49/1/2
f 55/1/4 47/1/4 45/1/4
f 64/1/1 66/1/1 65/1/1
f 70/1/5 69/1/5 65/1/5
f 65/1/3 69/1/3 67/1/3
f 70/1/4 66/1/4 64/1/4
f 73/1/1 77/1/1 75/1/1
f 81/1/3 258/1/3 257/1/3
f 92/1/1 94/1/1 93/1/1
f 98/1/5 97/1/5 93/1/5
f 93/1/3 97/1/3 95/1/3
f 98/1/4 94/1/4 92/1/4
f 106/1/5 103/1/5 99/1/5
f 260/1/3 67/1/3 69/1/3
f 69/1/3 81/1/3 256/1/3
f 259/1/3 260/1/3 69/1/3
f 88/1/5 86/1/5 75/1/5
f 88/1/4 77/1/4 73/1/4
f 92/1/5 91/1/5 79/1/5
f 70/1/1 80/1/1 79/1/1
f 258/1/3 81/1/3 91/1/3
f 91/1/3 95/1/3 262/1/3
f 261/1/3 258/1/3 91/1/3
f 88/1/1 101/1/1 99/1/1
f 106/1/4 101/1/4 88/1/4
f 71/1/1 75/1/1 70/1/1
f 103/1/5 96/1/5 92/1/5
f 86/1/1 99/1/1 92/1/1
f 86/1/5 82/1/5 70/1/5
f 79/1/3 91/1/3 81/1/3
f 92/1/4 80/1/4 70/1/4
f 115/1/1 120/1/1 118/1/1
f 115/1/5 113/1/5 107/1/5
f 118/1/4 112/1/4 107/1/4
f 132/1/6 130/1/6 129/1/6
f 129/1/2 130/1/2 126/1/2
f 127/1/3 131/1/3 129/1/3
f 132/1/4 128/1/4 126/1/4
f 137/1/2 139/1/2 135/1/2
f 141/1/3 263/1/3 264/1/3
f 160/1/6 158/1/6 157/1/6
f 157/1/2 158/1/2 154/1/2
f 155/1/3 159/1/3 157/1/3
f 160/1/4 156/1/4 154/1/4
f 168/1/6 164/1/6 162/1/6
f 151/1/2 152/1/2 132/1/2
f 266/1/3 155/1/3 153/1/3
f 153/1/3 141/1/3 265/1/3
f 267/1/3 266/1/3 153/1/3
f 162/1/2 164/1/2 147/1/2
f 168/1/4 150/1/4 147/1/4
f 263/1/3 141/1/3 131/1/3
f 131/1/3 127/1/3 268/1/3
f 269/1/3 263/1/3 131/1/3
f 154/1/6 152/1/6 151/1/6
f 147/1/6 139/1/6 137/1/6
f 147/1/4 144/1/4 135/1/4
f 132/1/2 137/1/2 133/1/2
f 165/1/6 162/1/6 154/1/6
f 146/1/6 137/1/6 132/1/6
f 154/1/2 162/1/2 146/1/2
f 141/1/3 153/1/3 151/1/3
f 154/1/4 142/1/4 132/1/4
f 175/1/6 171/1/6 170/1/6
f 179/1/2 181/1/2 175/1/2
f 179/1/4 174/1/4 170/1/4
f 187/1/3 272/1/3 271/1/3
f 204/1/6 202/1/6 201/1/6
f 204/1/5 203/1/5 199/1/5
f 199/1/3 203/1/3 201/1/3
f 204/1/4 200/1/4 198/1/4
f 211/1/5 209/1/5 205/1/5
f 220/1/6 218/1/6 217/1/6
f 220/1/5 219/1/5 215/1/5
f 215/1/3 219/1/3 217/1/3
f 220/1/4 216/1/4 214/1/4
f 227/1/6 223/1/6 221/1/6
f 272/1/3 187/1/3 215/1/3
f 215/1/3 213/1/3 274/1/3
f 273/1/3 272/1/3 215/1/3
f 227/1/5 225/1/5 194/1/5
f 227/1/4 196/1/4 192/1/4
f 230/1/5 229/1/5 201/1/5
f 275/1/3 197/1/3 201/1/3
f 201/1/3 187/1/3 270/1/3
f 276/1/3 275/1/3 201/1/3
f 230/1/6 216/1/6 215/1/6
f 211/1/6 196/1/6 194/1/6
f 211/1/4 207/1/4 189/1/4
f 209/1/5 202/1/5 198/1/5
f 225/1/6 221/1/6 214/1/6
f 209/1/6 194/1/6 188/1/6
f 225/1/5 216/1/5 188/1/5
f 201/1/3 229/1/3 215/1/3
f 230/1/4 202/1/4 188/1/4
f 238/1/6 233/1/6 231/1/6
f 241/1/5 240/1/5 231/1/5
f 244/1/4 236/1/4 231/1/4
f 125/1/2 126/1/2 24/1/2
f 25/1/3 127/1/3 125/1/3
f 128/1/4 26/1/4 24/1/4
f 133/1/2 135/1/2 34/1/2
f 128/1/2 133/1/2 31/1/2
f 268/1/3 127/1/3 25/1/3
f 25/1/3 255/1/3 277/1/3
f 278/1/3 268/1/3 25/1/3
f 144/1/4 43/1/4 34/1/4
f 170/1/2 171/1/2 53/1/2
f 175/1/4 57/1/4 53/1/4
f 184/1/2 186/1/2 61/1/2
f 175/1/2 184/1/2 59/1/2
f 200/1/5 199/1/5 97/1/5
f 97/1/3 199/1/3 197/1/3
f 200/1/4 98/1/4 96/1/4
f 207/1/5 205/1/5 103/1/5
f 205/1/5 198/1/5 96/1/5
f 262/1/3 95/1/3 197/1/3
f 197/1/3 275/1/3 280/1/3
f 279/1/3 262/1/3 197/1/3
f 207/1/4 106/1/4 90/1/4
f 238/1/5 236/1/5 118/1/5
f 238/1/4 120/1/4 115/1/4
f 247/1/5 245/1/5 122/1/5
f 245/1/5 233/1/5 115/1/5
f 6/1/1 64/1/1 63/1/1
f 63/1/3 67/1/3 9/1/3
f 68/1/4 64/1/4 6/1/4
f 17/1/1 73/1/1 71/1/1
f 15/1/1 71/1/1 68/1/1
f 252/1/3 9/1/3 67/1/3
f 67/1/3 260/1/3 281/1/3
f 282/1/3 252/1/3 67/1/3
f 83/1/4 73/1/4 17/1/4
f 218/1/6 160/1/6 159/1/6
f 213/1/3 217/1/3 159/1/3
f 218/1/4 214/1/4 156/1/4
f 223/1/6 168/1/6 165/1/6
f 221/1/6 165/1/6 156/1/6
f 274/1/3 213/1/3 155/1/3
f 155/1/3 266/1/3 284/1/3
f 283/1/3 274/1/3 155/1/3
f 223/1/4 192/1/4 150/1/4
f 49/1/1 109/1/1 107/1/1
f 115/1/4 109/1/4 49/1/4
f 61/1/1 123/1/1 122/1/1
f 59/1/1 122/1/1 115/1/1
f 241/1/6 181/1/6 179/1/6
f 241/1/4 233/1/4 175/1/4
f 247/1/6 186/1/6 184/1/6
f 245/1/6 184/1/6 175/1/6
f 45/1/1 47/1/1 41/1/1
f 43/1/2 51/1/2 45/1/2
f 107/1/1 112/1/1 88/1/1
f 118/1/5 90/1/5 88/1/5
f 179/1/6 177/1/6 147/1/6
f 147/1/2 177/1/2 170/1/2
f 244/1/6 240/1/6 192/1/6
f 244/1/5 196/1/5 189/1/5
f 47/1/1 107/1/1 83/1/1
f 240/1/6 179/1/6 150/1/6
f 144/1/2 170/1/2 51/1/2
f 236/1/5 189/1/5 90/1/5
f 247/1/4 123/1/4 61/1/4
f 16/1/6 18/1/6 14/1/6
f 30/1/5 33/1/5 32/1/5
f 14/1/5 39/1/5 37/1/5
f 14/1/3 18/1/3 42/1/3
f 37/1/6 39/1/6 30/1/6
f 30/1/3 39/1/3 44/1/3
f 252/1/6 282/1/6 16/1/6
f 16/1/6 12/1/6 253/1/6
f 254/1/5 28/1/5 32/1/5
f 32/1/5 277/1/5 255/1/5
f 251/1/6 249/1/6 37/1/6
f 37/1/6 28/1/6 254/1/6
f 250/1/5 253/1/5 12/1/5
f 12/1/5 37/1/5 249/1/5
f 56/1/6 58/1/6 54/1/6
f 50/1/5 58/1/5 56/1/5
f 46/1/3 48/1/3 56/1/3
f 76/1/6 78/1/6 74/1/6
f 100/1/2 104/1/2 105/1/2
f 76/1/2 85/1/2 87/1/2
f 74/1/3 78/1/3 87/1/3
f 100/1/6 102/1/6 87/1/6
f 87/1/3 102/1/3 105/1/3
f 260/1/6 259/1/6 76/1/6
f 76/1/6 72/1/6 281/1/6
f 262/1/2 279/1/2 104/1/2
f 104/1/2 100/1/2 261/1/2
f 258/1/6 261/1/6 100/1/6
f 100/1/6 85/1/6 257/1/6
f 256/1/2 257/1/2 85/1/2
f 85/1/2 76/1/2 259/1/2
f 117/1/6 119/1/6 116/1/6
f 108/1/2 114/1/2 116/1/2
f 108/1/3 111/1/3 117/1/3
f 136/1/5 140/1/5 138/1/5
f 161/1/1 163/1/1 167/1/1
f 148/1/5 163/1/5 161/1/5
f 148/1/3 149/1/3 167/1/3
f 138/1/1 140/1/1 148/1/1
f 136/1/3 143/1/3 148/1/3
f 278/1/5 134/1/5 138/1/5
f 138/1/5 269/1/5 268/1/5
f 267/1/1 161/1/1 166/1/1
f 166/1/1 284/1/1 266/1/1
f 269/1/1 138/1/1 145/1/1
f 145/1/1 264/1/1 263/1/1
f 265/1/5 264/1/5 145/1/5
f 145/1/5 161/1/5 267/1/5
f 169/1/1 172/1/1 176/1/1
f 176/1/5 182/1/5 180/1/5
f 169/1/3 173/1/3 180/1/3
f 206/1/2 210/1/2 212/1/2
f 222/1/1 224/1/1 228/1/1
f 193/1/2 226/1/2 228/1/2
f 191/1/3 195/1/3 228/1/3
f 193/1/1 195/1/1 212/1/1
f 190/1/3 208/1/3 212/1/3
f 275/1/2 276/1/2 210/1/2
f 210/1/2 206/1/2 280/1/2
f 283/1/1 222/1/1 226/1/1
f 226/1/1 273/1/1 274/1/1
f 271/1/1 193/1/1 210/1/1
f 210/1/1 276/1/1 270/1/1
f 272/1/2 273/1/2 226/1/2
f 226/1/2 193/1/2 271/1/2
f 232/1/1 234/1/1 237/1/1
f 232/1/2 239/1/2 242/1/2
f 232/1/3 235/1/3 243/1/3
f 33/1/5 136/1/5 134/1/5
f 32/1/5 134/1/5 278/1/5
f 33/1/3 44/1/3 143/1/3
f 54/1/5 172/1/5 169/1/5
f 54/1/3 58/1/3 176/1/3
f 62/1/5 185/1/5 183/1/5
f 60/1/5 183/1/5 176/1/5
f 104/1/2 206/1/2 208/1/2
f 206/1/2 104/1/2 279/1/2
f 89/1/3 105/1/3 208/1/3
f 117/1/2 235/1/2 237/1/2
f 116/1/3 119/1/3 237/1/3
f 121/1/2 246/1/2 248/1/2
f 116/1/2 234/1/2 246/1/2
f 72/1/6 74/1/6 18/1/6
f 72/1/6 16/1/6 282/1/6
f 18/1/3 74/1/3 84/1/3
f 166/1/1 167/1/1 224/1/1
f 222/1/1 283/1/1 284/1/1
f 149/1/3 191/1/3 224/1/3
f 108/1/6 110/1/6 50/1/6
f 50/1/3 110/1/3 116/1/3
f 121/1/6 124/1/6 62/1/6
f 116/1/6 121/1/6 60/1/6
f 180/1/1 182/1/1 242/1/1
f 176/1/3 234/1/3 242/1/3
f 183/1/1 185/1/1 248/1/1
f 176/1/1 183/1/1 246/1/1
f 42/1/6 48/1/6 46/1/6
f 46/1/5 52/1/5 44/1/5
f 87/1/6 111/1/6 108/1/6
f 87/1/2 89/1/2 117/1/2
f 148/1/1 178/1/1 180/1/1
f 169/1/5 178/1/5 148/1/5
f 191/1/1 239/1/1 243/1/1
f 190/1/2 195/1/2 243/1/2
f 84/1/6 108/1/6 48/1/6
f 149/1/1 180/1/1 239/1/1
f 52/1/5 169/1/5 143/1/5
f 89/1/2 190/1/2 235/1/2
f 62/1/3 124/1/3 248/1/3
