# Blender 3.5.0
# www.blender.org
mtllib player_left_upperArm.mtl
o rroob.001
v -0.024583 0.220065 -0.009990
v -0.024583 0.220065 0.011601
v -0.022909 0.194470 -0.020567
v -0.026047 0.194470 0.014696
v -0.073813 0.209340 0.010857
v -0.073813 0.209340 -0.011938
v -0.072139 0.176564 0.014523
v -0.072139 0.176564 -0.018043
v -0.036589 0.212132 -0.007627
v -0.035992 0.212313 0.009205
v -0.034168 0.193702 -0.015870
v -0.035140 0.197365 0.012006
v -0.069361 0.202627 0.007457
v -0.069514 0.202072 -0.008926
v -0.069537 0.182033 0.010478
v -0.069837 0.181637 -0.013884
vn -0.9924 -0.1221 -0.0185
vn -0.0460 0.3789 -0.9243
vn 0.3430 -0.9388 0.0305
vn -0.0460 0.1087 0.9930
vn -0.2129 0.9771 -0.0000
vn 0.9957 0.0285 0.0886
vn -0.9987 -0.0510 -0.0000
vn 0.1333 -0.2357 0.9626
vn 0.9998 -0.0129 -0.0121
vn -0.4067 0.9135 -0.0099
vn 0.1028 -0.1775 -0.9787
vn 0.2910 -0.9563 0.0297
vn -0.9981 -0.0502 0.0359
vn -0.1142 0.1763 -0.9777
vn 0.3621 -0.9321 -0.0000
vn -0.0416 0.1223 0.9916
vn 0.9984 -0.0571 -0.0000
vn 0.0854 -0.3974 0.9137
vn 0.9999 -0.0099 -0.0090
vn -0.3242 0.9364 -0.1344
vn 0.1084 -0.1452 -0.9835
vn 0.2787 -0.9604 0.0004
vt 0.096627 0.087989
vt 0.371880 0.398063
vt 0.366032 0.398063
vt 0.645055 0.247230
vt 0.068823 0.549227
vt 0.091750 0.087615
vt 0.640960 0.246386
vt 0.059146 0.549928
vt 0.644563 0.237758
vt 0.365957 0.388726
vt 0.372130 0.388726
vt 0.094838 0.097326
vt 0.059211 0.558697
vt 0.639233 0.237466
vt 0.089357 0.096952
vt 0.068148 0.558697
vt 0.096627 0.087989
vt 0.371880 0.398063
vt 0.645055 0.247230
vt 0.366032 0.398063
vt 0.091750 0.087615
vt 0.068823 0.549227
vt 0.059146 0.549928
vt 0.640960 0.246386
vt 0.644563 0.237758
vt 0.365957 0.388726
vt 0.372130 0.388726
vt 0.094838 0.097326
vt 0.059211 0.558697
vt 0.639233 0.237466
vt 0.089357 0.096952
vt 0.068148 0.558697
s 0
usemtl マテリアル.009
f 12/23/1 9/18/1 11/22/1
f 3/6/2 6/12/2 1/1/2
f 4/8/3 8/16/3 3/5/3
f 4/7/4 5/9/4 7/14/4
f 1/2/5 5/10/5 2/3/5
f 1/2/6 4/8/6 3/5/6
f 7/14/7 6/12/7 8/15/7
f 11/21/8 14/28/8 16/31/8
f 14/28/9 15/30/9 16/31/9
f 12/23/10 16/32/10 15/29/10
f 12/24/11 13/25/11 10/19/11
f 9/18/12 13/26/12 14/27/12
f 12/23/13 10/19/13 9/18/13
f 3/6/14 8/15/14 6/12/14
f 4/8/15 7/13/15 8/16/15
f 4/7/16 2/4/16 5/9/16
f 1/2/5 6/11/5 5/10/5
f 1/2/17 2/4/17 4/8/17
f 7/14/7 5/10/7 6/12/7
f 11/21/18 9/17/18 14/28/18
f 14/28/19 13/26/19 15/30/19
f 12/23/20 11/22/20 16/32/20
f 12/24/21 15/30/21 13/25/21
f 9/18/22 10/20/22 13/26/22
o body
