# Blender 3.5.0
# www.blender.org
mtllib player_left_upperArm.mtl
o rroob.001
v 0.075148 0.701151 -0.030769
v 0.075148 0.701151 0.035731
v 0.069993 0.622324 -0.063343
v 0.079658 0.622324 0.045263
v 0.232498 0.668120 0.033438
v 0.232498 0.668120 -0.036766
v 0.227342 0.567173 0.044729
v 0.227342 0.567173 -0.055570
v 0.096481 0.676719 -0.023490
v 0.094642 0.677275 0.028351
v 0.085085 0.619956 -0.048878
v 0.087525 0.631239 0.036977
v 0.224893 0.647445 0.022967
v 0.225363 0.645735 -0.027489
v 0.225437 0.584017 0.032269
v 0.226359 0.582797 -0.042760
vn -0.3498 -0.9368 -0.0000
vn 0.1102 0.1766 -0.9781
vn 0.2054 0.9787 -0.0000
vn 0.0442 0.1088 0.9931
vn 0.2575 0.9571 -0.1331
vn -0.0668 -0.3962 0.9157
vn -0.2231 -0.9748 0.0025
vn -0.0799 -0.1716 -0.9819
vn 0.9987 -0.0510 -0.0000
vn -0.9957 0.0285 0.0886
vn -0.3319 -0.9428 0.0295
vn 0.0443 0.3791 -0.9243
vn 0.0401 0.1222 0.9917
vn 0.3236 0.9461 -0.0114
vn -0.1039 -0.2361 0.9662
vn -0.2327 -0.9721 0.0308
vn -0.0834 -0.1453 -0.9859
vn -0.9984 -0.0571 -0.0000
vt 0.096627 0.073666
vt 0.371880 0.412386
vt 0.366032 0.412386
vt 0.224587 0.676063
vt 0.624387 0.383482
vt 0.091750 0.074040
vt 0.220493 0.676907
vt 0.634064 0.384183
vt 0.224096 0.685535
vt 0.365957 0.421723
vt 0.372130 0.421723
vt 0.094838 0.064329
vt 0.633992 0.392662
vt 0.218765 0.685826
vt 0.089357 0.064703
vt 0.625055 0.392662
vt 0.096627 0.073666
vt 0.371880 0.412386
vt 0.366032 0.412386
vt 0.224587 0.676063
vt 0.624387 0.383482
vt 0.091750 0.074040
vt 0.634064 0.384183
vt 0.220493 0.676907
vt 0.365957 0.421723
vt 0.224096 0.685535
vt 0.094838 0.064329
vt 0.372130 0.421723
vt 0.633992 0.392662
vt 0.218765 0.685826
vt 0.625055 0.392662
vt 0.089357 0.064703
s 0
usemtl マテリアル.017
f 4/8/1 8/16/1 7/13/1
f 3/6/2 6/12/2 8/15/2
f 1/2/3 5/10/3 6/11/3
f 5/9/4 4/7/4 7/14/4
f 12/23/5 16/31/5 11/21/5
f 11/22/6 14/27/6 9/17/6
f 9/18/7 13/25/7 10/19/7
f 13/26/8 12/24/8 10/20/8
f 6/12/9 7/14/9 8/15/9
f 4/8/10 1/2/10 3/5/10
f 4/8/11 3/5/11 8/16/11
f 3/6/12 1/1/12 6/12/12
f 1/2/3 2/3/3 5/10/3
f 5/9/13 2/4/13 4/7/13
f 12/23/14 15/29/14 16/31/14
f 11/22/15 16/32/15 14/27/15
f 9/18/16 14/28/16 13/25/16
f 13/26/17 15/30/17 12/24/17
f 6/12/9 5/10/9 7/14/9
f 4/8/18 2/4/18 1/2/18
