# Blender 3.5.0
# www.blender.org
mtllib Hole.mtl
o 立方体
v 0.500000 -3.079830 -0.500000
v 0.500000 -3.000000 -0.500000
v 0.500000 -3.079830 0.500000
v 0.500000 -3.000000 0.500000
v -0.500000 -3.079830 -0.500000
v -0.500000 -3.000000 -0.500000
v -0.500000 -3.079830 0.500000
v -0.500000 -3.000000 0.500000
v 0.000000 -3.000000 0.500000
v 0.000000 -3.000000 -0.500000
v -0.250000 -3.000000 0.500000
v -0.250000 -3.000000 -0.500000
v -0.125000 -2.171328 -0.500000
v -0.125000 -3.000000 0.500000
v -0.375000 -3.000000 0.500000
v -0.375000 -3.000000 -0.500000
v 0.250000 -3.000000 -0.500000
v 0.250000 -3.000000 0.500000
v 0.125000 -3.000000 0.500000
v 0.125000 -3.000000 -0.500000
v 0.375000 -3.000000 -0.500000
v 0.375000 -2.062118 0.500000
v 0.500000 -2.149955 0.000000
v -0.500000 -3.000000 0.000000
v 0.000000 -3.000000 0.000000
v -0.250000 -3.000000 0.000000
v -0.125000 -3.000000 0.000000
v -0.375000 -3.000000 0.000000
v 0.250000 -3.000000 0.000000
v 0.125000 -3.000000 0.000000
v 0.375000 -3.000000 0.000000
v 0.500000 -3.000000 0.250000
v -0.500000 -3.000000 0.250000
v 0.000000 -3.000000 0.250000
v -0.250000 -3.000000 0.250000
v -0.125000 -3.000000 0.250000
v -0.375000 -3.000000 0.250000
v 0.250000 -3.000000 0.250000
v 0.125000 -3.000000 0.250000
v 0.375000 -3.000000 0.250000
v 0.500000 -3.000000 0.375000
v -0.500000 -3.000000 0.375000
v 0.000000 -3.000000 0.375000
v -0.250000 -3.000000 0.375000
v -0.125000 -2.065259 0.375000
v -0.375000 -3.000000 0.375000
v 0.250000 -3.000000 0.375000
v 0.125000 -3.000000 0.375000
v 0.375000 -3.000000 0.375000
v -0.500000 -3.000000 0.125000
v 0.000000 -3.000000 0.125000
v -0.250000 -3.000000 0.125000
v -0.125000 -3.000000 0.125000
v -0.375000 -2.423096 0.125000
v 0.250000 -2.649920 0.125000
v 0.125000 -3.000000 0.125000
v 0.375000 -3.000000 0.125000
v 0.500000 -3.000000 0.125000
v -0.500000 -3.000000 -0.251170
v 0.000000 -3.000000 -0.251170
v -0.250000 -3.000000 -0.251170
v -0.125000 -3.000000 -0.251170
v -0.375000 -2.107878 -0.251170
v 0.250000 -3.000000 -0.251170
v 0.125000 -3.000000 -0.251170
v 0.375000 -3.000000 -0.251170
v 0.500000 -3.000000 -0.251170
v 0.500000 -3.000000 -0.125585
v -0.500000 -3.000000 -0.125585
v 0.000000 -2.408178 -0.125585
v -0.250000 -3.000000 -0.125585
v -0.125000 -3.000000 -0.125585
v -0.375000 -3.000000 -0.125585
v 0.250000 -3.000000 -0.125585
v 0.125000 -3.000000 -0.125585
v 0.375000 -3.000000 -0.125585
v -0.500000 -3.000000 -0.375585
v 0.000000 -3.000000 -0.375585
v -0.250000 -3.000000 -0.375585
v -0.125000 -3.000000 -0.375585
v -0.375000 -3.000000 -0.375585
v 0.250000 -3.000000 -0.375585
v 0.125000 -3.000000 -0.375585
v 0.375000 -1.939189 -0.375585
v 0.500000 -3.000000 -0.375585
vn 1.0000 -0.0000 -0.0000
vn -0.0000 -0.0000 -1.0000
vn -0.0000 -1.0000 -0.0000
vn 0.7030 0.0828 -0.7063
vn 0.7015 0.1058 0.7048
vn -0.0000 1.0000 -0.0000
vn 0.6856 0.2448 -0.6856
vn 0.6990 0.1514 -0.6990
vn 0.7040 0.0941 -0.7040
vn 0.7040 0.0941 0.7040
vn 0.7040 0.0938 -0.7040
vn -1.0000 -0.0000 -0.0000
vn 0.6990 0.1514 0.6990
vn 0.6856 0.2448 0.6856
vn 0.7009 0.1480 -0.6977
vn 0.7053 0.0988 0.7020
vn 0.7009 0.1480 0.6977
vn -0.0000 -0.0000 1.0000
vn 0.7020 0.0984 -0.7053
vn 0.7030 0.0828 0.7063
vn -0.7015 0.1058 0.7048
vn -0.7030 0.0828 -0.7063
vn -0.6856 0.2448 -0.6856
vn -0.6990 0.1514 -0.6990
vn -0.7033 0.1034 0.7033
vn -0.7040 0.0941 -0.7040
vn -0.7040 0.0938 -0.7040
vn -0.7040 0.0941 0.7040
vn -0.6990 0.1514 0.6990
vn -0.6856 0.2448 0.6856
vn -0.7053 0.0988 0.7020
vn -0.7009 0.1480 -0.6977
vn -0.7049 0.1037 -0.7017
vn -0.7009 0.1480 0.6977
vn -0.7030 0.0828 0.7063
vn -0.7020 0.0984 -0.7053
vt 0.375000 0.000000
vt 0.375000 1.000000
vt 0.125000 0.750000
vt 0.625000 0.000000
vt 0.625000 1.000000
vt 0.875000 0.750000
vt 0.125000 0.500000
vt 0.375000 0.250000
vt 0.875000 0.500000
vt 0.625000 0.250000
vt 0.375000 0.750000
vt 0.625000 0.750000
vt 0.375000 0.500000
vt 0.625000 0.500000
vt 0.750000 0.500000
vt 0.625000 0.375000
vt 0.625000 0.875000
vt 0.750000 0.750000
vt 0.687500 0.500000
vt 0.625000 0.437500
vt 0.625000 0.812500
vt 0.687500 0.750000
vt 0.625000 0.843750
vt 0.718750 0.750000
vt 0.718750 0.500000
vt 0.625000 0.406250
vt 0.656250 0.500000
vt 0.625000 0.468750
vt 0.625000 0.781250
vt 0.656250 0.750000
vt 0.625000 0.937500
vt 0.812500 0.750000
vt 0.812500 0.500000
vt 0.625000 0.312500
vt 0.781250 0.500000
vt 0.625000 0.343750
vt 0.625000 0.906250
vt 0.781250 0.750000
vt 0.625000 0.968750
vt 0.843750 0.750000
vt 0.843750 0.500000
vt 0.625000 0.281250
vt 0.625000 0.125000
vt 0.875000 0.625000
vt 0.625000 0.625000
vt 0.750000 0.625000
vt 0.687500 0.625000
vt 0.718750 0.625000
vt 0.656250 0.625000
vt 0.812500 0.625000
vt 0.781250 0.625000
vt 0.843750 0.625000
vt 0.625000 0.187500
vt 0.875000 0.562500
vt 0.625000 0.562500
vt 0.750000 0.562500
vt 0.687500 0.562500
vt 0.718750 0.562500
vt 0.656250 0.562500
vt 0.812500 0.562500
vt 0.781250 0.562500
vt 0.843750 0.562500
vt 0.625000 0.218750
vt 0.875000 0.531250
vt 0.625000 0.531250
vt 0.750000 0.531250
vt 0.687500 0.531250
vt 0.718750 0.531250
vt 0.656250 0.531250
vt 0.812500 0.531250
vt 0.781250 0.531250
vt 0.843750 0.531250
vt 0.625000 0.593750
vt 0.750000 0.593750
vt 0.687500 0.593750
vt 0.718750 0.593750
vt 0.656250 0.593750
vt 0.812500 0.593750
vt 0.781250 0.593750
vt 0.843750 0.593750
vt 0.625000 0.156250
vt 0.875000 0.593750
vt 0.625000 0.687792
vt 0.750000 0.687792
vt 0.687500 0.687792
vt 0.718750 0.687792
vt 0.656250 0.687792
vt 0.812500 0.687792
vt 0.781250 0.687792
vt 0.843750 0.687792
vt 0.625000 0.062208
vt 0.875000 0.687792
vt 0.625000 0.093604
vt 0.875000 0.656396
vt 0.625000 0.656396
vt 0.750000 0.656396
vt 0.687500 0.656396
vt 0.718750 0.656396
vt 0.656250 0.656396
vt 0.812500 0.656396
vt 0.781250 0.656396
vt 0.843750 0.656396
vt 0.625000 0.718896
vt 0.750000 0.718896
vt 0.687500 0.718896
vt 0.718750 0.718896
vt 0.656250 0.718896
vt 0.812500 0.718896
vt 0.781250 0.718896
vt 0.843750 0.718896
vt 0.625000 0.031104
vt 0.875000 0.718896
s 0
f 58/81/1 32/53/1 1/1/1
f 1/2/2 12/21/2 10/17/2
f 5/11/3 3/7/3 7/13/3
f 85/112/4 21/40/4 84/110/4
f 80/106/5 10/18/5 13/24/5
f 79/105/6 16/30/6 81/107/6
f 80/106/6 12/22/6 79/105/6
f 81/107/6 6/12/6 77/103/6
f 82/108/6 20/38/6 83/109/6
f 83/109/6 10/18/6 78/104/6
f 82/108/6 21/40/6 17/32/6
f 57/80/7 29/50/7 55/78/7
f 56/79/6 25/46/6 51/74/6
f 56/79/6 29/50/6 30/51/6
f 50/73/6 28/49/6 24/45/6
f 53/76/6 26/47/6 52/75/6
f 52/75/8 28/49/8 54/77/8
f 51/74/6 27/48/6 53/76/6
f 58/82/6 31/52/6 57/80/6
f 41/64/6 40/62/6 49/72/6
f 43/66/9 36/58/9 45/68/9
f 44/67/6 37/59/6 46/69/6
f 44/67/6 36/58/6 35/57/6
f 46/69/6 33/55/6 42/65/6
f 47/70/6 39/61/6 48/71/6
f 48/71/6 34/56/6 43/66/6
f 49/72/6 38/60/6 47/70/6
f 18/33/6 49/72/6 47/70/6
f 19/35/6 43/66/6 9/15/6
f 18/33/6 48/71/6 19/35/6
f 15/27/6 42/65/6 8/14/6
f 14/25/6 44/67/6 11/19/6
f 11/19/6 46/69/6 15/27/6
f 14/25/10 43/66/10 45/68/10
f 4/9/11 49/72/11 22/41/11
f 5/11/12 50/73/12 24/45/12
f 32/54/6 57/80/6 40/62/6
f 34/56/6 53/76/6 36/58/6
f 37/59/13 52/75/13 54/77/13
f 36/58/6 52/75/6 35/57/6
f 37/59/6 50/73/6 33/55/6
f 38/60/6 56/79/6 39/61/6
f 39/61/6 51/74/6 34/56/6
f 38/60/14 57/80/14 55/78/14
f 76/102/6 64/88/6 74/100/6
f 75/101/15 60/84/15 70/96/15
f 74/100/6 65/89/6 75/101/6
f 73/99/6 59/83/6 69/95/6
f 72/98/6 61/85/6 71/97/6
f 73/99/16 61/85/16 63/87/16
f 72/98/6 60/84/6 62/86/6
f 68/94/6 66/90/6 76/102/6
f 31/52/6 68/94/6 76/102/6
f 25/46/6 72/98/6 27/48/6
f 26/47/6 73/99/6 28/49/6
f 27/48/6 71/97/6 26/47/6
f 28/49/6 69/95/6 24/45/6
f 29/50/6 75/101/6 30/51/6
f 25/46/17 75/101/17 70/96/17
f 31/52/6 74/100/6 29/50/6
f 14/26/18 11/20/18 3/8/18
f 66/90/6 82/108/6 64/88/6
f 65/89/6 78/104/6 60/84/6
f 64/88/6 83/109/6 65/89/6
f 59/83/6 81/107/6 77/103/6
f 62/86/6 79/105/6 61/85/6
f 61/85/19 81/107/19 63/87/19
f 60/84/6 80/106/6 62/86/6
f 66/90/20 85/112/20 84/110/20
f 68/93/1 23/43/1 58/81/1
f 1/1/1 2/4/1 85/111/1
f 4/10/1 3/8/1 1/1/1
f 41/63/1 4/10/1 1/1/1
f 1/1/1 85/111/1 67/91/1
f 1/1/1 67/91/1 68/93/1
f 32/53/1 41/63/1 1/1/1
f 1/1/1 68/93/1 58/81/1
f 21/39/2 2/5/2 1/2/2
f 1/2/2 5/11/2 6/12/2
f 1/2/2 6/12/2 16/29/2
f 17/31/2 21/39/2 1/2/2
f 20/37/2 17/31/2 1/2/2
f 1/2/2 16/29/2 12/21/2
f 12/21/2 13/23/2 10/17/2
f 10/17/2 20/37/2 1/2/2
f 5/11/3 1/3/3 3/7/3
f 85/112/6 2/6/6 21/40/6
f 80/106/6 78/104/6 10/18/6
f 79/105/6 12/22/6 16/30/6
f 80/106/21 13/24/21 12/22/21
f 81/107/6 16/30/6 6/12/6
f 82/108/6 17/32/6 20/38/6
f 83/109/6 20/38/6 10/18/6
f 82/108/22 84/110/22 21/40/22
f 57/80/6 31/52/6 29/50/6
f 56/79/6 30/51/6 25/46/6
f 56/79/23 55/78/23 29/50/23
f 50/73/24 54/77/24 28/49/24
f 53/76/6 27/48/6 26/47/6
f 52/75/6 26/47/6 28/49/6
f 51/74/6 25/46/6 27/48/6
f 58/82/25 23/44/25 31/52/25
f 41/64/6 32/54/6 40/62/6
f 43/66/6 34/56/6 36/58/6
f 44/67/6 35/57/6 37/59/6
f 44/67/26 45/68/26 36/58/26
f 46/69/6 37/59/6 33/55/6
f 47/70/6 38/60/6 39/61/6
f 48/71/6 39/61/6 34/56/6
f 49/72/6 40/62/6 38/60/6
f 18/33/27 22/41/27 49/72/27
f 19/35/6 48/71/6 43/66/6
f 18/33/6 47/70/6 48/71/6
f 15/27/6 46/69/6 42/65/6
f 14/25/28 45/68/28 44/67/28
f 11/19/6 44/67/6 46/69/6
f 14/25/6 9/15/6 43/66/6
f 4/9/6 41/64/6 49/72/6
f 77/103/12 6/12/12 5/11/12
f 5/11/12 7/13/12 8/14/12
f 5/11/12 8/14/12 42/65/12
f 59/83/12 77/103/12 5/11/12
f 69/95/12 59/83/12 5/11/12
f 5/11/12 42/65/12 33/55/12
f 5/11/12 33/55/12 50/73/12
f 24/45/12 69/95/12 5/11/12
f 32/54/6 58/82/6 57/80/6
f 34/56/6 51/74/6 53/76/6
f 37/59/6 35/57/6 52/75/6
f 36/58/6 53/76/6 52/75/6
f 37/59/29 54/77/29 50/73/29
f 38/60/30 55/78/30 56/79/30
f 39/61/6 56/79/6 51/74/6
f 38/60/6 40/62/6 57/80/6
f 76/102/6 66/90/6 64/88/6
f 75/101/6 65/89/6 60/84/6
f 74/100/6 64/88/6 65/89/6
f 73/99/31 63/87/31 59/83/31
f 72/98/6 62/86/6 61/85/6
f 73/99/6 71/97/6 61/85/6
f 72/98/32 70/96/32 60/84/32
f 68/94/6 67/92/6 66/90/6
f 31/52/33 23/44/33 68/94/33
f 25/46/34 70/96/34 72/98/34
f 26/47/6 71/97/6 73/99/6
f 27/48/6 72/98/6 71/97/6
f 28/49/6 73/99/6 69/95/6
f 29/50/6 74/100/6 75/101/6
f 25/46/6 30/51/6 75/101/6
f 31/52/6 76/102/6 74/100/6
f 4/10/18 22/42/18 18/34/18
f 3/8/18 4/10/18 18/34/18
f 8/14/18 7/13/18 3/8/18
f 15/28/18 8/14/18 3/8/18
f 3/8/18 18/34/18 19/36/18
f 3/8/18 19/36/18 9/16/18
f 11/20/18 15/28/18 3/8/18
f 3/8/18 9/16/18 14/26/18
f 66/90/35 84/110/35 82/108/35
f 65/89/6 83/109/6 78/104/6
f 64/88/6 82/108/6 83/109/6
f 59/83/36 63/87/36 81/107/36
f 62/86/6 80/106/6 79/105/6
f 61/85/6 79/105/6 81/107/6
f 60/84/6 78/104/6 80/106/6
f 66/90/6 67/92/6 85/112/6
